M48
; DRILL file KiCad 10.0.0 date 2026-05-18T20:49:14
; FORMAT={-:-/ absolute / metric / decimal}
; #@! TF.CreationDate,2026-05-18T20:49:14+02:00
; #@! TF.GenerationSoftware,Kicad,Pcbnew,10.0.0
; #@! TF.FileFunction,Plated,1,2,PTH
FMAT,2
METRIC
; #@! TA.AperFunction,Plated,PTH,ViaDrill
T1C0.300
; #@! TA.AperFunction,Plated,PTH,ComponentDrill
T2C0.300
; #@! TA.AperFunction,Plated,PTH,ViaDrill
T3C0.350
; #@! TA.AperFunction,Plated,PTH,ViaDrill
T4C0.400
; #@! TA.AperFunction,Plated,PTH,ComponentDrill
T5C0.600
; #@! TA.AperFunction,Plated,PTH,ComponentDrill
T6C0.650
; #@! TA.AperFunction,Plated,PTH,ComponentDrill
T7C0.750
; #@! TA.AperFunction,Plated,PTH,ComponentDrill
T8C0.800
; #@! TA.AperFunction,Plated,PTH,ComponentDrill
T9C0.950
; #@! TA.AperFunction,Plated,PTH,ComponentDrill
T10C1.000
; #@! TA.AperFunction,Plated,PTH,ComponentDrill
T11C1.020
; #@! TA.AperFunction,Plated,PTH,ComponentDrill
T12C1.100
; #@! TA.AperFunction,Plated,PTH,ComponentDrill
T13C1.500
; #@! TA.AperFunction,Plated,PTH,ComponentDrill
T14C1.700
; #@! TA.AperFunction,Plated,PTH,ComponentDrill
T15C2.540
; #@! TA.AperFunction,Plated,PTH,ComponentDrill
T16C3.200
%
G90
G05
T1
X31.745Y-40.2
X32.6Y-43.5
X33.6Y-71.595
X35.812Y-67.975
X37.113Y-60.69
X37.9Y-63.583
X38.05Y-114.73
X38.371Y-82.171
X38.945Y-69.745
X39.6Y-51.1
X40.3Y-64.0
X41.1Y-81.4
X41.1Y-106.4
X41.475Y-92.305
X41.5Y-68.3
X42.0Y-53.1
X42.1Y-77.1
X42.246Y-68.9
X42.623Y-94.895
X42.7Y-74.1
X43.095Y-49.0
X43.15Y-66.35
X43.16Y-107.94
X43.172Y-53.272
X43.2Y-51.4
X44.1Y-95.3
X44.95Y-59.95
X45.0Y-91.3
X45.1Y-79.5
X45.305Y-89.185
X45.85Y-68.75
X45.85Y-74.7
X46.006Y-77.1
X46.3Y-94.9
X46.7Y-67.1
X47.1Y-50.4
X47.195Y-69.745
X47.4Y-73.095
X47.7Y-104.3
X47.8Y-54.8
X48.1Y-109.0
X48.8Y-77.1
X49.095Y-61.7
X49.265Y-84.87
X49.544Y-83.344
X49.6Y-74.9
X49.845Y-94.245
X50.1Y-47.9
X50.3Y-77.2
X50.5Y-50.4
X51.3Y-55.9
X51.3Y-57.1
X51.3Y-58.4
X51.3Y-59.9
X51.6Y-65.9
X51.655Y-100.115
X51.8Y-54.8
X51.895Y-72.805
X52.065Y-43.769
X52.095Y-121.595
X52.4Y-50.1
X52.6Y-69.2
X52.7Y-70.499
X52.787Y-46.135
X53.095Y-62.245
X53.3Y-68.6
X53.55Y-77.35
X54.0Y-47.9
X54.155Y-83.88
X54.485Y-71.278
X54.55Y-57.8
X54.655Y-94.436
X54.7Y-54.8
X54.7Y-63.001
X55.142Y-104.075
X55.145Y-102.075
X55.2Y-78.7
X55.7Y-95.9
X56.613Y-77.887
X56.63Y-83.245
X56.9Y-53.1
X57.049Y-54.2
X57.1Y-93.4
X57.2Y-56.0
X57.2Y-59.2
X57.5Y-79.9
X58.403Y-100.503
X58.6Y-54.1
X58.6Y-55.7
X58.6Y-57.9
X59.019Y-77.181
X59.1Y-99.9
X59.4Y-63.4
X59.425Y-51.59
X59.55Y-62.15
X60.5Y-74.3
X61.045Y-107.055
X63.25Y-52.8
X63.4Y-74.7
X64.0Y-42.557
X64.0Y-67.75
X64.5Y-106.8
X64.8Y-42.557
X65.276Y-66.524
X66.8Y-39.7
X66.8Y-72.6
X67.0Y-67.4
X67.55Y-61.55
X68.4Y-79.9
X68.845Y-38.532
X68.9Y-66.3
X69.0Y-71.1
X69.047Y-76.353
X69.35Y-63.2
X71.072Y-79.228
X71.235Y-47.49
X77.9Y-76.9
T2
X61.735Y-58.14
X61.735Y-59.54
X62.435Y-57.44
X62.435Y-58.84
X62.435Y-60.24
X63.135Y-58.14
X63.135Y-59.54
X63.835Y-57.44
X63.835Y-58.84
X63.835Y-60.24
X64.535Y-58.14
X64.535Y-59.54
T3
X29.3Y-71.305
X34.6Y-65.4
X40.7Y-56.5
X44.878Y-71.387
X46.0Y-52.0
X46.515Y-97.7
X49.845Y-95.295
X59.0Y-97.0
T4
X31.95Y-32.25
X31.95Y-56.25
X31.95Y-76.25
X31.95Y-96.25
X31.95Y-112.25
X35.95Y-64.25
X35.95Y-100.25
X35.95Y-112.25
X38.7Y-33.4
X39.95Y-40.25
X39.95Y-48.25
X39.95Y-88.25
X39.95Y-92.25
X39.95Y-100.25
X43.7Y-33.4
X43.95Y-40.25
X43.95Y-104.25
X43.95Y-120.25
X47.95Y-40.25
X47.95Y-116.25
X51.95Y-40.25
X51.95Y-96.25
X51.95Y-116.25
X55.95Y-32.25
X55.95Y-36.25
X55.95Y-44.25
X55.95Y-112.25
X59.95Y-36.25
X59.95Y-40.25
X59.95Y-56.25
X59.95Y-60.25
X59.95Y-116.25
X59.95Y-120.25
X63.95Y-36.25
X63.95Y-92.25
X63.95Y-116.25
X63.95Y-120.25
X67.95Y-88.25
X67.95Y-100.25
X67.95Y-108.25
X67.95Y-112.25
X67.95Y-116.25
X67.95Y-120.25
X71.95Y-36.25
X71.95Y-104.25
X71.95Y-108.25
X71.95Y-112.25
X71.95Y-116.25
X71.95Y-120.25
X75.95Y-36.25
T7
X50.055Y-42.495
X51.325Y-42.495
X52.595Y-42.495
T8
X55.325Y-38.825
X55.325Y-46.445
T9
X31.85Y-34.095
X31.85Y-36.595
X31.85Y-39.095
X31.85Y-41.595
X31.883Y-101.745
X31.883Y-104.245
X31.883Y-106.745
X31.892Y-79.195
X31.892Y-81.695
X31.892Y-84.195
X61.3Y-31.95
X63.8Y-31.95
X66.3Y-31.95
X68.8Y-31.95
T10
X31.85Y-49.145
X31.85Y-51.645
X31.85Y-59.095
X31.85Y-61.595
X31.85Y-69.095
X31.85Y-71.595
X31.91Y-91.695
X31.91Y-94.195
X39.47Y-112.79
X39.47Y-115.33
X39.47Y-117.87
X39.47Y-120.41
X42.01Y-112.79
X42.01Y-115.33
X42.01Y-117.87
X42.01Y-120.41
X51.15Y-31.95
X53.65Y-31.95
X61.045Y-108.7
X63.545Y-108.7
X75.4Y-105.75
X75.4Y-108.25
X75.4Y-116.25
X75.4Y-118.75
T11
X60.975Y-94.98
X63.515Y-94.98
X66.055Y-94.98
X66.895Y-82.026
X68.595Y-94.98
X70.395Y-82.026
X71.135Y-94.98
X73.675Y-94.98
X76.215Y-94.98
T12
X37.595Y-72.245
X37.595Y-78.745
X42.095Y-72.245
X42.095Y-78.745
X45.845Y-72.245
X45.845Y-78.745
X50.345Y-72.245
X50.345Y-78.745
X52.595Y-102.745
X52.595Y-112.905
T13
X41.195Y-32.595
T14
X38.655Y-30.055
X38.655Y-35.135
X43.735Y-30.055
X43.735Y-35.135
T15
X62.245Y-81.01
X74.945Y-81.01
T16
X31.6Y-119.55
X75.55Y-31.8
T5
G00X49.35Y-121.05
M15
G01X49.35Y-121.75
M16
G05
G00X57.7Y-121.05
M15
G01X57.7Y-121.75
M16
G05
T6
G00X51.3Y-118.3
M15
G01X51.3Y-118.5
M16
G05
G00X55.75Y-118.3
M15
G01X55.75Y-118.5
M16
G05
M30
