%TF.GenerationSoftware,KiCad,Pcbnew,10.0.0*%
%TF.CreationDate,2026-05-18T20:49:14+02:00*%
%TF.ProjectId,talk-e,74616c6b-2d65-42e6-9b69-6361645f7063,rev?*%
%TF.SameCoordinates,Original*%
%TF.FileFunction,Drillmap*%
%TF.FilePolarity,Positive*%
%FSLAX45Y45*%
G04 Gerber Fmt 4.5, Leading zero omitted, Abs format (unit mm)*
G04 Created by KiCad (PCBNEW 10.0.0) date 2026-05-18 20:49:14*
%MOMM*%
%LPD*%
G01*
G04 APERTURE LIST*
%ADD10C,0.050000*%
%ADD11C,0.200000*%
G04 APERTURE END LIST*
D10*
X2795000Y-2824500D02*
X7909500Y-2824500D01*
X7909500Y-12324500D01*
X2795000Y-12324500D01*
X2795000Y-2824500D01*
D11*
X3053277Y-12638484D02*
X3053277Y-12438484D01*
X3053277Y-12438484D02*
X3100896Y-12438484D01*
X3100896Y-12438484D02*
X3129467Y-12448008D01*
X3129467Y-12448008D02*
X3148515Y-12467055D01*
X3148515Y-12467055D02*
X3158039Y-12486103D01*
X3158039Y-12486103D02*
X3167562Y-12524198D01*
X3167562Y-12524198D02*
X3167562Y-12552769D01*
X3167562Y-12552769D02*
X3158039Y-12590865D01*
X3158039Y-12590865D02*
X3148515Y-12609912D01*
X3148515Y-12609912D02*
X3129467Y-12628960D01*
X3129467Y-12628960D02*
X3100896Y-12638484D01*
X3100896Y-12638484D02*
X3053277Y-12638484D01*
X3253277Y-12638484D02*
X3253277Y-12505150D01*
X3253277Y-12543246D02*
X3262801Y-12524198D01*
X3262801Y-12524198D02*
X3272324Y-12514674D01*
X3272324Y-12514674D02*
X3291372Y-12505150D01*
X3291372Y-12505150D02*
X3310420Y-12505150D01*
X3377086Y-12638484D02*
X3377086Y-12505150D01*
X3377086Y-12438484D02*
X3367562Y-12448008D01*
X3367562Y-12448008D02*
X3377086Y-12457531D01*
X3377086Y-12457531D02*
X3386610Y-12448008D01*
X3386610Y-12448008D02*
X3377086Y-12438484D01*
X3377086Y-12438484D02*
X3377086Y-12457531D01*
X3500896Y-12638484D02*
X3481848Y-12628960D01*
X3481848Y-12628960D02*
X3472324Y-12609912D01*
X3472324Y-12609912D02*
X3472324Y-12438484D01*
X3605658Y-12638484D02*
X3586610Y-12628960D01*
X3586610Y-12628960D02*
X3577086Y-12609912D01*
X3577086Y-12609912D02*
X3577086Y-12438484D01*
X3834229Y-12638484D02*
X3834229Y-12438484D01*
X3834229Y-12438484D02*
X3900896Y-12581341D01*
X3900896Y-12581341D02*
X3967562Y-12438484D01*
X3967562Y-12438484D02*
X3967562Y-12638484D01*
X4148515Y-12638484D02*
X4148515Y-12533722D01*
X4148515Y-12533722D02*
X4138991Y-12514674D01*
X4138991Y-12514674D02*
X4119943Y-12505150D01*
X4119943Y-12505150D02*
X4081848Y-12505150D01*
X4081848Y-12505150D02*
X4062801Y-12514674D01*
X4148515Y-12628960D02*
X4129467Y-12638484D01*
X4129467Y-12638484D02*
X4081848Y-12638484D01*
X4081848Y-12638484D02*
X4062801Y-12628960D01*
X4062801Y-12628960D02*
X4053277Y-12609912D01*
X4053277Y-12609912D02*
X4053277Y-12590865D01*
X4053277Y-12590865D02*
X4062801Y-12571817D01*
X4062801Y-12571817D02*
X4081848Y-12562293D01*
X4081848Y-12562293D02*
X4129467Y-12562293D01*
X4129467Y-12562293D02*
X4148515Y-12552769D01*
X4243753Y-12505150D02*
X4243753Y-12705150D01*
X4243753Y-12514674D02*
X4262801Y-12505150D01*
X4262801Y-12505150D02*
X4300896Y-12505150D01*
X4300896Y-12505150D02*
X4319944Y-12514674D01*
X4319944Y-12514674D02*
X4329467Y-12524198D01*
X4329467Y-12524198D02*
X4338991Y-12543246D01*
X4338991Y-12543246D02*
X4338991Y-12600388D01*
X4338991Y-12600388D02*
X4329467Y-12619436D01*
X4329467Y-12619436D02*
X4319944Y-12628960D01*
X4319944Y-12628960D02*
X4300896Y-12638484D01*
X4300896Y-12638484D02*
X4262801Y-12638484D01*
X4262801Y-12638484D02*
X4243753Y-12628960D01*
X4424705Y-12619436D02*
X4434229Y-12628960D01*
X4434229Y-12628960D02*
X4424705Y-12638484D01*
X4424705Y-12638484D02*
X4415182Y-12628960D01*
X4415182Y-12628960D02*
X4424705Y-12619436D01*
X4424705Y-12619436D02*
X4424705Y-12638484D01*
X4424705Y-12514674D02*
X4434229Y-12524198D01*
X4434229Y-12524198D02*
X4424705Y-12533722D01*
X4424705Y-12533722D02*
X4415182Y-12524198D01*
X4415182Y-12524198D02*
X4424705Y-12514674D01*
X4424705Y-12514674D02*
X4424705Y-12533722D01*
M02*
