%TF.GenerationSoftware,KiCad,Pcbnew,10.0.0*%
%TF.CreationDate,2026-05-18T20:48:59+02:00*%
%TF.ProjectId,talk-e,74616c6b-2d65-42e6-9b69-6361645f7063,rev?*%
%TF.SameCoordinates,Original*%
%TF.FileFunction,Legend,Top*%
%TF.FilePolarity,Positive*%
%FSLAX46Y46*%
G04 Gerber Fmt 4.6, Leading zero omitted, Abs format (unit mm)*
G04 Created by KiCad (PCBNEW 10.0.0) date 2026-05-18 20:48:59*
%MOMM*%
%LPD*%
G01*
G04 APERTURE LIST*
G04 Aperture macros list*
%AMRoundRect*
0 Rectangle with rounded corners*
0 $1 Rounding radius*
0 $2 $3 $4 $5 $6 $7 $8 $9 X,Y pos of 4 corners*
0 Add a 4 corners polygon primitive as box body*
4,1,4,$2,$3,$4,$5,$6,$7,$8,$9,$2,$3,0*
0 Add four circle primitives for the rounded corners*
1,1,$1+$1,$2,$3*
1,1,$1+$1,$4,$5*
1,1,$1+$1,$6,$7*
1,1,$1+$1,$8,$9*
0 Add four rect primitives between the rounded corners*
20,1,$1+$1,$2,$3,$4,$5,0*
20,1,$1+$1,$4,$5,$6,$7,0*
20,1,$1+$1,$6,$7,$8,$9,0*
20,1,$1+$1,$8,$9,$2,$3,0*%
G04 Aperture macros list end*
%ADD10C,0.100000*%
%ADD11C,0.400000*%
%ADD12C,0.125000*%
%ADD13C,0.150000*%
%ADD14C,0.000000*%
%ADD15C,0.120000*%
%ADD16C,0.127000*%
%ADD17C,0.200000*%
%ADD18RoundRect,0.250000X-0.312500X-0.625000X0.312500X-0.625000X0.312500X0.625000X-0.312500X0.625000X0*%
%ADD19RoundRect,0.250000X-0.250000X-0.475000X0.250000X-0.475000X0.250000X0.475000X-0.250000X0.475000X0*%
%ADD20RoundRect,0.250000X-0.750000X0.600000X-0.750000X-0.600000X0.750000X-0.600000X0.750000X0.600000X0*%
%ADD21O,2.000000X1.700000*%
%ADD22RoundRect,0.250000X0.475000X-0.250000X0.475000X0.250000X-0.475000X0.250000X-0.475000X-0.250000X0*%
%ADD23RoundRect,0.250000X-0.625000X0.312500X-0.625000X-0.312500X0.625000X-0.312500X0.625000X0.312500X0*%
%ADD24RoundRect,0.250000X-0.475000X0.250000X-0.475000X-0.250000X0.475000X-0.250000X0.475000X0.250000X0*%
%ADD25RoundRect,0.250000X0.625000X-0.312500X0.625000X0.312500X-0.625000X0.312500X-0.625000X-0.312500X0*%
%ADD26RoundRect,0.250000X0.725000X-0.600000X0.725000X0.600000X-0.725000X0.600000X-0.725000X-0.600000X0*%
%ADD27O,1.950000X1.700000*%
%ADD28RoundRect,0.250000X0.312500X0.625000X-0.312500X0.625000X-0.312500X-0.625000X0.312500X-0.625000X0*%
%ADD29R,0.900000X1.500000*%
%ADD30R,1.500000X0.900000*%
%ADD31C,0.600000*%
%ADD32R,3.900000X3.900000*%
%ADD33RoundRect,0.250000X0.250000X0.475000X-0.250000X0.475000X-0.250000X-0.475000X0.250000X-0.475000X0*%
%ADD34RoundRect,0.250000X0.550000X-0.550000X0.550000X0.550000X-0.550000X0.550000X-0.550000X-0.550000X0*%
%ADD35C,1.600000*%
%ADD36RoundRect,0.150000X0.512500X0.150000X-0.512500X0.150000X-0.512500X-0.150000X0.512500X-0.150000X0*%
%ADD37RoundRect,0.150000X-0.150000X0.512500X-0.150000X-0.512500X0.150000X-0.512500X0.150000X0.512500X0*%
%ADD38RoundRect,0.250000X0.750000X-0.600000X0.750000X0.600000X-0.750000X0.600000X-0.750000X-0.600000X0*%
%ADD39RoundRect,0.250000X0.600000X0.750000X-0.600000X0.750000X-0.600000X-0.750000X0.600000X-0.750000X0*%
%ADD40O,1.700000X2.000000*%
%ADD41RoundRect,0.250000X-0.600000X-0.750000X0.600000X-0.750000X0.600000X0.750000X-0.600000X0.750000X0*%
%ADD42R,1.700000X1.700000*%
%ADD43C,1.700000*%
%ADD44RoundRect,0.150000X-0.825000X-0.150000X0.825000X-0.150000X0.825000X0.150000X-0.825000X0.150000X0*%
%ADD45R,2.410000X3.300000*%
%ADD46R,1.050000X1.500000*%
%ADD47O,1.050000X1.500000*%
%ADD48RoundRect,0.100000X-0.100000X-0.575000X0.100000X-0.575000X0.100000X0.575000X-0.100000X0.575000X0*%
%ADD49O,1.000000X1.900000*%
%ADD50R,0.875000X1.900000*%
%ADD51O,1.050000X1.250000*%
%ADD52RoundRect,0.250000X-1.200000X-0.700000X1.200000X-0.700000X1.200000X0.700000X-1.200000X0.700000X0*%
%ADD53C,3.600000*%
%ADD54C,6.400000*%
%ADD55RoundRect,0.200100X-0.949900X-0.949900X0.949900X-0.949900X0.949900X0.949900X-0.949900X0.949900X0*%
%ADD56C,2.500000*%
%ADD57RoundRect,0.150000X-0.587500X-0.150000X0.587500X-0.150000X0.587500X0.150000X-0.587500X0.150000X0*%
%ADD58RoundRect,0.075500X0.806500X0.226500X-0.806500X0.226500X-0.806500X-0.226500X0.806500X-0.226500X0*%
%ADD59RoundRect,0.249999X-0.850001X0.850001X-0.850001X-0.850001X0.850001X-0.850001X0.850001X0.850001X0*%
%ADD60C,2.200000*%
%ADD61RoundRect,0.102000X0.250000X-0.537500X0.250000X0.537500X-0.250000X0.537500X-0.250000X-0.537500X0*%
%ADD62RoundRect,0.250000X-0.600000X-0.725000X0.600000X-0.725000X0.600000X0.725000X-0.600000X0.725000X0*%
%ADD63O,1.700000X1.950000*%
%ADD64C,2.000000*%
%ADD65C,1.734000*%
%ADD66C,3.760000*%
G04 APERTURE END LIST*
D10*
X58039598Y-62272419D02*
X58039598Y-62986704D01*
X58039598Y-62986704D02*
X57991979Y-63129561D01*
X57991979Y-63129561D02*
X57896741Y-63224800D01*
X57896741Y-63224800D02*
X57753884Y-63272419D01*
X57753884Y-63272419D02*
X57658646Y-63272419D01*
X58991979Y-63272419D02*
X58515789Y-63272419D01*
X58515789Y-63272419D02*
X58515789Y-62272419D01*
X59896741Y-63177180D02*
X59849122Y-63224800D01*
X59849122Y-63224800D02*
X59706265Y-63272419D01*
X59706265Y-63272419D02*
X59611027Y-63272419D01*
X59611027Y-63272419D02*
X59468170Y-63224800D01*
X59468170Y-63224800D02*
X59372932Y-63129561D01*
X59372932Y-63129561D02*
X59325313Y-63034323D01*
X59325313Y-63034323D02*
X59277694Y-62843847D01*
X59277694Y-62843847D02*
X59277694Y-62700990D01*
X59277694Y-62700990D02*
X59325313Y-62510514D01*
X59325313Y-62510514D02*
X59372932Y-62415276D01*
X59372932Y-62415276D02*
X59468170Y-62320038D01*
X59468170Y-62320038D02*
X59611027Y-62272419D01*
X59611027Y-62272419D02*
X59706265Y-62272419D01*
X59706265Y-62272419D02*
X59849122Y-62320038D01*
X59849122Y-62320038D02*
X59896741Y-62367657D01*
X60611027Y-62272419D02*
X60611027Y-62986704D01*
X60611027Y-62986704D02*
X60563408Y-63129561D01*
X60563408Y-63129561D02*
X60468170Y-63224800D01*
X60468170Y-63224800D02*
X60325313Y-63272419D01*
X60325313Y-63272419D02*
X60230075Y-63272419D01*
X61563408Y-63272419D02*
X61087218Y-63272419D01*
X61087218Y-63272419D02*
X61087218Y-62272419D01*
X62468170Y-63177180D02*
X62420551Y-63224800D01*
X62420551Y-63224800D02*
X62277694Y-63272419D01*
X62277694Y-63272419D02*
X62182456Y-63272419D01*
X62182456Y-63272419D02*
X62039599Y-63224800D01*
X62039599Y-63224800D02*
X61944361Y-63129561D01*
X61944361Y-63129561D02*
X61896742Y-63034323D01*
X61896742Y-63034323D02*
X61849123Y-62843847D01*
X61849123Y-62843847D02*
X61849123Y-62700990D01*
X61849123Y-62700990D02*
X61896742Y-62510514D01*
X61896742Y-62510514D02*
X61944361Y-62415276D01*
X61944361Y-62415276D02*
X62039599Y-62320038D01*
X62039599Y-62320038D02*
X62182456Y-62272419D01*
X62182456Y-62272419D02*
X62277694Y-62272419D01*
X62277694Y-62272419D02*
X62420551Y-62320038D01*
X62420551Y-62320038D02*
X62468170Y-62367657D01*
X63182456Y-62272419D02*
X63182456Y-62986704D01*
X63182456Y-62986704D02*
X63134837Y-63129561D01*
X63134837Y-63129561D02*
X63039599Y-63224800D01*
X63039599Y-63224800D02*
X62896742Y-63272419D01*
X62896742Y-63272419D02*
X62801504Y-63272419D01*
X64134837Y-63272419D02*
X63658647Y-63272419D01*
X63658647Y-63272419D02*
X63658647Y-62272419D01*
X65039599Y-63177180D02*
X64991980Y-63224800D01*
X64991980Y-63224800D02*
X64849123Y-63272419D01*
X64849123Y-63272419D02*
X64753885Y-63272419D01*
X64753885Y-63272419D02*
X64611028Y-63224800D01*
X64611028Y-63224800D02*
X64515790Y-63129561D01*
X64515790Y-63129561D02*
X64468171Y-63034323D01*
X64468171Y-63034323D02*
X64420552Y-62843847D01*
X64420552Y-62843847D02*
X64420552Y-62700990D01*
X64420552Y-62700990D02*
X64468171Y-62510514D01*
X64468171Y-62510514D02*
X64515790Y-62415276D01*
X64515790Y-62415276D02*
X64611028Y-62320038D01*
X64611028Y-62320038D02*
X64753885Y-62272419D01*
X64753885Y-62272419D02*
X64849123Y-62272419D01*
X64849123Y-62272419D02*
X64991980Y-62320038D01*
X64991980Y-62320038D02*
X65039599Y-62367657D01*
X65753885Y-62272419D02*
X65753885Y-62986704D01*
X65753885Y-62986704D02*
X65706266Y-63129561D01*
X65706266Y-63129561D02*
X65611028Y-63224800D01*
X65611028Y-63224800D02*
X65468171Y-63272419D01*
X65468171Y-63272419D02*
X65372933Y-63272419D01*
X66706266Y-63272419D02*
X66230076Y-63272419D01*
X66230076Y-63272419D02*
X66230076Y-62272419D01*
X67611028Y-63177180D02*
X67563409Y-63224800D01*
X67563409Y-63224800D02*
X67420552Y-63272419D01*
X67420552Y-63272419D02*
X67325314Y-63272419D01*
X67325314Y-63272419D02*
X67182457Y-63224800D01*
X67182457Y-63224800D02*
X67087219Y-63129561D01*
X67087219Y-63129561D02*
X67039600Y-63034323D01*
X67039600Y-63034323D02*
X66991981Y-62843847D01*
X66991981Y-62843847D02*
X66991981Y-62700990D01*
X66991981Y-62700990D02*
X67039600Y-62510514D01*
X67039600Y-62510514D02*
X67087219Y-62415276D01*
X67087219Y-62415276D02*
X67182457Y-62320038D01*
X67182457Y-62320038D02*
X67325314Y-62272419D01*
X67325314Y-62272419D02*
X67420552Y-62272419D01*
X67420552Y-62272419D02*
X67563409Y-62320038D01*
X67563409Y-62320038D02*
X67611028Y-62367657D01*
D11*
X60553633Y-115034438D02*
X61696490Y-115034438D01*
X61125061Y-117034438D02*
X61125061Y-115034438D01*
X63220300Y-117034438D02*
X63220300Y-115986819D01*
X63220300Y-115986819D02*
X63125062Y-115796342D01*
X63125062Y-115796342D02*
X62934586Y-115701104D01*
X62934586Y-115701104D02*
X62553633Y-115701104D01*
X62553633Y-115701104D02*
X62363157Y-115796342D01*
X63220300Y-116939200D02*
X63029824Y-117034438D01*
X63029824Y-117034438D02*
X62553633Y-117034438D01*
X62553633Y-117034438D02*
X62363157Y-116939200D01*
X62363157Y-116939200D02*
X62267919Y-116748723D01*
X62267919Y-116748723D02*
X62267919Y-116558247D01*
X62267919Y-116558247D02*
X62363157Y-116367771D01*
X62363157Y-116367771D02*
X62553633Y-116272533D01*
X62553633Y-116272533D02*
X63029824Y-116272533D01*
X63029824Y-116272533D02*
X63220300Y-116177295D01*
X64458395Y-117034438D02*
X64267919Y-116939200D01*
X64267919Y-116939200D02*
X64172681Y-116748723D01*
X64172681Y-116748723D02*
X64172681Y-115034438D01*
X65220300Y-117034438D02*
X65220300Y-115034438D01*
X65410776Y-116272533D02*
X65982205Y-117034438D01*
X65982205Y-115701104D02*
X65220300Y-116463009D01*
X66839348Y-116272533D02*
X68363158Y-116272533D01*
X69315538Y-115986819D02*
X69982205Y-115986819D01*
X70267919Y-117034438D02*
X69315538Y-117034438D01*
X69315538Y-117034438D02*
X69315538Y-115034438D01*
X69315538Y-115034438D02*
X70267919Y-115034438D01*
D12*
X60127474Y-119461175D02*
X60698902Y-119461175D01*
X60413188Y-120461175D02*
X60413188Y-119461175D01*
X61032236Y-120461175D02*
X61032236Y-119461175D01*
X61460807Y-120461175D02*
X61460807Y-119937365D01*
X61460807Y-119937365D02*
X61413188Y-119842127D01*
X61413188Y-119842127D02*
X61317950Y-119794508D01*
X61317950Y-119794508D02*
X61175093Y-119794508D01*
X61175093Y-119794508D02*
X61079855Y-119842127D01*
X61079855Y-119842127D02*
X61032236Y-119889746D01*
X62079855Y-120461175D02*
X61984617Y-120413556D01*
X61984617Y-120413556D02*
X61936998Y-120365936D01*
X61936998Y-120365936D02*
X61889379Y-120270698D01*
X61889379Y-120270698D02*
X61889379Y-119984984D01*
X61889379Y-119984984D02*
X61936998Y-119889746D01*
X61936998Y-119889746D02*
X61984617Y-119842127D01*
X61984617Y-119842127D02*
X62079855Y-119794508D01*
X62079855Y-119794508D02*
X62222712Y-119794508D01*
X62222712Y-119794508D02*
X62317950Y-119842127D01*
X62317950Y-119842127D02*
X62365569Y-119889746D01*
X62365569Y-119889746D02*
X62413188Y-119984984D01*
X62413188Y-119984984D02*
X62413188Y-120270698D01*
X62413188Y-120270698D02*
X62365569Y-120365936D01*
X62365569Y-120365936D02*
X62317950Y-120413556D01*
X62317950Y-120413556D02*
X62222712Y-120461175D01*
X62222712Y-120461175D02*
X62079855Y-120461175D01*
X62841760Y-120461175D02*
X62841760Y-119794508D01*
X62841760Y-119889746D02*
X62889379Y-119842127D01*
X62889379Y-119842127D02*
X62984617Y-119794508D01*
X62984617Y-119794508D02*
X63127474Y-119794508D01*
X63127474Y-119794508D02*
X63222712Y-119842127D01*
X63222712Y-119842127D02*
X63270331Y-119937365D01*
X63270331Y-119937365D02*
X63270331Y-120461175D01*
X63270331Y-119937365D02*
X63317950Y-119842127D01*
X63317950Y-119842127D02*
X63413188Y-119794508D01*
X63413188Y-119794508D02*
X63556045Y-119794508D01*
X63556045Y-119794508D02*
X63651284Y-119842127D01*
X63651284Y-119842127D02*
X63698903Y-119937365D01*
X63698903Y-119937365D02*
X63698903Y-120461175D01*
X64603664Y-120461175D02*
X64603664Y-119937365D01*
X64603664Y-119937365D02*
X64556045Y-119842127D01*
X64556045Y-119842127D02*
X64460807Y-119794508D01*
X64460807Y-119794508D02*
X64270331Y-119794508D01*
X64270331Y-119794508D02*
X64175093Y-119842127D01*
X64603664Y-120413556D02*
X64508426Y-120461175D01*
X64508426Y-120461175D02*
X64270331Y-120461175D01*
X64270331Y-120461175D02*
X64175093Y-120413556D01*
X64175093Y-120413556D02*
X64127474Y-120318317D01*
X64127474Y-120318317D02*
X64127474Y-120223079D01*
X64127474Y-120223079D02*
X64175093Y-120127841D01*
X64175093Y-120127841D02*
X64270331Y-120080222D01*
X64270331Y-120080222D02*
X64508426Y-120080222D01*
X64508426Y-120080222D02*
X64603664Y-120032603D01*
X65032236Y-120413556D02*
X65127474Y-120461175D01*
X65127474Y-120461175D02*
X65317950Y-120461175D01*
X65317950Y-120461175D02*
X65413188Y-120413556D01*
X65413188Y-120413556D02*
X65460807Y-120318317D01*
X65460807Y-120318317D02*
X65460807Y-120270698D01*
X65460807Y-120270698D02*
X65413188Y-120175460D01*
X65413188Y-120175460D02*
X65317950Y-120127841D01*
X65317950Y-120127841D02*
X65175093Y-120127841D01*
X65175093Y-120127841D02*
X65079855Y-120080222D01*
X65079855Y-120080222D02*
X65032236Y-119984984D01*
X65032236Y-119984984D02*
X65032236Y-119937365D01*
X65032236Y-119937365D02*
X65079855Y-119842127D01*
X65079855Y-119842127D02*
X65175093Y-119794508D01*
X65175093Y-119794508D02*
X65317950Y-119794508D01*
X65317950Y-119794508D02*
X65413188Y-119842127D01*
X66651284Y-120461175D02*
X66651284Y-119461175D01*
X66651284Y-119461175D02*
X67032236Y-119461175D01*
X67032236Y-119461175D02*
X67127474Y-119508794D01*
X67127474Y-119508794D02*
X67175093Y-119556413D01*
X67175093Y-119556413D02*
X67222712Y-119651651D01*
X67222712Y-119651651D02*
X67222712Y-119794508D01*
X67222712Y-119794508D02*
X67175093Y-119889746D01*
X67175093Y-119889746D02*
X67127474Y-119937365D01*
X67127474Y-119937365D02*
X67032236Y-119984984D01*
X67032236Y-119984984D02*
X66651284Y-119984984D01*
X67651284Y-120461175D02*
X67651284Y-119794508D01*
X67651284Y-119461175D02*
X67603665Y-119508794D01*
X67603665Y-119508794D02*
X67651284Y-119556413D01*
X67651284Y-119556413D02*
X67698903Y-119508794D01*
X67698903Y-119508794D02*
X67651284Y-119461175D01*
X67651284Y-119461175D02*
X67651284Y-119556413D01*
X68127474Y-119794508D02*
X68127474Y-120461175D01*
X68127474Y-119889746D02*
X68175093Y-119842127D01*
X68175093Y-119842127D02*
X68270331Y-119794508D01*
X68270331Y-119794508D02*
X68413188Y-119794508D01*
X68413188Y-119794508D02*
X68508426Y-119842127D01*
X68508426Y-119842127D02*
X68556045Y-119937365D01*
X68556045Y-119937365D02*
X68556045Y-120461175D01*
X69413188Y-120413556D02*
X69317950Y-120461175D01*
X69317950Y-120461175D02*
X69127474Y-120461175D01*
X69127474Y-120461175D02*
X69032236Y-120413556D01*
X69032236Y-120413556D02*
X68984617Y-120318317D01*
X68984617Y-120318317D02*
X68984617Y-119937365D01*
X68984617Y-119937365D02*
X69032236Y-119842127D01*
X69032236Y-119842127D02*
X69127474Y-119794508D01*
X69127474Y-119794508D02*
X69317950Y-119794508D01*
X69317950Y-119794508D02*
X69413188Y-119842127D01*
X69413188Y-119842127D02*
X69460807Y-119937365D01*
X69460807Y-119937365D02*
X69460807Y-120032603D01*
X69460807Y-120032603D02*
X68984617Y-120127841D01*
X70317950Y-120461175D02*
X70317950Y-119937365D01*
X70317950Y-119937365D02*
X70270331Y-119842127D01*
X70270331Y-119842127D02*
X70175093Y-119794508D01*
X70175093Y-119794508D02*
X69984617Y-119794508D01*
X69984617Y-119794508D02*
X69889379Y-119842127D01*
X70317950Y-120413556D02*
X70222712Y-120461175D01*
X70222712Y-120461175D02*
X69984617Y-120461175D01*
X69984617Y-120461175D02*
X69889379Y-120413556D01*
X69889379Y-120413556D02*
X69841760Y-120318317D01*
X69841760Y-120318317D02*
X69841760Y-120223079D01*
X69841760Y-120223079D02*
X69889379Y-120127841D01*
X69889379Y-120127841D02*
X69984617Y-120080222D01*
X69984617Y-120080222D02*
X70222712Y-120080222D01*
X70222712Y-120080222D02*
X70317950Y-120032603D01*
X71222712Y-119794508D02*
X71222712Y-120461175D01*
X70794141Y-119794508D02*
X70794141Y-120318317D01*
X70794141Y-120318317D02*
X70841760Y-120413556D01*
X70841760Y-120413556D02*
X70936998Y-120461175D01*
X70936998Y-120461175D02*
X71079855Y-120461175D01*
X71079855Y-120461175D02*
X71175093Y-120413556D01*
X71175093Y-120413556D02*
X71222712Y-120365936D01*
X60270331Y-122071119D02*
X60270331Y-121071119D01*
X60270331Y-121071119D02*
X60603664Y-121785404D01*
X60603664Y-121785404D02*
X60936997Y-121071119D01*
X60936997Y-121071119D02*
X60936997Y-122071119D01*
X61413188Y-122071119D02*
X61413188Y-121404452D01*
X61413188Y-121071119D02*
X61365569Y-121118738D01*
X61365569Y-121118738D02*
X61413188Y-121166357D01*
X61413188Y-121166357D02*
X61460807Y-121118738D01*
X61460807Y-121118738D02*
X61413188Y-121071119D01*
X61413188Y-121071119D02*
X61413188Y-121166357D01*
X62032235Y-122071119D02*
X61936997Y-122023500D01*
X61936997Y-122023500D02*
X61889378Y-121928261D01*
X61889378Y-121928261D02*
X61889378Y-121071119D01*
X62556045Y-122071119D02*
X62460807Y-122023500D01*
X62460807Y-122023500D02*
X62413188Y-121975880D01*
X62413188Y-121975880D02*
X62365569Y-121880642D01*
X62365569Y-121880642D02*
X62365569Y-121594928D01*
X62365569Y-121594928D02*
X62413188Y-121499690D01*
X62413188Y-121499690D02*
X62460807Y-121452071D01*
X62460807Y-121452071D02*
X62556045Y-121404452D01*
X62556045Y-121404452D02*
X62698902Y-121404452D01*
X62698902Y-121404452D02*
X62794140Y-121452071D01*
X62794140Y-121452071D02*
X62841759Y-121499690D01*
X62841759Y-121499690D02*
X62889378Y-121594928D01*
X62889378Y-121594928D02*
X62889378Y-121880642D01*
X62889378Y-121880642D02*
X62841759Y-121975880D01*
X62841759Y-121975880D02*
X62794140Y-122023500D01*
X62794140Y-122023500D02*
X62698902Y-122071119D01*
X62698902Y-122071119D02*
X62556045Y-122071119D01*
X63222712Y-121404452D02*
X63460807Y-122071119D01*
X63460807Y-122071119D02*
X63698902Y-121404452D01*
X64508426Y-122071119D02*
X64508426Y-121547309D01*
X64508426Y-121547309D02*
X64460807Y-121452071D01*
X64460807Y-121452071D02*
X64365569Y-121404452D01*
X64365569Y-121404452D02*
X64175093Y-121404452D01*
X64175093Y-121404452D02*
X64079855Y-121452071D01*
X64508426Y-122023500D02*
X64413188Y-122071119D01*
X64413188Y-122071119D02*
X64175093Y-122071119D01*
X64175093Y-122071119D02*
X64079855Y-122023500D01*
X64079855Y-122023500D02*
X64032236Y-121928261D01*
X64032236Y-121928261D02*
X64032236Y-121833023D01*
X64032236Y-121833023D02*
X64079855Y-121737785D01*
X64079855Y-121737785D02*
X64175093Y-121690166D01*
X64175093Y-121690166D02*
X64413188Y-121690166D01*
X64413188Y-121690166D02*
X64508426Y-121642547D01*
X64984617Y-121404452D02*
X64984617Y-122071119D01*
X64984617Y-121499690D02*
X65032236Y-121452071D01*
X65032236Y-121452071D02*
X65127474Y-121404452D01*
X65127474Y-121404452D02*
X65270331Y-121404452D01*
X65270331Y-121404452D02*
X65365569Y-121452071D01*
X65365569Y-121452071D02*
X65413188Y-121547309D01*
X65413188Y-121547309D02*
X65413188Y-122071119D01*
X66651284Y-122071119D02*
X66651284Y-121071119D01*
X66651284Y-121071119D02*
X67032236Y-121071119D01*
X67032236Y-121071119D02*
X67127474Y-121118738D01*
X67127474Y-121118738D02*
X67175093Y-121166357D01*
X67175093Y-121166357D02*
X67222712Y-121261595D01*
X67222712Y-121261595D02*
X67222712Y-121404452D01*
X67222712Y-121404452D02*
X67175093Y-121499690D01*
X67175093Y-121499690D02*
X67127474Y-121547309D01*
X67127474Y-121547309D02*
X67032236Y-121594928D01*
X67032236Y-121594928D02*
X66651284Y-121594928D01*
X67651284Y-122071119D02*
X67651284Y-121071119D01*
X67651284Y-121071119D02*
X67984617Y-121785404D01*
X67984617Y-121785404D02*
X68317950Y-121071119D01*
X68317950Y-121071119D02*
X68317950Y-122071119D01*
X68746522Y-122023500D02*
X68889379Y-122071119D01*
X68889379Y-122071119D02*
X69127474Y-122071119D01*
X69127474Y-122071119D02*
X69222712Y-122023500D01*
X69222712Y-122023500D02*
X69270331Y-121975880D01*
X69270331Y-121975880D02*
X69317950Y-121880642D01*
X69317950Y-121880642D02*
X69317950Y-121785404D01*
X69317950Y-121785404D02*
X69270331Y-121690166D01*
X69270331Y-121690166D02*
X69222712Y-121642547D01*
X69222712Y-121642547D02*
X69127474Y-121594928D01*
X69127474Y-121594928D02*
X68936998Y-121547309D01*
X68936998Y-121547309D02*
X68841760Y-121499690D01*
X68841760Y-121499690D02*
X68794141Y-121452071D01*
X68794141Y-121452071D02*
X68746522Y-121356833D01*
X68746522Y-121356833D02*
X68746522Y-121261595D01*
X68746522Y-121261595D02*
X68794141Y-121166357D01*
X68794141Y-121166357D02*
X68841760Y-121118738D01*
X68841760Y-121118738D02*
X68936998Y-121071119D01*
X68936998Y-121071119D02*
X69175093Y-121071119D01*
X69175093Y-121071119D02*
X69317950Y-121118738D01*
D13*
X31686779Y-75919819D02*
X31686779Y-74919819D01*
X31686779Y-75396009D02*
X32258207Y-75396009D01*
X32258207Y-75919819D02*
X32258207Y-74919819D01*
X32877255Y-75919819D02*
X32782017Y-75872200D01*
X32782017Y-75872200D02*
X32734398Y-75824580D01*
X32734398Y-75824580D02*
X32686779Y-75729342D01*
X32686779Y-75729342D02*
X32686779Y-75443628D01*
X32686779Y-75443628D02*
X32734398Y-75348390D01*
X32734398Y-75348390D02*
X32782017Y-75300771D01*
X32782017Y-75300771D02*
X32877255Y-75253152D01*
X32877255Y-75253152D02*
X33020112Y-75253152D01*
X33020112Y-75253152D02*
X33115350Y-75300771D01*
X33115350Y-75300771D02*
X33162969Y-75348390D01*
X33162969Y-75348390D02*
X33210588Y-75443628D01*
X33210588Y-75443628D02*
X33210588Y-75729342D01*
X33210588Y-75729342D02*
X33162969Y-75824580D01*
X33162969Y-75824580D02*
X33115350Y-75872200D01*
X33115350Y-75872200D02*
X33020112Y-75919819D01*
X33020112Y-75919819D02*
X32877255Y-75919819D01*
X33782017Y-75919819D02*
X33686779Y-75872200D01*
X33686779Y-75872200D02*
X33639160Y-75776961D01*
X33639160Y-75776961D02*
X33639160Y-74919819D01*
X34591541Y-75919819D02*
X34591541Y-74919819D01*
X34591541Y-75872200D02*
X34496303Y-75919819D01*
X34496303Y-75919819D02*
X34305827Y-75919819D01*
X34305827Y-75919819D02*
X34210589Y-75872200D01*
X34210589Y-75872200D02*
X34162970Y-75824580D01*
X34162970Y-75824580D02*
X34115351Y-75729342D01*
X34115351Y-75729342D02*
X34115351Y-75443628D01*
X34115351Y-75443628D02*
X34162970Y-75348390D01*
X34162970Y-75348390D02*
X34210589Y-75300771D01*
X34210589Y-75300771D02*
X34305827Y-75253152D01*
X34305827Y-75253152D02*
X34496303Y-75253152D01*
X34496303Y-75253152D02*
X34591541Y-75300771D01*
X32136779Y-45864819D02*
X32136779Y-44864819D01*
X32136779Y-44864819D02*
X32517731Y-44864819D01*
X32517731Y-44864819D02*
X32612969Y-44912438D01*
X32612969Y-44912438D02*
X32660588Y-44960057D01*
X32660588Y-44960057D02*
X32708207Y-45055295D01*
X32708207Y-45055295D02*
X32708207Y-45198152D01*
X32708207Y-45198152D02*
X32660588Y-45293390D01*
X32660588Y-45293390D02*
X32612969Y-45341009D01*
X32612969Y-45341009D02*
X32517731Y-45388628D01*
X32517731Y-45388628D02*
X32136779Y-45388628D01*
X32993922Y-44864819D02*
X33565350Y-44864819D01*
X33279636Y-45864819D02*
X33279636Y-44864819D01*
X33755827Y-44864819D02*
X34327255Y-44864819D01*
X34041541Y-45864819D02*
X34041541Y-44864819D01*
X32665112Y-87941009D02*
X32807969Y-87988628D01*
X32807969Y-87988628D02*
X32855588Y-88036247D01*
X32855588Y-88036247D02*
X32903207Y-88131485D01*
X32903207Y-88131485D02*
X32903207Y-88274342D01*
X32903207Y-88274342D02*
X32855588Y-88369580D01*
X32855588Y-88369580D02*
X32807969Y-88417200D01*
X32807969Y-88417200D02*
X32712731Y-88464819D01*
X32712731Y-88464819D02*
X32331779Y-88464819D01*
X32331779Y-88464819D02*
X32331779Y-87464819D01*
X32331779Y-87464819D02*
X32665112Y-87464819D01*
X32665112Y-87464819D02*
X32760350Y-87512438D01*
X32760350Y-87512438D02*
X32807969Y-87560057D01*
X32807969Y-87560057D02*
X32855588Y-87655295D01*
X32855588Y-87655295D02*
X32855588Y-87750533D01*
X32855588Y-87750533D02*
X32807969Y-87845771D01*
X32807969Y-87845771D02*
X32760350Y-87893390D01*
X32760350Y-87893390D02*
X32665112Y-87941009D01*
X32665112Y-87941009D02*
X32331779Y-87941009D01*
X33760350Y-88464819D02*
X33760350Y-87941009D01*
X33760350Y-87941009D02*
X33712731Y-87845771D01*
X33712731Y-87845771D02*
X33617493Y-87798152D01*
X33617493Y-87798152D02*
X33427017Y-87798152D01*
X33427017Y-87798152D02*
X33331779Y-87845771D01*
X33760350Y-88417200D02*
X33665112Y-88464819D01*
X33665112Y-88464819D02*
X33427017Y-88464819D01*
X33427017Y-88464819D02*
X33331779Y-88417200D01*
X33331779Y-88417200D02*
X33284160Y-88321961D01*
X33284160Y-88321961D02*
X33284160Y-88226723D01*
X33284160Y-88226723D02*
X33331779Y-88131485D01*
X33331779Y-88131485D02*
X33427017Y-88083866D01*
X33427017Y-88083866D02*
X33665112Y-88083866D01*
X33665112Y-88083866D02*
X33760350Y-88036247D01*
X34093684Y-87798152D02*
X34474636Y-87798152D01*
X34236541Y-87464819D02*
X34236541Y-88321961D01*
X34236541Y-88321961D02*
X34284160Y-88417200D01*
X34284160Y-88417200D02*
X34379398Y-88464819D01*
X34379398Y-88464819D02*
X34474636Y-88464819D01*
X32331779Y-98464819D02*
X32331779Y-97464819D01*
X32331779Y-97464819D02*
X32665112Y-98179104D01*
X32665112Y-98179104D02*
X32998445Y-97464819D01*
X32998445Y-97464819D02*
X32998445Y-98464819D01*
X33474636Y-98464819D02*
X33474636Y-97798152D01*
X33474636Y-97464819D02*
X33427017Y-97512438D01*
X33427017Y-97512438D02*
X33474636Y-97560057D01*
X33474636Y-97560057D02*
X33522255Y-97512438D01*
X33522255Y-97512438D02*
X33474636Y-97464819D01*
X33474636Y-97464819D02*
X33474636Y-97560057D01*
X34379397Y-98417200D02*
X34284159Y-98464819D01*
X34284159Y-98464819D02*
X34093683Y-98464819D01*
X34093683Y-98464819D02*
X33998445Y-98417200D01*
X33998445Y-98417200D02*
X33950826Y-98369580D01*
X33950826Y-98369580D02*
X33903207Y-98274342D01*
X33903207Y-98274342D02*
X33903207Y-97988628D01*
X33903207Y-97988628D02*
X33950826Y-97893390D01*
X33950826Y-97893390D02*
X33998445Y-97845771D01*
X33998445Y-97845771D02*
X34093683Y-97798152D01*
X34093683Y-97798152D02*
X34284159Y-97798152D01*
X34284159Y-97798152D02*
X34379397Y-97845771D01*
X32970112Y-30341009D02*
X33112969Y-30388628D01*
X33112969Y-30388628D02*
X33160588Y-30436247D01*
X33160588Y-30436247D02*
X33208207Y-30531485D01*
X33208207Y-30531485D02*
X33208207Y-30674342D01*
X33208207Y-30674342D02*
X33160588Y-30769580D01*
X33160588Y-30769580D02*
X33112969Y-30817200D01*
X33112969Y-30817200D02*
X33017731Y-30864819D01*
X33017731Y-30864819D02*
X32636779Y-30864819D01*
X32636779Y-30864819D02*
X32636779Y-29864819D01*
X32636779Y-29864819D02*
X32970112Y-29864819D01*
X32970112Y-29864819D02*
X33065350Y-29912438D01*
X33065350Y-29912438D02*
X33112969Y-29960057D01*
X33112969Y-29960057D02*
X33160588Y-30055295D01*
X33160588Y-30055295D02*
X33160588Y-30150533D01*
X33160588Y-30150533D02*
X33112969Y-30245771D01*
X33112969Y-30245771D02*
X33065350Y-30293390D01*
X33065350Y-30293390D02*
X32970112Y-30341009D01*
X32970112Y-30341009D02*
X32636779Y-30341009D01*
X34208207Y-30769580D02*
X34160588Y-30817200D01*
X34160588Y-30817200D02*
X34017731Y-30864819D01*
X34017731Y-30864819D02*
X33922493Y-30864819D01*
X33922493Y-30864819D02*
X33779636Y-30817200D01*
X33779636Y-30817200D02*
X33684398Y-30721961D01*
X33684398Y-30721961D02*
X33636779Y-30626723D01*
X33636779Y-30626723D02*
X33589160Y-30436247D01*
X33589160Y-30436247D02*
X33589160Y-30293390D01*
X33589160Y-30293390D02*
X33636779Y-30102914D01*
X33636779Y-30102914D02*
X33684398Y-30007676D01*
X33684398Y-30007676D02*
X33779636Y-29912438D01*
X33779636Y-29912438D02*
X33922493Y-29864819D01*
X33922493Y-29864819D02*
X34017731Y-29864819D01*
X34017731Y-29864819D02*
X34160588Y-29912438D01*
X34160588Y-29912438D02*
X34208207Y-29960057D01*
X33065112Y-55341009D02*
X33207969Y-55388628D01*
X33207969Y-55388628D02*
X33255588Y-55436247D01*
X33255588Y-55436247D02*
X33303207Y-55531485D01*
X33303207Y-55531485D02*
X33303207Y-55674342D01*
X33303207Y-55674342D02*
X33255588Y-55769580D01*
X33255588Y-55769580D02*
X33207969Y-55817200D01*
X33207969Y-55817200D02*
X33112731Y-55864819D01*
X33112731Y-55864819D02*
X32731779Y-55864819D01*
X32731779Y-55864819D02*
X32731779Y-54864819D01*
X32731779Y-54864819D02*
X33065112Y-54864819D01*
X33065112Y-54864819D02*
X33160350Y-54912438D01*
X33160350Y-54912438D02*
X33207969Y-54960057D01*
X33207969Y-54960057D02*
X33255588Y-55055295D01*
X33255588Y-55055295D02*
X33255588Y-55150533D01*
X33255588Y-55150533D02*
X33207969Y-55245771D01*
X33207969Y-55245771D02*
X33160350Y-55293390D01*
X33160350Y-55293390D02*
X33065112Y-55341009D01*
X33065112Y-55341009D02*
X32731779Y-55341009D01*
X33731779Y-55864819D02*
X33731779Y-54864819D01*
X33731779Y-54864819D02*
X33969874Y-54864819D01*
X33969874Y-54864819D02*
X34112731Y-54912438D01*
X34112731Y-54912438D02*
X34207969Y-55007676D01*
X34207969Y-55007676D02*
X34255588Y-55102914D01*
X34255588Y-55102914D02*
X34303207Y-55293390D01*
X34303207Y-55293390D02*
X34303207Y-55436247D01*
X34303207Y-55436247D02*
X34255588Y-55626723D01*
X34255588Y-55626723D02*
X34207969Y-55721961D01*
X34207969Y-55721961D02*
X34112731Y-55817200D01*
X34112731Y-55817200D02*
X33969874Y-55864819D01*
X33969874Y-55864819D02*
X33731779Y-55864819D01*
X33070112Y-65341009D02*
X33212969Y-65388628D01*
X33212969Y-65388628D02*
X33260588Y-65436247D01*
X33260588Y-65436247D02*
X33308207Y-65531485D01*
X33308207Y-65531485D02*
X33308207Y-65674342D01*
X33308207Y-65674342D02*
X33260588Y-65769580D01*
X33260588Y-65769580D02*
X33212969Y-65817200D01*
X33212969Y-65817200D02*
X33117731Y-65864819D01*
X33117731Y-65864819D02*
X32736779Y-65864819D01*
X32736779Y-65864819D02*
X32736779Y-64864819D01*
X32736779Y-64864819D02*
X33070112Y-64864819D01*
X33070112Y-64864819D02*
X33165350Y-64912438D01*
X33165350Y-64912438D02*
X33212969Y-64960057D01*
X33212969Y-64960057D02*
X33260588Y-65055295D01*
X33260588Y-65055295D02*
X33260588Y-65150533D01*
X33260588Y-65150533D02*
X33212969Y-65245771D01*
X33212969Y-65245771D02*
X33165350Y-65293390D01*
X33165350Y-65293390D02*
X33070112Y-65341009D01*
X33070112Y-65341009D02*
X32736779Y-65341009D01*
X34260588Y-64912438D02*
X34165350Y-64864819D01*
X34165350Y-64864819D02*
X34022493Y-64864819D01*
X34022493Y-64864819D02*
X33879636Y-64912438D01*
X33879636Y-64912438D02*
X33784398Y-65007676D01*
X33784398Y-65007676D02*
X33736779Y-65102914D01*
X33736779Y-65102914D02*
X33689160Y-65293390D01*
X33689160Y-65293390D02*
X33689160Y-65436247D01*
X33689160Y-65436247D02*
X33736779Y-65626723D01*
X33736779Y-65626723D02*
X33784398Y-65721961D01*
X33784398Y-65721961D02*
X33879636Y-65817200D01*
X33879636Y-65817200D02*
X34022493Y-65864819D01*
X34022493Y-65864819D02*
X34117731Y-65864819D01*
X34117731Y-65864819D02*
X34260588Y-65817200D01*
X34260588Y-65817200D02*
X34308207Y-65769580D01*
X34308207Y-65769580D02*
X34308207Y-65436247D01*
X34308207Y-65436247D02*
X34117731Y-65436247D01*
X58662969Y-112169819D02*
X58186779Y-112169819D01*
X58186779Y-112169819D02*
X58186779Y-111169819D01*
X58996303Y-111646009D02*
X59329636Y-111646009D01*
X59472493Y-112169819D02*
X58996303Y-112169819D01*
X58996303Y-112169819D02*
X58996303Y-111169819D01*
X58996303Y-111169819D02*
X59472493Y-111169819D01*
X59901065Y-112169819D02*
X59901065Y-111169819D01*
X59901065Y-111169819D02*
X60139160Y-111169819D01*
X60139160Y-111169819D02*
X60282017Y-111217438D01*
X60282017Y-111217438D02*
X60377255Y-111312676D01*
X60377255Y-111312676D02*
X60424874Y-111407914D01*
X60424874Y-111407914D02*
X60472493Y-111598390D01*
X60472493Y-111598390D02*
X60472493Y-111741247D01*
X60472493Y-111741247D02*
X60424874Y-111931723D01*
X60424874Y-111931723D02*
X60377255Y-112026961D01*
X60377255Y-112026961D02*
X60282017Y-112122200D01*
X60282017Y-112122200D02*
X60139160Y-112169819D01*
X60139160Y-112169819D02*
X59901065Y-112169819D01*
X62091541Y-112122200D02*
X61996303Y-112169819D01*
X61996303Y-112169819D02*
X61805827Y-112169819D01*
X61805827Y-112169819D02*
X61710589Y-112122200D01*
X61710589Y-112122200D02*
X61662970Y-112074580D01*
X61662970Y-112074580D02*
X61615351Y-111979342D01*
X61615351Y-111979342D02*
X61615351Y-111693628D01*
X61615351Y-111693628D02*
X61662970Y-111598390D01*
X61662970Y-111598390D02*
X61710589Y-111550771D01*
X61710589Y-111550771D02*
X61805827Y-111503152D01*
X61805827Y-111503152D02*
X61996303Y-111503152D01*
X61996303Y-111503152D02*
X62091541Y-111550771D01*
X62520113Y-112169819D02*
X62520113Y-111169819D01*
X62948684Y-112169819D02*
X62948684Y-111646009D01*
X62948684Y-111646009D02*
X62901065Y-111550771D01*
X62901065Y-111550771D02*
X62805827Y-111503152D01*
X62805827Y-111503152D02*
X62662970Y-111503152D01*
X62662970Y-111503152D02*
X62567732Y-111550771D01*
X62567732Y-111550771D02*
X62520113Y-111598390D01*
X63853446Y-112169819D02*
X63853446Y-111646009D01*
X63853446Y-111646009D02*
X63805827Y-111550771D01*
X63805827Y-111550771D02*
X63710589Y-111503152D01*
X63710589Y-111503152D02*
X63520113Y-111503152D01*
X63520113Y-111503152D02*
X63424875Y-111550771D01*
X63853446Y-112122200D02*
X63758208Y-112169819D01*
X63758208Y-112169819D02*
X63520113Y-112169819D01*
X63520113Y-112169819D02*
X63424875Y-112122200D01*
X63424875Y-112122200D02*
X63377256Y-112026961D01*
X63377256Y-112026961D02*
X63377256Y-111931723D01*
X63377256Y-111931723D02*
X63424875Y-111836485D01*
X63424875Y-111836485D02*
X63520113Y-111788866D01*
X63520113Y-111788866D02*
X63758208Y-111788866D01*
X63758208Y-111788866D02*
X63853446Y-111741247D01*
X64329637Y-112169819D02*
X64329637Y-111503152D01*
X64329637Y-111693628D02*
X64377256Y-111598390D01*
X64377256Y-111598390D02*
X64424875Y-111550771D01*
X64424875Y-111550771D02*
X64520113Y-111503152D01*
X64520113Y-111503152D02*
X64615351Y-111503152D01*
X65377256Y-111503152D02*
X65377256Y-112312676D01*
X65377256Y-112312676D02*
X65329637Y-112407914D01*
X65329637Y-112407914D02*
X65282018Y-112455533D01*
X65282018Y-112455533D02*
X65186780Y-112503152D01*
X65186780Y-112503152D02*
X65043923Y-112503152D01*
X65043923Y-112503152D02*
X64948685Y-112455533D01*
X65377256Y-112122200D02*
X65282018Y-112169819D01*
X65282018Y-112169819D02*
X65091542Y-112169819D01*
X65091542Y-112169819D02*
X64996304Y-112122200D01*
X64996304Y-112122200D02*
X64948685Y-112074580D01*
X64948685Y-112074580D02*
X64901066Y-111979342D01*
X64901066Y-111979342D02*
X64901066Y-111693628D01*
X64901066Y-111693628D02*
X64948685Y-111598390D01*
X64948685Y-111598390D02*
X64996304Y-111550771D01*
X64996304Y-111550771D02*
X65091542Y-111503152D01*
X65091542Y-111503152D02*
X65282018Y-111503152D01*
X65282018Y-111503152D02*
X65377256Y-111550771D01*
X66234399Y-112122200D02*
X66139161Y-112169819D01*
X66139161Y-112169819D02*
X65948685Y-112169819D01*
X65948685Y-112169819D02*
X65853447Y-112122200D01*
X65853447Y-112122200D02*
X65805828Y-112026961D01*
X65805828Y-112026961D02*
X65805828Y-111646009D01*
X65805828Y-111646009D02*
X65853447Y-111550771D01*
X65853447Y-111550771D02*
X65948685Y-111503152D01*
X65948685Y-111503152D02*
X66139161Y-111503152D01*
X66139161Y-111503152D02*
X66234399Y-111550771D01*
X66234399Y-111550771D02*
X66282018Y-111646009D01*
X66282018Y-111646009D02*
X66282018Y-111741247D01*
X66282018Y-111741247D02*
X65805828Y-111836485D01*
X68277255Y-34919819D02*
X68467731Y-34919819D01*
X68467731Y-34919819D02*
X68562969Y-34967438D01*
X68562969Y-34967438D02*
X68658207Y-35062676D01*
X68658207Y-35062676D02*
X68705826Y-35253152D01*
X68705826Y-35253152D02*
X68705826Y-35586485D01*
X68705826Y-35586485D02*
X68658207Y-35776961D01*
X68658207Y-35776961D02*
X68562969Y-35872200D01*
X68562969Y-35872200D02*
X68467731Y-35919819D01*
X68467731Y-35919819D02*
X68277255Y-35919819D01*
X68277255Y-35919819D02*
X68182017Y-35872200D01*
X68182017Y-35872200D02*
X68086779Y-35776961D01*
X68086779Y-35776961D02*
X68039160Y-35586485D01*
X68039160Y-35586485D02*
X68039160Y-35253152D01*
X68039160Y-35253152D02*
X68086779Y-35062676D01*
X68086779Y-35062676D02*
X68182017Y-34967438D01*
X68182017Y-34967438D02*
X68277255Y-34919819D01*
X69610588Y-35919819D02*
X69134398Y-35919819D01*
X69134398Y-35919819D02*
X69134398Y-34919819D01*
X69943922Y-35396009D02*
X70277255Y-35396009D01*
X70420112Y-35919819D02*
X69943922Y-35919819D01*
X69943922Y-35919819D02*
X69943922Y-34919819D01*
X69943922Y-34919819D02*
X70420112Y-34919819D01*
X70848684Y-35919819D02*
X70848684Y-34919819D01*
X70848684Y-34919819D02*
X71086779Y-34919819D01*
X71086779Y-34919819D02*
X71229636Y-34967438D01*
X71229636Y-34967438D02*
X71324874Y-35062676D01*
X71324874Y-35062676D02*
X71372493Y-35157914D01*
X71372493Y-35157914D02*
X71420112Y-35348390D01*
X71420112Y-35348390D02*
X71420112Y-35491247D01*
X71420112Y-35491247D02*
X71372493Y-35681723D01*
X71372493Y-35681723D02*
X71324874Y-35776961D01*
X71324874Y-35776961D02*
X71229636Y-35872200D01*
X71229636Y-35872200D02*
X71086779Y-35919819D01*
X71086779Y-35919819D02*
X70848684Y-35919819D01*
X76458207Y-112969819D02*
X76124874Y-112493628D01*
X75886779Y-112969819D02*
X75886779Y-111969819D01*
X75886779Y-111969819D02*
X76267731Y-111969819D01*
X76267731Y-111969819D02*
X76362969Y-112017438D01*
X76362969Y-112017438D02*
X76410588Y-112065057D01*
X76410588Y-112065057D02*
X76458207Y-112160295D01*
X76458207Y-112160295D02*
X76458207Y-112303152D01*
X76458207Y-112303152D02*
X76410588Y-112398390D01*
X76410588Y-112398390D02*
X76362969Y-112446009D01*
X76362969Y-112446009D02*
X76267731Y-112493628D01*
X76267731Y-112493628D02*
X75886779Y-112493628D01*
X76791541Y-111969819D02*
X77458207Y-112969819D01*
X77458207Y-111969819D02*
X76791541Y-112969819D01*
X75993922Y-101469819D02*
X76565350Y-101469819D01*
X76279636Y-102469819D02*
X76279636Y-101469819D01*
X76803446Y-101469819D02*
X77470112Y-102469819D01*
X77470112Y-101469819D02*
X76803446Y-102469819D01*
X47680180Y-32493922D02*
X46680180Y-32827255D01*
X46680180Y-32827255D02*
X47680180Y-33160588D01*
X46680180Y-33493922D02*
X47346847Y-33493922D01*
X47680180Y-33493922D02*
X47632561Y-33446303D01*
X47632561Y-33446303D02*
X47584942Y-33493922D01*
X47584942Y-33493922D02*
X47632561Y-33541541D01*
X47632561Y-33541541D02*
X47680180Y-33493922D01*
X47680180Y-33493922D02*
X47584942Y-33493922D01*
X46680180Y-33970112D02*
X47680180Y-33970112D01*
X47299228Y-33970112D02*
X47346847Y-34065350D01*
X47346847Y-34065350D02*
X47346847Y-34255826D01*
X47346847Y-34255826D02*
X47299228Y-34351064D01*
X47299228Y-34351064D02*
X47251609Y-34398683D01*
X47251609Y-34398683D02*
X47156371Y-34446302D01*
X47156371Y-34446302D02*
X46870657Y-34446302D01*
X46870657Y-34446302D02*
X46775419Y-34398683D01*
X46775419Y-34398683D02*
X46727800Y-34351064D01*
X46727800Y-34351064D02*
X46680180Y-34255826D01*
X46680180Y-34255826D02*
X46680180Y-34065350D01*
X46680180Y-34065350D02*
X46727800Y-33970112D01*
X51083333Y-48904819D02*
X50750000Y-48428628D01*
X50511905Y-48904819D02*
X50511905Y-47904819D01*
X50511905Y-47904819D02*
X50892857Y-47904819D01*
X50892857Y-47904819D02*
X50988095Y-47952438D01*
X50988095Y-47952438D02*
X51035714Y-48000057D01*
X51035714Y-48000057D02*
X51083333Y-48095295D01*
X51083333Y-48095295D02*
X51083333Y-48238152D01*
X51083333Y-48238152D02*
X51035714Y-48333390D01*
X51035714Y-48333390D02*
X50988095Y-48381009D01*
X50988095Y-48381009D02*
X50892857Y-48428628D01*
X50892857Y-48428628D02*
X50511905Y-48428628D01*
X51416667Y-47904819D02*
X52035714Y-47904819D01*
X52035714Y-47904819D02*
X51702381Y-48285771D01*
X51702381Y-48285771D02*
X51845238Y-48285771D01*
X51845238Y-48285771D02*
X51940476Y-48333390D01*
X51940476Y-48333390D02*
X51988095Y-48381009D01*
X51988095Y-48381009D02*
X52035714Y-48476247D01*
X52035714Y-48476247D02*
X52035714Y-48714342D01*
X52035714Y-48714342D02*
X51988095Y-48809580D01*
X51988095Y-48809580D02*
X51940476Y-48857200D01*
X51940476Y-48857200D02*
X51845238Y-48904819D01*
X51845238Y-48904819D02*
X51559524Y-48904819D01*
X51559524Y-48904819D02*
X51464286Y-48857200D01*
X51464286Y-48857200D02*
X51416667Y-48809580D01*
X73318333Y-49849580D02*
X73270714Y-49897200D01*
X73270714Y-49897200D02*
X73127857Y-49944819D01*
X73127857Y-49944819D02*
X73032619Y-49944819D01*
X73032619Y-49944819D02*
X72889762Y-49897200D01*
X72889762Y-49897200D02*
X72794524Y-49801961D01*
X72794524Y-49801961D02*
X72746905Y-49706723D01*
X72746905Y-49706723D02*
X72699286Y-49516247D01*
X72699286Y-49516247D02*
X72699286Y-49373390D01*
X72699286Y-49373390D02*
X72746905Y-49182914D01*
X72746905Y-49182914D02*
X72794524Y-49087676D01*
X72794524Y-49087676D02*
X72889762Y-48992438D01*
X72889762Y-48992438D02*
X73032619Y-48944819D01*
X73032619Y-48944819D02*
X73127857Y-48944819D01*
X73127857Y-48944819D02*
X73270714Y-48992438D01*
X73270714Y-48992438D02*
X73318333Y-49040057D01*
X73651667Y-48944819D02*
X74318333Y-48944819D01*
X74318333Y-48944819D02*
X73889762Y-49944819D01*
X77654819Y-107809523D02*
X78369104Y-107809523D01*
X78369104Y-107809523D02*
X78511961Y-107857142D01*
X78511961Y-107857142D02*
X78607200Y-107952380D01*
X78607200Y-107952380D02*
X78654819Y-108095237D01*
X78654819Y-108095237D02*
X78654819Y-108190475D01*
X78654819Y-106809523D02*
X78654819Y-107380951D01*
X78654819Y-107095237D02*
X77654819Y-107095237D01*
X77654819Y-107095237D02*
X77797676Y-107190475D01*
X77797676Y-107190475D02*
X77892914Y-107285713D01*
X77892914Y-107285713D02*
X77940533Y-107380951D01*
X77654819Y-106190475D02*
X77654819Y-106095237D01*
X77654819Y-106095237D02*
X77702438Y-105999999D01*
X77702438Y-105999999D02*
X77750057Y-105952380D01*
X77750057Y-105952380D02*
X77845295Y-105904761D01*
X77845295Y-105904761D02*
X78035771Y-105857142D01*
X78035771Y-105857142D02*
X78273866Y-105857142D01*
X78273866Y-105857142D02*
X78464342Y-105904761D01*
X78464342Y-105904761D02*
X78559580Y-105952380D01*
X78559580Y-105952380D02*
X78607200Y-105999999D01*
X78607200Y-105999999D02*
X78654819Y-106095237D01*
X78654819Y-106095237D02*
X78654819Y-106190475D01*
X78654819Y-106190475D02*
X78607200Y-106285713D01*
X78607200Y-106285713D02*
X78559580Y-106333332D01*
X78559580Y-106333332D02*
X78464342Y-106380951D01*
X78464342Y-106380951D02*
X78273866Y-106428570D01*
X78273866Y-106428570D02*
X78035771Y-106428570D01*
X78035771Y-106428570D02*
X77845295Y-106380951D01*
X77845295Y-106380951D02*
X77750057Y-106333332D01*
X77750057Y-106333332D02*
X77702438Y-106285713D01*
X77702438Y-106285713D02*
X77654819Y-106190475D01*
X77654819Y-118309523D02*
X78369104Y-118309523D01*
X78369104Y-118309523D02*
X78511961Y-118357142D01*
X78511961Y-118357142D02*
X78607200Y-118452380D01*
X78607200Y-118452380D02*
X78654819Y-118595237D01*
X78654819Y-118595237D02*
X78654819Y-118690475D01*
X78654819Y-117309523D02*
X78654819Y-117880951D01*
X78654819Y-117595237D02*
X77654819Y-117595237D01*
X77654819Y-117595237D02*
X77797676Y-117690475D01*
X77797676Y-117690475D02*
X77892914Y-117785713D01*
X77892914Y-117785713D02*
X77940533Y-117880951D01*
X77654819Y-116976189D02*
X77654819Y-116357142D01*
X77654819Y-116357142D02*
X78035771Y-116690475D01*
X78035771Y-116690475D02*
X78035771Y-116547618D01*
X78035771Y-116547618D02*
X78083390Y-116452380D01*
X78083390Y-116452380D02*
X78131009Y-116404761D01*
X78131009Y-116404761D02*
X78226247Y-116357142D01*
X78226247Y-116357142D02*
X78464342Y-116357142D01*
X78464342Y-116357142D02*
X78559580Y-116404761D01*
X78559580Y-116404761D02*
X78607200Y-116452380D01*
X78607200Y-116452380D02*
X78654819Y-116547618D01*
X78654819Y-116547618D02*
X78654819Y-116833332D01*
X78654819Y-116833332D02*
X78607200Y-116928570D01*
X78607200Y-116928570D02*
X78559580Y-116976189D01*
X38409580Y-49316666D02*
X38457200Y-49364285D01*
X38457200Y-49364285D02*
X38504819Y-49507142D01*
X38504819Y-49507142D02*
X38504819Y-49602380D01*
X38504819Y-49602380D02*
X38457200Y-49745237D01*
X38457200Y-49745237D02*
X38361961Y-49840475D01*
X38361961Y-49840475D02*
X38266723Y-49888094D01*
X38266723Y-49888094D02*
X38076247Y-49935713D01*
X38076247Y-49935713D02*
X37933390Y-49935713D01*
X37933390Y-49935713D02*
X37742914Y-49888094D01*
X37742914Y-49888094D02*
X37647676Y-49840475D01*
X37647676Y-49840475D02*
X37552438Y-49745237D01*
X37552438Y-49745237D02*
X37504819Y-49602380D01*
X37504819Y-49602380D02*
X37504819Y-49507142D01*
X37504819Y-49507142D02*
X37552438Y-49364285D01*
X37552438Y-49364285D02*
X37600057Y-49316666D01*
X37504819Y-48459523D02*
X37504819Y-48649999D01*
X37504819Y-48649999D02*
X37552438Y-48745237D01*
X37552438Y-48745237D02*
X37600057Y-48792856D01*
X37600057Y-48792856D02*
X37742914Y-48888094D01*
X37742914Y-48888094D02*
X37933390Y-48935713D01*
X37933390Y-48935713D02*
X38314342Y-48935713D01*
X38314342Y-48935713D02*
X38409580Y-48888094D01*
X38409580Y-48888094D02*
X38457200Y-48840475D01*
X38457200Y-48840475D02*
X38504819Y-48745237D01*
X38504819Y-48745237D02*
X38504819Y-48554761D01*
X38504819Y-48554761D02*
X38457200Y-48459523D01*
X38457200Y-48459523D02*
X38409580Y-48411904D01*
X38409580Y-48411904D02*
X38314342Y-48364285D01*
X38314342Y-48364285D02*
X38076247Y-48364285D01*
X38076247Y-48364285D02*
X37981009Y-48411904D01*
X37981009Y-48411904D02*
X37933390Y-48459523D01*
X37933390Y-48459523D02*
X37885771Y-48554761D01*
X37885771Y-48554761D02*
X37885771Y-48745237D01*
X37885771Y-48745237D02*
X37933390Y-48840475D01*
X37933390Y-48840475D02*
X37981009Y-48888094D01*
X37981009Y-48888094D02*
X38076247Y-48935713D01*
X48903333Y-36114580D02*
X48855714Y-36162200D01*
X48855714Y-36162200D02*
X48712857Y-36209819D01*
X48712857Y-36209819D02*
X48617619Y-36209819D01*
X48617619Y-36209819D02*
X48474762Y-36162200D01*
X48474762Y-36162200D02*
X48379524Y-36066961D01*
X48379524Y-36066961D02*
X48331905Y-35971723D01*
X48331905Y-35971723D02*
X48284286Y-35781247D01*
X48284286Y-35781247D02*
X48284286Y-35638390D01*
X48284286Y-35638390D02*
X48331905Y-35447914D01*
X48331905Y-35447914D02*
X48379524Y-35352676D01*
X48379524Y-35352676D02*
X48474762Y-35257438D01*
X48474762Y-35257438D02*
X48617619Y-35209819D01*
X48617619Y-35209819D02*
X48712857Y-35209819D01*
X48712857Y-35209819D02*
X48855714Y-35257438D01*
X48855714Y-35257438D02*
X48903333Y-35305057D01*
X49760476Y-35543152D02*
X49760476Y-36209819D01*
X49522381Y-35162200D02*
X49284286Y-35876485D01*
X49284286Y-35876485D02*
X49903333Y-35876485D01*
X60769819Y-72619166D02*
X60293628Y-72952499D01*
X60769819Y-73190594D02*
X59769819Y-73190594D01*
X59769819Y-73190594D02*
X59769819Y-72809642D01*
X59769819Y-72809642D02*
X59817438Y-72714404D01*
X59817438Y-72714404D02*
X59865057Y-72666785D01*
X59865057Y-72666785D02*
X59960295Y-72619166D01*
X59960295Y-72619166D02*
X60103152Y-72619166D01*
X60103152Y-72619166D02*
X60198390Y-72666785D01*
X60198390Y-72666785D02*
X60246009Y-72714404D01*
X60246009Y-72714404D02*
X60293628Y-72809642D01*
X60293628Y-72809642D02*
X60293628Y-73190594D01*
X59769819Y-72285832D02*
X59769819Y-71619166D01*
X59769819Y-71619166D02*
X60769819Y-72047737D01*
X35909580Y-95727857D02*
X35957200Y-95775476D01*
X35957200Y-95775476D02*
X36004819Y-95918333D01*
X36004819Y-95918333D02*
X36004819Y-96013571D01*
X36004819Y-96013571D02*
X35957200Y-96156428D01*
X35957200Y-96156428D02*
X35861961Y-96251666D01*
X35861961Y-96251666D02*
X35766723Y-96299285D01*
X35766723Y-96299285D02*
X35576247Y-96346904D01*
X35576247Y-96346904D02*
X35433390Y-96346904D01*
X35433390Y-96346904D02*
X35242914Y-96299285D01*
X35242914Y-96299285D02*
X35147676Y-96251666D01*
X35147676Y-96251666D02*
X35052438Y-96156428D01*
X35052438Y-96156428D02*
X35004819Y-96013571D01*
X35004819Y-96013571D02*
X35004819Y-95918333D01*
X35004819Y-95918333D02*
X35052438Y-95775476D01*
X35052438Y-95775476D02*
X35100057Y-95727857D01*
X36004819Y-94775476D02*
X36004819Y-95346904D01*
X36004819Y-95061190D02*
X35004819Y-95061190D01*
X35004819Y-95061190D02*
X35147676Y-95156428D01*
X35147676Y-95156428D02*
X35242914Y-95251666D01*
X35242914Y-95251666D02*
X35290533Y-95346904D01*
X35004819Y-94442142D02*
X35004819Y-93823095D01*
X35004819Y-93823095D02*
X35385771Y-94156428D01*
X35385771Y-94156428D02*
X35385771Y-94013571D01*
X35385771Y-94013571D02*
X35433390Y-93918333D01*
X35433390Y-93918333D02*
X35481009Y-93870714D01*
X35481009Y-93870714D02*
X35576247Y-93823095D01*
X35576247Y-93823095D02*
X35814342Y-93823095D01*
X35814342Y-93823095D02*
X35909580Y-93870714D01*
X35909580Y-93870714D02*
X35957200Y-93918333D01*
X35957200Y-93918333D02*
X36004819Y-94013571D01*
X36004819Y-94013571D02*
X36004819Y-94299285D01*
X36004819Y-94299285D02*
X35957200Y-94394523D01*
X35957200Y-94394523D02*
X35909580Y-94442142D01*
X40057142Y-90549819D02*
X39723809Y-90073628D01*
X39485714Y-90549819D02*
X39485714Y-89549819D01*
X39485714Y-89549819D02*
X39866666Y-89549819D01*
X39866666Y-89549819D02*
X39961904Y-89597438D01*
X39961904Y-89597438D02*
X40009523Y-89645057D01*
X40009523Y-89645057D02*
X40057142Y-89740295D01*
X40057142Y-89740295D02*
X40057142Y-89883152D01*
X40057142Y-89883152D02*
X40009523Y-89978390D01*
X40009523Y-89978390D02*
X39961904Y-90026009D01*
X39961904Y-90026009D02*
X39866666Y-90073628D01*
X39866666Y-90073628D02*
X39485714Y-90073628D01*
X41009523Y-90549819D02*
X40438095Y-90549819D01*
X40723809Y-90549819D02*
X40723809Y-89549819D01*
X40723809Y-89549819D02*
X40628571Y-89692676D01*
X40628571Y-89692676D02*
X40533333Y-89787914D01*
X40533333Y-89787914D02*
X40438095Y-89835533D01*
X41961904Y-90549819D02*
X41390476Y-90549819D01*
X41676190Y-90549819D02*
X41676190Y-89549819D01*
X41676190Y-89549819D02*
X41580952Y-89692676D01*
X41580952Y-89692676D02*
X41485714Y-89787914D01*
X41485714Y-89787914D02*
X41390476Y-89835533D01*
X37922080Y-69091666D02*
X37969700Y-69139285D01*
X37969700Y-69139285D02*
X38017319Y-69282142D01*
X38017319Y-69282142D02*
X38017319Y-69377380D01*
X38017319Y-69377380D02*
X37969700Y-69520237D01*
X37969700Y-69520237D02*
X37874461Y-69615475D01*
X37874461Y-69615475D02*
X37779223Y-69663094D01*
X37779223Y-69663094D02*
X37588747Y-69710713D01*
X37588747Y-69710713D02*
X37445890Y-69710713D01*
X37445890Y-69710713D02*
X37255414Y-69663094D01*
X37255414Y-69663094D02*
X37160176Y-69615475D01*
X37160176Y-69615475D02*
X37064938Y-69520237D01*
X37064938Y-69520237D02*
X37017319Y-69377380D01*
X37017319Y-69377380D02*
X37017319Y-69282142D01*
X37017319Y-69282142D02*
X37064938Y-69139285D01*
X37064938Y-69139285D02*
X37112557Y-69091666D01*
X38017319Y-68615475D02*
X38017319Y-68424999D01*
X38017319Y-68424999D02*
X37969700Y-68329761D01*
X37969700Y-68329761D02*
X37922080Y-68282142D01*
X37922080Y-68282142D02*
X37779223Y-68186904D01*
X37779223Y-68186904D02*
X37588747Y-68139285D01*
X37588747Y-68139285D02*
X37207795Y-68139285D01*
X37207795Y-68139285D02*
X37112557Y-68186904D01*
X37112557Y-68186904D02*
X37064938Y-68234523D01*
X37064938Y-68234523D02*
X37017319Y-68329761D01*
X37017319Y-68329761D02*
X37017319Y-68520237D01*
X37017319Y-68520237D02*
X37064938Y-68615475D01*
X37064938Y-68615475D02*
X37112557Y-68663094D01*
X37112557Y-68663094D02*
X37207795Y-68710713D01*
X37207795Y-68710713D02*
X37445890Y-68710713D01*
X37445890Y-68710713D02*
X37541128Y-68663094D01*
X37541128Y-68663094D02*
X37588747Y-68615475D01*
X37588747Y-68615475D02*
X37636366Y-68520237D01*
X37636366Y-68520237D02*
X37636366Y-68329761D01*
X37636366Y-68329761D02*
X37588747Y-68234523D01*
X37588747Y-68234523D02*
X37541128Y-68186904D01*
X37541128Y-68186904D02*
X37445890Y-68139285D01*
X47619819Y-87871666D02*
X47143628Y-88204999D01*
X47619819Y-88443094D02*
X46619819Y-88443094D01*
X46619819Y-88443094D02*
X46619819Y-88062142D01*
X46619819Y-88062142D02*
X46667438Y-87966904D01*
X46667438Y-87966904D02*
X46715057Y-87919285D01*
X46715057Y-87919285D02*
X46810295Y-87871666D01*
X46810295Y-87871666D02*
X46953152Y-87871666D01*
X46953152Y-87871666D02*
X47048390Y-87919285D01*
X47048390Y-87919285D02*
X47096009Y-87966904D01*
X47096009Y-87966904D02*
X47143628Y-88062142D01*
X47143628Y-88062142D02*
X47143628Y-88443094D01*
X47619819Y-87395475D02*
X47619819Y-87204999D01*
X47619819Y-87204999D02*
X47572200Y-87109761D01*
X47572200Y-87109761D02*
X47524580Y-87062142D01*
X47524580Y-87062142D02*
X47381723Y-86966904D01*
X47381723Y-86966904D02*
X47191247Y-86919285D01*
X47191247Y-86919285D02*
X46810295Y-86919285D01*
X46810295Y-86919285D02*
X46715057Y-86966904D01*
X46715057Y-86966904D02*
X46667438Y-87014523D01*
X46667438Y-87014523D02*
X46619819Y-87109761D01*
X46619819Y-87109761D02*
X46619819Y-87300237D01*
X46619819Y-87300237D02*
X46667438Y-87395475D01*
X46667438Y-87395475D02*
X46715057Y-87443094D01*
X46715057Y-87443094D02*
X46810295Y-87490713D01*
X46810295Y-87490713D02*
X47048390Y-87490713D01*
X47048390Y-87490713D02*
X47143628Y-87443094D01*
X47143628Y-87443094D02*
X47191247Y-87395475D01*
X47191247Y-87395475D02*
X47238866Y-87300237D01*
X47238866Y-87300237D02*
X47238866Y-87109761D01*
X47238866Y-87109761D02*
X47191247Y-87014523D01*
X47191247Y-87014523D02*
X47143628Y-86966904D01*
X47143628Y-86966904D02*
X47048390Y-86919285D01*
X28547319Y-82028333D02*
X29261604Y-82028333D01*
X29261604Y-82028333D02*
X29404461Y-82075952D01*
X29404461Y-82075952D02*
X29499700Y-82171190D01*
X29499700Y-82171190D02*
X29547319Y-82314047D01*
X29547319Y-82314047D02*
X29547319Y-82409285D01*
X28975890Y-81409285D02*
X28928271Y-81504523D01*
X28928271Y-81504523D02*
X28880652Y-81552142D01*
X28880652Y-81552142D02*
X28785414Y-81599761D01*
X28785414Y-81599761D02*
X28737795Y-81599761D01*
X28737795Y-81599761D02*
X28642557Y-81552142D01*
X28642557Y-81552142D02*
X28594938Y-81504523D01*
X28594938Y-81504523D02*
X28547319Y-81409285D01*
X28547319Y-81409285D02*
X28547319Y-81218809D01*
X28547319Y-81218809D02*
X28594938Y-81123571D01*
X28594938Y-81123571D02*
X28642557Y-81075952D01*
X28642557Y-81075952D02*
X28737795Y-81028333D01*
X28737795Y-81028333D02*
X28785414Y-81028333D01*
X28785414Y-81028333D02*
X28880652Y-81075952D01*
X28880652Y-81075952D02*
X28928271Y-81123571D01*
X28928271Y-81123571D02*
X28975890Y-81218809D01*
X28975890Y-81218809D02*
X28975890Y-81409285D01*
X28975890Y-81409285D02*
X29023509Y-81504523D01*
X29023509Y-81504523D02*
X29071128Y-81552142D01*
X29071128Y-81552142D02*
X29166366Y-81599761D01*
X29166366Y-81599761D02*
X29356842Y-81599761D01*
X29356842Y-81599761D02*
X29452080Y-81552142D01*
X29452080Y-81552142D02*
X29499700Y-81504523D01*
X29499700Y-81504523D02*
X29547319Y-81409285D01*
X29547319Y-81409285D02*
X29547319Y-81218809D01*
X29547319Y-81218809D02*
X29499700Y-81123571D01*
X29499700Y-81123571D02*
X29452080Y-81075952D01*
X29452080Y-81075952D02*
X29356842Y-81028333D01*
X29356842Y-81028333D02*
X29166366Y-81028333D01*
X29166366Y-81028333D02*
X29071128Y-81075952D01*
X29071128Y-81075952D02*
X29023509Y-81123571D01*
X29023509Y-81123571D02*
X28975890Y-81218809D01*
X49605833Y-65774819D02*
X49272500Y-65298628D01*
X49034405Y-65774819D02*
X49034405Y-64774819D01*
X49034405Y-64774819D02*
X49415357Y-64774819D01*
X49415357Y-64774819D02*
X49510595Y-64822438D01*
X49510595Y-64822438D02*
X49558214Y-64870057D01*
X49558214Y-64870057D02*
X49605833Y-64965295D01*
X49605833Y-64965295D02*
X49605833Y-65108152D01*
X49605833Y-65108152D02*
X49558214Y-65203390D01*
X49558214Y-65203390D02*
X49510595Y-65251009D01*
X49510595Y-65251009D02*
X49415357Y-65298628D01*
X49415357Y-65298628D02*
X49034405Y-65298628D01*
X50462976Y-64774819D02*
X50272500Y-64774819D01*
X50272500Y-64774819D02*
X50177262Y-64822438D01*
X50177262Y-64822438D02*
X50129643Y-64870057D01*
X50129643Y-64870057D02*
X50034405Y-65012914D01*
X50034405Y-65012914D02*
X49986786Y-65203390D01*
X49986786Y-65203390D02*
X49986786Y-65584342D01*
X49986786Y-65584342D02*
X50034405Y-65679580D01*
X50034405Y-65679580D02*
X50082024Y-65727200D01*
X50082024Y-65727200D02*
X50177262Y-65774819D01*
X50177262Y-65774819D02*
X50367738Y-65774819D01*
X50367738Y-65774819D02*
X50462976Y-65727200D01*
X50462976Y-65727200D02*
X50510595Y-65679580D01*
X50510595Y-65679580D02*
X50558214Y-65584342D01*
X50558214Y-65584342D02*
X50558214Y-65346247D01*
X50558214Y-65346247D02*
X50510595Y-65251009D01*
X50510595Y-65251009D02*
X50462976Y-65203390D01*
X50462976Y-65203390D02*
X50367738Y-65155771D01*
X50367738Y-65155771D02*
X50177262Y-65155771D01*
X50177262Y-65155771D02*
X50082024Y-65203390D01*
X50082024Y-65203390D02*
X50034405Y-65251009D01*
X50034405Y-65251009D02*
X49986786Y-65346247D01*
X48602142Y-88609580D02*
X48554523Y-88657200D01*
X48554523Y-88657200D02*
X48411666Y-88704819D01*
X48411666Y-88704819D02*
X48316428Y-88704819D01*
X48316428Y-88704819D02*
X48173571Y-88657200D01*
X48173571Y-88657200D02*
X48078333Y-88561961D01*
X48078333Y-88561961D02*
X48030714Y-88466723D01*
X48030714Y-88466723D02*
X47983095Y-88276247D01*
X47983095Y-88276247D02*
X47983095Y-88133390D01*
X47983095Y-88133390D02*
X48030714Y-87942914D01*
X48030714Y-87942914D02*
X48078333Y-87847676D01*
X48078333Y-87847676D02*
X48173571Y-87752438D01*
X48173571Y-87752438D02*
X48316428Y-87704819D01*
X48316428Y-87704819D02*
X48411666Y-87704819D01*
X48411666Y-87704819D02*
X48554523Y-87752438D01*
X48554523Y-87752438D02*
X48602142Y-87800057D01*
X49554523Y-88704819D02*
X48983095Y-88704819D01*
X49268809Y-88704819D02*
X49268809Y-87704819D01*
X49268809Y-87704819D02*
X49173571Y-87847676D01*
X49173571Y-87847676D02*
X49078333Y-87942914D01*
X49078333Y-87942914D02*
X48983095Y-87990533D01*
X50506904Y-88704819D02*
X49935476Y-88704819D01*
X50221190Y-88704819D02*
X50221190Y-87704819D01*
X50221190Y-87704819D02*
X50125952Y-87847676D01*
X50125952Y-87847676D02*
X50030714Y-87942914D01*
X50030714Y-87942914D02*
X49935476Y-87990533D01*
X47639819Y-82911666D02*
X47163628Y-83244999D01*
X47639819Y-83483094D02*
X46639819Y-83483094D01*
X46639819Y-83483094D02*
X46639819Y-83102142D01*
X46639819Y-83102142D02*
X46687438Y-83006904D01*
X46687438Y-83006904D02*
X46735057Y-82959285D01*
X46735057Y-82959285D02*
X46830295Y-82911666D01*
X46830295Y-82911666D02*
X46973152Y-82911666D01*
X46973152Y-82911666D02*
X47068390Y-82959285D01*
X47068390Y-82959285D02*
X47116009Y-83006904D01*
X47116009Y-83006904D02*
X47163628Y-83102142D01*
X47163628Y-83102142D02*
X47163628Y-83483094D01*
X47068390Y-82340237D02*
X47020771Y-82435475D01*
X47020771Y-82435475D02*
X46973152Y-82483094D01*
X46973152Y-82483094D02*
X46877914Y-82530713D01*
X46877914Y-82530713D02*
X46830295Y-82530713D01*
X46830295Y-82530713D02*
X46735057Y-82483094D01*
X46735057Y-82483094D02*
X46687438Y-82435475D01*
X46687438Y-82435475D02*
X46639819Y-82340237D01*
X46639819Y-82340237D02*
X46639819Y-82149761D01*
X46639819Y-82149761D02*
X46687438Y-82054523D01*
X46687438Y-82054523D02*
X46735057Y-82006904D01*
X46735057Y-82006904D02*
X46830295Y-81959285D01*
X46830295Y-81959285D02*
X46877914Y-81959285D01*
X46877914Y-81959285D02*
X46973152Y-82006904D01*
X46973152Y-82006904D02*
X47020771Y-82054523D01*
X47020771Y-82054523D02*
X47068390Y-82149761D01*
X47068390Y-82149761D02*
X47068390Y-82340237D01*
X47068390Y-82340237D02*
X47116009Y-82435475D01*
X47116009Y-82435475D02*
X47163628Y-82483094D01*
X47163628Y-82483094D02*
X47258866Y-82530713D01*
X47258866Y-82530713D02*
X47449342Y-82530713D01*
X47449342Y-82530713D02*
X47544580Y-82483094D01*
X47544580Y-82483094D02*
X47592200Y-82435475D01*
X47592200Y-82435475D02*
X47639819Y-82340237D01*
X47639819Y-82340237D02*
X47639819Y-82149761D01*
X47639819Y-82149761D02*
X47592200Y-82054523D01*
X47592200Y-82054523D02*
X47544580Y-82006904D01*
X47544580Y-82006904D02*
X47449342Y-81959285D01*
X47449342Y-81959285D02*
X47258866Y-81959285D01*
X47258866Y-81959285D02*
X47163628Y-82006904D01*
X47163628Y-82006904D02*
X47116009Y-82054523D01*
X47116009Y-82054523D02*
X47068390Y-82149761D01*
X53433095Y-49294819D02*
X53433095Y-50104342D01*
X53433095Y-50104342D02*
X53480714Y-50199580D01*
X53480714Y-50199580D02*
X53528333Y-50247200D01*
X53528333Y-50247200D02*
X53623571Y-50294819D01*
X53623571Y-50294819D02*
X53814047Y-50294819D01*
X53814047Y-50294819D02*
X53909285Y-50247200D01*
X53909285Y-50247200D02*
X53956904Y-50199580D01*
X53956904Y-50199580D02*
X54004523Y-50104342D01*
X54004523Y-50104342D02*
X54004523Y-49294819D01*
X55004523Y-50294819D02*
X54433095Y-50294819D01*
X54718809Y-50294819D02*
X54718809Y-49294819D01*
X54718809Y-49294819D02*
X54623571Y-49437676D01*
X54623571Y-49437676D02*
X54528333Y-49532914D01*
X54528333Y-49532914D02*
X54433095Y-49580533D01*
X37682080Y-82472857D02*
X37729700Y-82520476D01*
X37729700Y-82520476D02*
X37777319Y-82663333D01*
X37777319Y-82663333D02*
X37777319Y-82758571D01*
X37777319Y-82758571D02*
X37729700Y-82901428D01*
X37729700Y-82901428D02*
X37634461Y-82996666D01*
X37634461Y-82996666D02*
X37539223Y-83044285D01*
X37539223Y-83044285D02*
X37348747Y-83091904D01*
X37348747Y-83091904D02*
X37205890Y-83091904D01*
X37205890Y-83091904D02*
X37015414Y-83044285D01*
X37015414Y-83044285D02*
X36920176Y-82996666D01*
X36920176Y-82996666D02*
X36824938Y-82901428D01*
X36824938Y-82901428D02*
X36777319Y-82758571D01*
X36777319Y-82758571D02*
X36777319Y-82663333D01*
X36777319Y-82663333D02*
X36824938Y-82520476D01*
X36824938Y-82520476D02*
X36872557Y-82472857D01*
X37777319Y-81520476D02*
X37777319Y-82091904D01*
X37777319Y-81806190D02*
X36777319Y-81806190D01*
X36777319Y-81806190D02*
X36920176Y-81901428D01*
X36920176Y-81901428D02*
X37015414Y-81996666D01*
X37015414Y-81996666D02*
X37063033Y-82091904D01*
X36777319Y-80901428D02*
X36777319Y-80806190D01*
X36777319Y-80806190D02*
X36824938Y-80710952D01*
X36824938Y-80710952D02*
X36872557Y-80663333D01*
X36872557Y-80663333D02*
X36967795Y-80615714D01*
X36967795Y-80615714D02*
X37158271Y-80568095D01*
X37158271Y-80568095D02*
X37396366Y-80568095D01*
X37396366Y-80568095D02*
X37586842Y-80615714D01*
X37586842Y-80615714D02*
X37682080Y-80663333D01*
X37682080Y-80663333D02*
X37729700Y-80710952D01*
X37729700Y-80710952D02*
X37777319Y-80806190D01*
X37777319Y-80806190D02*
X37777319Y-80901428D01*
X37777319Y-80901428D02*
X37729700Y-80996666D01*
X37729700Y-80996666D02*
X37682080Y-81044285D01*
X37682080Y-81044285D02*
X37586842Y-81091904D01*
X37586842Y-81091904D02*
X37396366Y-81139523D01*
X37396366Y-81139523D02*
X37158271Y-81139523D01*
X37158271Y-81139523D02*
X36967795Y-81091904D01*
X36967795Y-81091904D02*
X36872557Y-81044285D01*
X36872557Y-81044285D02*
X36824938Y-80996666D01*
X36824938Y-80996666D02*
X36777319Y-80901428D01*
X55407142Y-106209580D02*
X55359523Y-106257200D01*
X55359523Y-106257200D02*
X55216666Y-106304819D01*
X55216666Y-106304819D02*
X55121428Y-106304819D01*
X55121428Y-106304819D02*
X54978571Y-106257200D01*
X54978571Y-106257200D02*
X54883333Y-106161961D01*
X54883333Y-106161961D02*
X54835714Y-106066723D01*
X54835714Y-106066723D02*
X54788095Y-105876247D01*
X54788095Y-105876247D02*
X54788095Y-105733390D01*
X54788095Y-105733390D02*
X54835714Y-105542914D01*
X54835714Y-105542914D02*
X54883333Y-105447676D01*
X54883333Y-105447676D02*
X54978571Y-105352438D01*
X54978571Y-105352438D02*
X55121428Y-105304819D01*
X55121428Y-105304819D02*
X55216666Y-105304819D01*
X55216666Y-105304819D02*
X55359523Y-105352438D01*
X55359523Y-105352438D02*
X55407142Y-105400057D01*
X56359523Y-106304819D02*
X55788095Y-106304819D01*
X56073809Y-106304819D02*
X56073809Y-105304819D01*
X56073809Y-105304819D02*
X55978571Y-105447676D01*
X55978571Y-105447676D02*
X55883333Y-105542914D01*
X55883333Y-105542914D02*
X55788095Y-105590533D01*
X57216666Y-105304819D02*
X57026190Y-105304819D01*
X57026190Y-105304819D02*
X56930952Y-105352438D01*
X56930952Y-105352438D02*
X56883333Y-105400057D01*
X56883333Y-105400057D02*
X56788095Y-105542914D01*
X56788095Y-105542914D02*
X56740476Y-105733390D01*
X56740476Y-105733390D02*
X56740476Y-106114342D01*
X56740476Y-106114342D02*
X56788095Y-106209580D01*
X56788095Y-106209580D02*
X56835714Y-106257200D01*
X56835714Y-106257200D02*
X56930952Y-106304819D01*
X56930952Y-106304819D02*
X57121428Y-106304819D01*
X57121428Y-106304819D02*
X57216666Y-106257200D01*
X57216666Y-106257200D02*
X57264285Y-106209580D01*
X57264285Y-106209580D02*
X57311904Y-106114342D01*
X57311904Y-106114342D02*
X57311904Y-105876247D01*
X57311904Y-105876247D02*
X57264285Y-105781009D01*
X57264285Y-105781009D02*
X57216666Y-105733390D01*
X57216666Y-105733390D02*
X57121428Y-105685771D01*
X57121428Y-105685771D02*
X56930952Y-105685771D01*
X56930952Y-105685771D02*
X56835714Y-105733390D01*
X56835714Y-105733390D02*
X56788095Y-105781009D01*
X56788095Y-105781009D02*
X56740476Y-105876247D01*
X57754819Y-43288094D02*
X56754819Y-43288094D01*
X56754819Y-43288094D02*
X56754819Y-43049999D01*
X56754819Y-43049999D02*
X56802438Y-42907142D01*
X56802438Y-42907142D02*
X56897676Y-42811904D01*
X56897676Y-42811904D02*
X56992914Y-42764285D01*
X56992914Y-42764285D02*
X57183390Y-42716666D01*
X57183390Y-42716666D02*
X57326247Y-42716666D01*
X57326247Y-42716666D02*
X57516723Y-42764285D01*
X57516723Y-42764285D02*
X57611961Y-42811904D01*
X57611961Y-42811904D02*
X57707200Y-42907142D01*
X57707200Y-42907142D02*
X57754819Y-43049999D01*
X57754819Y-43049999D02*
X57754819Y-43288094D01*
X57754819Y-41764285D02*
X57754819Y-42335713D01*
X57754819Y-42049999D02*
X56754819Y-42049999D01*
X56754819Y-42049999D02*
X56897676Y-42145237D01*
X56897676Y-42145237D02*
X56992914Y-42240475D01*
X56992914Y-42240475D02*
X57040533Y-42335713D01*
X57779819Y-46706904D02*
X56779819Y-46706904D01*
X57779819Y-46135476D02*
X57208390Y-46564047D01*
X56779819Y-46135476D02*
X57351247Y-46706904D01*
X28537319Y-105054523D02*
X29251604Y-105054523D01*
X29251604Y-105054523D02*
X29394461Y-105102142D01*
X29394461Y-105102142D02*
X29489700Y-105197380D01*
X29489700Y-105197380D02*
X29537319Y-105340237D01*
X29537319Y-105340237D02*
X29537319Y-105435475D01*
X29537319Y-104054523D02*
X29537319Y-104625951D01*
X29537319Y-104340237D02*
X28537319Y-104340237D01*
X28537319Y-104340237D02*
X28680176Y-104435475D01*
X28680176Y-104435475D02*
X28775414Y-104530713D01*
X28775414Y-104530713D02*
X28823033Y-104625951D01*
X29537319Y-103102142D02*
X29537319Y-103673570D01*
X29537319Y-103387856D02*
X28537319Y-103387856D01*
X28537319Y-103387856D02*
X28680176Y-103483094D01*
X28680176Y-103483094D02*
X28775414Y-103578332D01*
X28775414Y-103578332D02*
X28823033Y-103673570D01*
X39675595Y-97104819D02*
X39675595Y-97914342D01*
X39675595Y-97914342D02*
X39723214Y-98009580D01*
X39723214Y-98009580D02*
X39770833Y-98057200D01*
X39770833Y-98057200D02*
X39866071Y-98104819D01*
X39866071Y-98104819D02*
X40056547Y-98104819D01*
X40056547Y-98104819D02*
X40151785Y-98057200D01*
X40151785Y-98057200D02*
X40199404Y-98009580D01*
X40199404Y-98009580D02*
X40247023Y-97914342D01*
X40247023Y-97914342D02*
X40247023Y-97104819D01*
X41151785Y-97438152D02*
X41151785Y-98104819D01*
X40913690Y-97057200D02*
X40675595Y-97771485D01*
X40675595Y-97771485D02*
X41294642Y-97771485D01*
X55533095Y-95679819D02*
X55533095Y-96489342D01*
X55533095Y-96489342D02*
X55580714Y-96584580D01*
X55580714Y-96584580D02*
X55628333Y-96632200D01*
X55628333Y-96632200D02*
X55723571Y-96679819D01*
X55723571Y-96679819D02*
X55914047Y-96679819D01*
X55914047Y-96679819D02*
X56009285Y-96632200D01*
X56009285Y-96632200D02*
X56056904Y-96584580D01*
X56056904Y-96584580D02*
X56104523Y-96489342D01*
X56104523Y-96489342D02*
X56104523Y-95679819D01*
X57056904Y-95679819D02*
X56580714Y-95679819D01*
X56580714Y-95679819D02*
X56533095Y-96156009D01*
X56533095Y-96156009D02*
X56580714Y-96108390D01*
X56580714Y-96108390D02*
X56675952Y-96060771D01*
X56675952Y-96060771D02*
X56914047Y-96060771D01*
X56914047Y-96060771D02*
X57009285Y-96108390D01*
X57009285Y-96108390D02*
X57056904Y-96156009D01*
X57056904Y-96156009D02*
X57104523Y-96251247D01*
X57104523Y-96251247D02*
X57104523Y-96489342D01*
X57104523Y-96489342D02*
X57056904Y-96584580D01*
X57056904Y-96584580D02*
X57009285Y-96632200D01*
X57009285Y-96632200D02*
X56914047Y-96679819D01*
X56914047Y-96679819D02*
X56675952Y-96679819D01*
X56675952Y-96679819D02*
X56580714Y-96632200D01*
X56580714Y-96632200D02*
X56533095Y-96584580D01*
X28504819Y-60678333D02*
X29219104Y-60678333D01*
X29219104Y-60678333D02*
X29361961Y-60725952D01*
X29361961Y-60725952D02*
X29457200Y-60821190D01*
X29457200Y-60821190D02*
X29504819Y-60964047D01*
X29504819Y-60964047D02*
X29504819Y-61059285D01*
X28504819Y-59773571D02*
X28504819Y-59964047D01*
X28504819Y-59964047D02*
X28552438Y-60059285D01*
X28552438Y-60059285D02*
X28600057Y-60106904D01*
X28600057Y-60106904D02*
X28742914Y-60202142D01*
X28742914Y-60202142D02*
X28933390Y-60249761D01*
X28933390Y-60249761D02*
X29314342Y-60249761D01*
X29314342Y-60249761D02*
X29409580Y-60202142D01*
X29409580Y-60202142D02*
X29457200Y-60154523D01*
X29457200Y-60154523D02*
X29504819Y-60059285D01*
X29504819Y-60059285D02*
X29504819Y-59868809D01*
X29504819Y-59868809D02*
X29457200Y-59773571D01*
X29457200Y-59773571D02*
X29409580Y-59725952D01*
X29409580Y-59725952D02*
X29314342Y-59678333D01*
X29314342Y-59678333D02*
X29076247Y-59678333D01*
X29076247Y-59678333D02*
X28981009Y-59725952D01*
X28981009Y-59725952D02*
X28933390Y-59773571D01*
X28933390Y-59773571D02*
X28885771Y-59868809D01*
X28885771Y-59868809D02*
X28885771Y-60059285D01*
X28885771Y-60059285D02*
X28933390Y-60154523D01*
X28933390Y-60154523D02*
X28981009Y-60202142D01*
X28981009Y-60202142D02*
X29076247Y-60249761D01*
X36204580Y-100137857D02*
X36252200Y-100185476D01*
X36252200Y-100185476D02*
X36299819Y-100328333D01*
X36299819Y-100328333D02*
X36299819Y-100423571D01*
X36299819Y-100423571D02*
X36252200Y-100566428D01*
X36252200Y-100566428D02*
X36156961Y-100661666D01*
X36156961Y-100661666D02*
X36061723Y-100709285D01*
X36061723Y-100709285D02*
X35871247Y-100756904D01*
X35871247Y-100756904D02*
X35728390Y-100756904D01*
X35728390Y-100756904D02*
X35537914Y-100709285D01*
X35537914Y-100709285D02*
X35442676Y-100661666D01*
X35442676Y-100661666D02*
X35347438Y-100566428D01*
X35347438Y-100566428D02*
X35299819Y-100423571D01*
X35299819Y-100423571D02*
X35299819Y-100328333D01*
X35299819Y-100328333D02*
X35347438Y-100185476D01*
X35347438Y-100185476D02*
X35395057Y-100137857D01*
X36299819Y-99185476D02*
X36299819Y-99756904D01*
X36299819Y-99471190D02*
X35299819Y-99471190D01*
X35299819Y-99471190D02*
X35442676Y-99566428D01*
X35442676Y-99566428D02*
X35537914Y-99661666D01*
X35537914Y-99661666D02*
X35585533Y-99756904D01*
X35299819Y-98852142D02*
X35299819Y-98185476D01*
X35299819Y-98185476D02*
X36299819Y-98614047D01*
X28504819Y-38178333D02*
X29219104Y-38178333D01*
X29219104Y-38178333D02*
X29361961Y-38225952D01*
X29361961Y-38225952D02*
X29457200Y-38321190D01*
X29457200Y-38321190D02*
X29504819Y-38464047D01*
X29504819Y-38464047D02*
X29504819Y-38559285D01*
X28838152Y-37273571D02*
X29504819Y-37273571D01*
X28457200Y-37511666D02*
X29171485Y-37749761D01*
X29171485Y-37749761D02*
X29171485Y-37130714D01*
X65859819Y-48369166D02*
X65383628Y-48702499D01*
X65859819Y-48940594D02*
X64859819Y-48940594D01*
X64859819Y-48940594D02*
X64859819Y-48559642D01*
X64859819Y-48559642D02*
X64907438Y-48464404D01*
X64907438Y-48464404D02*
X64955057Y-48416785D01*
X64955057Y-48416785D02*
X65050295Y-48369166D01*
X65050295Y-48369166D02*
X65193152Y-48369166D01*
X65193152Y-48369166D02*
X65288390Y-48416785D01*
X65288390Y-48416785D02*
X65336009Y-48464404D01*
X65336009Y-48464404D02*
X65383628Y-48559642D01*
X65383628Y-48559642D02*
X65383628Y-48940594D01*
X65193152Y-47512023D02*
X65859819Y-47512023D01*
X64812200Y-47750118D02*
X65526485Y-47988213D01*
X65526485Y-47988213D02*
X65526485Y-47369166D01*
X55407142Y-107609580D02*
X55359523Y-107657200D01*
X55359523Y-107657200D02*
X55216666Y-107704819D01*
X55216666Y-107704819D02*
X55121428Y-107704819D01*
X55121428Y-107704819D02*
X54978571Y-107657200D01*
X54978571Y-107657200D02*
X54883333Y-107561961D01*
X54883333Y-107561961D02*
X54835714Y-107466723D01*
X54835714Y-107466723D02*
X54788095Y-107276247D01*
X54788095Y-107276247D02*
X54788095Y-107133390D01*
X54788095Y-107133390D02*
X54835714Y-106942914D01*
X54835714Y-106942914D02*
X54883333Y-106847676D01*
X54883333Y-106847676D02*
X54978571Y-106752438D01*
X54978571Y-106752438D02*
X55121428Y-106704819D01*
X55121428Y-106704819D02*
X55216666Y-106704819D01*
X55216666Y-106704819D02*
X55359523Y-106752438D01*
X55359523Y-106752438D02*
X55407142Y-106800057D01*
X56359523Y-107704819D02*
X55788095Y-107704819D01*
X56073809Y-107704819D02*
X56073809Y-106704819D01*
X56073809Y-106704819D02*
X55978571Y-106847676D01*
X55978571Y-106847676D02*
X55883333Y-106942914D01*
X55883333Y-106942914D02*
X55788095Y-106990533D01*
X56835714Y-107704819D02*
X57026190Y-107704819D01*
X57026190Y-107704819D02*
X57121428Y-107657200D01*
X57121428Y-107657200D02*
X57169047Y-107609580D01*
X57169047Y-107609580D02*
X57264285Y-107466723D01*
X57264285Y-107466723D02*
X57311904Y-107276247D01*
X57311904Y-107276247D02*
X57311904Y-106895295D01*
X57311904Y-106895295D02*
X57264285Y-106800057D01*
X57264285Y-106800057D02*
X57216666Y-106752438D01*
X57216666Y-106752438D02*
X57121428Y-106704819D01*
X57121428Y-106704819D02*
X56930952Y-106704819D01*
X56930952Y-106704819D02*
X56835714Y-106752438D01*
X56835714Y-106752438D02*
X56788095Y-106800057D01*
X56788095Y-106800057D02*
X56740476Y-106895295D01*
X56740476Y-106895295D02*
X56740476Y-107133390D01*
X56740476Y-107133390D02*
X56788095Y-107228628D01*
X56788095Y-107228628D02*
X56835714Y-107276247D01*
X56835714Y-107276247D02*
X56930952Y-107323866D01*
X56930952Y-107323866D02*
X57121428Y-107323866D01*
X57121428Y-107323866D02*
X57216666Y-107276247D01*
X57216666Y-107276247D02*
X57264285Y-107228628D01*
X57264285Y-107228628D02*
X57311904Y-107133390D01*
X67290476Y-109704819D02*
X67290476Y-110419104D01*
X67290476Y-110419104D02*
X67242857Y-110561961D01*
X67242857Y-110561961D02*
X67147619Y-110657200D01*
X67147619Y-110657200D02*
X67004762Y-110704819D01*
X67004762Y-110704819D02*
X66909524Y-110704819D01*
X68290476Y-110704819D02*
X67719048Y-110704819D01*
X68004762Y-110704819D02*
X68004762Y-109704819D01*
X68004762Y-109704819D02*
X67909524Y-109847676D01*
X67909524Y-109847676D02*
X67814286Y-109942914D01*
X67814286Y-109942914D02*
X67719048Y-109990533D01*
X68671429Y-109800057D02*
X68719048Y-109752438D01*
X68719048Y-109752438D02*
X68814286Y-109704819D01*
X68814286Y-109704819D02*
X69052381Y-109704819D01*
X69052381Y-109704819D02*
X69147619Y-109752438D01*
X69147619Y-109752438D02*
X69195238Y-109800057D01*
X69195238Y-109800057D02*
X69242857Y-109895295D01*
X69242857Y-109895295D02*
X69242857Y-109990533D01*
X69242857Y-109990533D02*
X69195238Y-110133390D01*
X69195238Y-110133390D02*
X68623810Y-110704819D01*
X68623810Y-110704819D02*
X69242857Y-110704819D01*
X52066666Y-28604819D02*
X52066666Y-29319104D01*
X52066666Y-29319104D02*
X52019047Y-29461961D01*
X52019047Y-29461961D02*
X51923809Y-29557200D01*
X51923809Y-29557200D02*
X51780952Y-29604819D01*
X51780952Y-29604819D02*
X51685714Y-29604819D01*
X52495238Y-28700057D02*
X52542857Y-28652438D01*
X52542857Y-28652438D02*
X52638095Y-28604819D01*
X52638095Y-28604819D02*
X52876190Y-28604819D01*
X52876190Y-28604819D02*
X52971428Y-28652438D01*
X52971428Y-28652438D02*
X53019047Y-28700057D01*
X53019047Y-28700057D02*
X53066666Y-28795295D01*
X53066666Y-28795295D02*
X53066666Y-28890533D01*
X53066666Y-28890533D02*
X53019047Y-29033390D01*
X53019047Y-29033390D02*
X52447619Y-29604819D01*
X52447619Y-29604819D02*
X53066666Y-29604819D01*
X49568333Y-55024819D02*
X49235000Y-54548628D01*
X48996905Y-55024819D02*
X48996905Y-54024819D01*
X48996905Y-54024819D02*
X49377857Y-54024819D01*
X49377857Y-54024819D02*
X49473095Y-54072438D01*
X49473095Y-54072438D02*
X49520714Y-54120057D01*
X49520714Y-54120057D02*
X49568333Y-54215295D01*
X49568333Y-54215295D02*
X49568333Y-54358152D01*
X49568333Y-54358152D02*
X49520714Y-54453390D01*
X49520714Y-54453390D02*
X49473095Y-54501009D01*
X49473095Y-54501009D02*
X49377857Y-54548628D01*
X49377857Y-54548628D02*
X48996905Y-54548628D01*
X50473095Y-54024819D02*
X49996905Y-54024819D01*
X49996905Y-54024819D02*
X49949286Y-54501009D01*
X49949286Y-54501009D02*
X49996905Y-54453390D01*
X49996905Y-54453390D02*
X50092143Y-54405771D01*
X50092143Y-54405771D02*
X50330238Y-54405771D01*
X50330238Y-54405771D02*
X50425476Y-54453390D01*
X50425476Y-54453390D02*
X50473095Y-54501009D01*
X50473095Y-54501009D02*
X50520714Y-54596247D01*
X50520714Y-54596247D02*
X50520714Y-54834342D01*
X50520714Y-54834342D02*
X50473095Y-54929580D01*
X50473095Y-54929580D02*
X50425476Y-54977200D01*
X50425476Y-54977200D02*
X50330238Y-55024819D01*
X50330238Y-55024819D02*
X50092143Y-55024819D01*
X50092143Y-55024819D02*
X49996905Y-54977200D01*
X49996905Y-54977200D02*
X49949286Y-54929580D01*
X43814286Y-117204819D02*
X43814286Y-116204819D01*
X43814286Y-116204819D02*
X44195238Y-116204819D01*
X44195238Y-116204819D02*
X44290476Y-116252438D01*
X44290476Y-116252438D02*
X44338095Y-116300057D01*
X44338095Y-116300057D02*
X44385714Y-116395295D01*
X44385714Y-116395295D02*
X44385714Y-116538152D01*
X44385714Y-116538152D02*
X44338095Y-116633390D01*
X44338095Y-116633390D02*
X44290476Y-116681009D01*
X44290476Y-116681009D02*
X44195238Y-116728628D01*
X44195238Y-116728628D02*
X43814286Y-116728628D01*
X45385714Y-117204819D02*
X45052381Y-116728628D01*
X44814286Y-117204819D02*
X44814286Y-116204819D01*
X44814286Y-116204819D02*
X45195238Y-116204819D01*
X45195238Y-116204819D02*
X45290476Y-116252438D01*
X45290476Y-116252438D02*
X45338095Y-116300057D01*
X45338095Y-116300057D02*
X45385714Y-116395295D01*
X45385714Y-116395295D02*
X45385714Y-116538152D01*
X45385714Y-116538152D02*
X45338095Y-116633390D01*
X45338095Y-116633390D02*
X45290476Y-116681009D01*
X45290476Y-116681009D02*
X45195238Y-116728628D01*
X45195238Y-116728628D02*
X44814286Y-116728628D01*
X46004762Y-116204819D02*
X46195238Y-116204819D01*
X46195238Y-116204819D02*
X46290476Y-116252438D01*
X46290476Y-116252438D02*
X46385714Y-116347676D01*
X46385714Y-116347676D02*
X46433333Y-116538152D01*
X46433333Y-116538152D02*
X46433333Y-116871485D01*
X46433333Y-116871485D02*
X46385714Y-117061961D01*
X46385714Y-117061961D02*
X46290476Y-117157200D01*
X46290476Y-117157200D02*
X46195238Y-117204819D01*
X46195238Y-117204819D02*
X46004762Y-117204819D01*
X46004762Y-117204819D02*
X45909524Y-117157200D01*
X45909524Y-117157200D02*
X45814286Y-117061961D01*
X45814286Y-117061961D02*
X45766667Y-116871485D01*
X45766667Y-116871485D02*
X45766667Y-116538152D01*
X45766667Y-116538152D02*
X45814286Y-116347676D01*
X45814286Y-116347676D02*
X45909524Y-116252438D01*
X45909524Y-116252438D02*
X46004762Y-116204819D01*
X47385714Y-116252438D02*
X47290476Y-116204819D01*
X47290476Y-116204819D02*
X47147619Y-116204819D01*
X47147619Y-116204819D02*
X47004762Y-116252438D01*
X47004762Y-116252438D02*
X46909524Y-116347676D01*
X46909524Y-116347676D02*
X46861905Y-116442914D01*
X46861905Y-116442914D02*
X46814286Y-116633390D01*
X46814286Y-116633390D02*
X46814286Y-116776247D01*
X46814286Y-116776247D02*
X46861905Y-116966723D01*
X46861905Y-116966723D02*
X46909524Y-117061961D01*
X46909524Y-117061961D02*
X47004762Y-117157200D01*
X47004762Y-117157200D02*
X47147619Y-117204819D01*
X47147619Y-117204819D02*
X47242857Y-117204819D01*
X47242857Y-117204819D02*
X47385714Y-117157200D01*
X47385714Y-117157200D02*
X47433333Y-117109580D01*
X47433333Y-117109580D02*
X47433333Y-116776247D01*
X47433333Y-116776247D02*
X47242857Y-116776247D01*
X38204580Y-100137857D02*
X38252200Y-100185476D01*
X38252200Y-100185476D02*
X38299819Y-100328333D01*
X38299819Y-100328333D02*
X38299819Y-100423571D01*
X38299819Y-100423571D02*
X38252200Y-100566428D01*
X38252200Y-100566428D02*
X38156961Y-100661666D01*
X38156961Y-100661666D02*
X38061723Y-100709285D01*
X38061723Y-100709285D02*
X37871247Y-100756904D01*
X37871247Y-100756904D02*
X37728390Y-100756904D01*
X37728390Y-100756904D02*
X37537914Y-100709285D01*
X37537914Y-100709285D02*
X37442676Y-100661666D01*
X37442676Y-100661666D02*
X37347438Y-100566428D01*
X37347438Y-100566428D02*
X37299819Y-100423571D01*
X37299819Y-100423571D02*
X37299819Y-100328333D01*
X37299819Y-100328333D02*
X37347438Y-100185476D01*
X37347438Y-100185476D02*
X37395057Y-100137857D01*
X38299819Y-99185476D02*
X38299819Y-99756904D01*
X38299819Y-99471190D02*
X37299819Y-99471190D01*
X37299819Y-99471190D02*
X37442676Y-99566428D01*
X37442676Y-99566428D02*
X37537914Y-99661666D01*
X37537914Y-99661666D02*
X37585533Y-99756904D01*
X37728390Y-98614047D02*
X37680771Y-98709285D01*
X37680771Y-98709285D02*
X37633152Y-98756904D01*
X37633152Y-98756904D02*
X37537914Y-98804523D01*
X37537914Y-98804523D02*
X37490295Y-98804523D01*
X37490295Y-98804523D02*
X37395057Y-98756904D01*
X37395057Y-98756904D02*
X37347438Y-98709285D01*
X37347438Y-98709285D02*
X37299819Y-98614047D01*
X37299819Y-98614047D02*
X37299819Y-98423571D01*
X37299819Y-98423571D02*
X37347438Y-98328333D01*
X37347438Y-98328333D02*
X37395057Y-98280714D01*
X37395057Y-98280714D02*
X37490295Y-98233095D01*
X37490295Y-98233095D02*
X37537914Y-98233095D01*
X37537914Y-98233095D02*
X37633152Y-98280714D01*
X37633152Y-98280714D02*
X37680771Y-98328333D01*
X37680771Y-98328333D02*
X37728390Y-98423571D01*
X37728390Y-98423571D02*
X37728390Y-98614047D01*
X37728390Y-98614047D02*
X37776009Y-98709285D01*
X37776009Y-98709285D02*
X37823628Y-98756904D01*
X37823628Y-98756904D02*
X37918866Y-98804523D01*
X37918866Y-98804523D02*
X38109342Y-98804523D01*
X38109342Y-98804523D02*
X38204580Y-98756904D01*
X38204580Y-98756904D02*
X38252200Y-98709285D01*
X38252200Y-98709285D02*
X38299819Y-98614047D01*
X38299819Y-98614047D02*
X38299819Y-98423571D01*
X38299819Y-98423571D02*
X38252200Y-98328333D01*
X38252200Y-98328333D02*
X38204580Y-98280714D01*
X38204580Y-98280714D02*
X38109342Y-98233095D01*
X38109342Y-98233095D02*
X37918866Y-98233095D01*
X37918866Y-98233095D02*
X37823628Y-98280714D01*
X37823628Y-98280714D02*
X37776009Y-98328333D01*
X37776009Y-98328333D02*
X37728390Y-98423571D01*
X71299819Y-40161666D02*
X70823628Y-40494999D01*
X71299819Y-40733094D02*
X70299819Y-40733094D01*
X70299819Y-40733094D02*
X70299819Y-40352142D01*
X70299819Y-40352142D02*
X70347438Y-40256904D01*
X70347438Y-40256904D02*
X70395057Y-40209285D01*
X70395057Y-40209285D02*
X70490295Y-40161666D01*
X70490295Y-40161666D02*
X70633152Y-40161666D01*
X70633152Y-40161666D02*
X70728390Y-40209285D01*
X70728390Y-40209285D02*
X70776009Y-40256904D01*
X70776009Y-40256904D02*
X70823628Y-40352142D01*
X70823628Y-40352142D02*
X70823628Y-40733094D01*
X70395057Y-39780713D02*
X70347438Y-39733094D01*
X70347438Y-39733094D02*
X70299819Y-39637856D01*
X70299819Y-39637856D02*
X70299819Y-39399761D01*
X70299819Y-39399761D02*
X70347438Y-39304523D01*
X70347438Y-39304523D02*
X70395057Y-39256904D01*
X70395057Y-39256904D02*
X70490295Y-39209285D01*
X70490295Y-39209285D02*
X70585533Y-39209285D01*
X70585533Y-39209285D02*
X70728390Y-39256904D01*
X70728390Y-39256904D02*
X71299819Y-39828332D01*
X71299819Y-39828332D02*
X71299819Y-39209285D01*
X55552142Y-88254819D02*
X55218809Y-87778628D01*
X54980714Y-88254819D02*
X54980714Y-87254819D01*
X54980714Y-87254819D02*
X55361666Y-87254819D01*
X55361666Y-87254819D02*
X55456904Y-87302438D01*
X55456904Y-87302438D02*
X55504523Y-87350057D01*
X55504523Y-87350057D02*
X55552142Y-87445295D01*
X55552142Y-87445295D02*
X55552142Y-87588152D01*
X55552142Y-87588152D02*
X55504523Y-87683390D01*
X55504523Y-87683390D02*
X55456904Y-87731009D01*
X55456904Y-87731009D02*
X55361666Y-87778628D01*
X55361666Y-87778628D02*
X54980714Y-87778628D01*
X56504523Y-88254819D02*
X55933095Y-88254819D01*
X56218809Y-88254819D02*
X56218809Y-87254819D01*
X56218809Y-87254819D02*
X56123571Y-87397676D01*
X56123571Y-87397676D02*
X56028333Y-87492914D01*
X56028333Y-87492914D02*
X55933095Y-87540533D01*
X57123571Y-87254819D02*
X57218809Y-87254819D01*
X57218809Y-87254819D02*
X57314047Y-87302438D01*
X57314047Y-87302438D02*
X57361666Y-87350057D01*
X57361666Y-87350057D02*
X57409285Y-87445295D01*
X57409285Y-87445295D02*
X57456904Y-87635771D01*
X57456904Y-87635771D02*
X57456904Y-87873866D01*
X57456904Y-87873866D02*
X57409285Y-88064342D01*
X57409285Y-88064342D02*
X57361666Y-88159580D01*
X57361666Y-88159580D02*
X57314047Y-88207200D01*
X57314047Y-88207200D02*
X57218809Y-88254819D01*
X57218809Y-88254819D02*
X57123571Y-88254819D01*
X57123571Y-88254819D02*
X57028333Y-88207200D01*
X57028333Y-88207200D02*
X56980714Y-88159580D01*
X56980714Y-88159580D02*
X56933095Y-88064342D01*
X56933095Y-88064342D02*
X56885476Y-87873866D01*
X56885476Y-87873866D02*
X56885476Y-87635771D01*
X56885476Y-87635771D02*
X56933095Y-87445295D01*
X56933095Y-87445295D02*
X56980714Y-87350057D01*
X56980714Y-87350057D02*
X57028333Y-87302438D01*
X57028333Y-87302438D02*
X57123571Y-87254819D01*
X65307142Y-102554819D02*
X64973809Y-102078628D01*
X64735714Y-102554819D02*
X64735714Y-101554819D01*
X64735714Y-101554819D02*
X65116666Y-101554819D01*
X65116666Y-101554819D02*
X65211904Y-101602438D01*
X65211904Y-101602438D02*
X65259523Y-101650057D01*
X65259523Y-101650057D02*
X65307142Y-101745295D01*
X65307142Y-101745295D02*
X65307142Y-101888152D01*
X65307142Y-101888152D02*
X65259523Y-101983390D01*
X65259523Y-101983390D02*
X65211904Y-102031009D01*
X65211904Y-102031009D02*
X65116666Y-102078628D01*
X65116666Y-102078628D02*
X64735714Y-102078628D01*
X66259523Y-102554819D02*
X65688095Y-102554819D01*
X65973809Y-102554819D02*
X65973809Y-101554819D01*
X65973809Y-101554819D02*
X65878571Y-101697676D01*
X65878571Y-101697676D02*
X65783333Y-101792914D01*
X65783333Y-101792914D02*
X65688095Y-101840533D01*
X67116666Y-101888152D02*
X67116666Y-102554819D01*
X66878571Y-101507200D02*
X66640476Y-102221485D01*
X66640476Y-102221485D02*
X67259523Y-102221485D01*
X53393095Y-79934819D02*
X53393095Y-80744342D01*
X53393095Y-80744342D02*
X53440714Y-80839580D01*
X53440714Y-80839580D02*
X53488333Y-80887200D01*
X53488333Y-80887200D02*
X53583571Y-80934819D01*
X53583571Y-80934819D02*
X53774047Y-80934819D01*
X53774047Y-80934819D02*
X53869285Y-80887200D01*
X53869285Y-80887200D02*
X53916904Y-80839580D01*
X53916904Y-80839580D02*
X53964523Y-80744342D01*
X53964523Y-80744342D02*
X53964523Y-79934819D01*
X54393095Y-80030057D02*
X54440714Y-79982438D01*
X54440714Y-79982438D02*
X54535952Y-79934819D01*
X54535952Y-79934819D02*
X54774047Y-79934819D01*
X54774047Y-79934819D02*
X54869285Y-79982438D01*
X54869285Y-79982438D02*
X54916904Y-80030057D01*
X54916904Y-80030057D02*
X54964523Y-80125295D01*
X54964523Y-80125295D02*
X54964523Y-80220533D01*
X54964523Y-80220533D02*
X54916904Y-80363390D01*
X54916904Y-80363390D02*
X54345476Y-80934819D01*
X54345476Y-80934819D02*
X54964523Y-80934819D01*
X48802142Y-100474580D02*
X48754523Y-100522200D01*
X48754523Y-100522200D02*
X48611666Y-100569819D01*
X48611666Y-100569819D02*
X48516428Y-100569819D01*
X48516428Y-100569819D02*
X48373571Y-100522200D01*
X48373571Y-100522200D02*
X48278333Y-100426961D01*
X48278333Y-100426961D02*
X48230714Y-100331723D01*
X48230714Y-100331723D02*
X48183095Y-100141247D01*
X48183095Y-100141247D02*
X48183095Y-99998390D01*
X48183095Y-99998390D02*
X48230714Y-99807914D01*
X48230714Y-99807914D02*
X48278333Y-99712676D01*
X48278333Y-99712676D02*
X48373571Y-99617438D01*
X48373571Y-99617438D02*
X48516428Y-99569819D01*
X48516428Y-99569819D02*
X48611666Y-99569819D01*
X48611666Y-99569819D02*
X48754523Y-99617438D01*
X48754523Y-99617438D02*
X48802142Y-99665057D01*
X49754523Y-100569819D02*
X49183095Y-100569819D01*
X49468809Y-100569819D02*
X49468809Y-99569819D01*
X49468809Y-99569819D02*
X49373571Y-99712676D01*
X49373571Y-99712676D02*
X49278333Y-99807914D01*
X49278333Y-99807914D02*
X49183095Y-99855533D01*
X50659285Y-99569819D02*
X50183095Y-99569819D01*
X50183095Y-99569819D02*
X50135476Y-100046009D01*
X50135476Y-100046009D02*
X50183095Y-99998390D01*
X50183095Y-99998390D02*
X50278333Y-99950771D01*
X50278333Y-99950771D02*
X50516428Y-99950771D01*
X50516428Y-99950771D02*
X50611666Y-99998390D01*
X50611666Y-99998390D02*
X50659285Y-100046009D01*
X50659285Y-100046009D02*
X50706904Y-100141247D01*
X50706904Y-100141247D02*
X50706904Y-100379342D01*
X50706904Y-100379342D02*
X50659285Y-100474580D01*
X50659285Y-100474580D02*
X50611666Y-100522200D01*
X50611666Y-100522200D02*
X50516428Y-100569819D01*
X50516428Y-100569819D02*
X50278333Y-100569819D01*
X50278333Y-100569819D02*
X50183095Y-100522200D01*
X50183095Y-100522200D02*
X50135476Y-100474580D01*
X37922080Y-59041666D02*
X37969700Y-59089285D01*
X37969700Y-59089285D02*
X38017319Y-59232142D01*
X38017319Y-59232142D02*
X38017319Y-59327380D01*
X38017319Y-59327380D02*
X37969700Y-59470237D01*
X37969700Y-59470237D02*
X37874461Y-59565475D01*
X37874461Y-59565475D02*
X37779223Y-59613094D01*
X37779223Y-59613094D02*
X37588747Y-59660713D01*
X37588747Y-59660713D02*
X37445890Y-59660713D01*
X37445890Y-59660713D02*
X37255414Y-59613094D01*
X37255414Y-59613094D02*
X37160176Y-59565475D01*
X37160176Y-59565475D02*
X37064938Y-59470237D01*
X37064938Y-59470237D02*
X37017319Y-59327380D01*
X37017319Y-59327380D02*
X37017319Y-59232142D01*
X37017319Y-59232142D02*
X37064938Y-59089285D01*
X37064938Y-59089285D02*
X37112557Y-59041666D01*
X37445890Y-58470237D02*
X37398271Y-58565475D01*
X37398271Y-58565475D02*
X37350652Y-58613094D01*
X37350652Y-58613094D02*
X37255414Y-58660713D01*
X37255414Y-58660713D02*
X37207795Y-58660713D01*
X37207795Y-58660713D02*
X37112557Y-58613094D01*
X37112557Y-58613094D02*
X37064938Y-58565475D01*
X37064938Y-58565475D02*
X37017319Y-58470237D01*
X37017319Y-58470237D02*
X37017319Y-58279761D01*
X37017319Y-58279761D02*
X37064938Y-58184523D01*
X37064938Y-58184523D02*
X37112557Y-58136904D01*
X37112557Y-58136904D02*
X37207795Y-58089285D01*
X37207795Y-58089285D02*
X37255414Y-58089285D01*
X37255414Y-58089285D02*
X37350652Y-58136904D01*
X37350652Y-58136904D02*
X37398271Y-58184523D01*
X37398271Y-58184523D02*
X37445890Y-58279761D01*
X37445890Y-58279761D02*
X37445890Y-58470237D01*
X37445890Y-58470237D02*
X37493509Y-58565475D01*
X37493509Y-58565475D02*
X37541128Y-58613094D01*
X37541128Y-58613094D02*
X37636366Y-58660713D01*
X37636366Y-58660713D02*
X37826842Y-58660713D01*
X37826842Y-58660713D02*
X37922080Y-58613094D01*
X37922080Y-58613094D02*
X37969700Y-58565475D01*
X37969700Y-58565475D02*
X38017319Y-58470237D01*
X38017319Y-58470237D02*
X38017319Y-58279761D01*
X38017319Y-58279761D02*
X37969700Y-58184523D01*
X37969700Y-58184523D02*
X37922080Y-58136904D01*
X37922080Y-58136904D02*
X37826842Y-58089285D01*
X37826842Y-58089285D02*
X37636366Y-58089285D01*
X37636366Y-58089285D02*
X37541128Y-58136904D01*
X37541128Y-58136904D02*
X37493509Y-58184523D01*
X37493509Y-58184523D02*
X37445890Y-58279761D01*
X65307142Y-104004819D02*
X64973809Y-103528628D01*
X64735714Y-104004819D02*
X64735714Y-103004819D01*
X64735714Y-103004819D02*
X65116666Y-103004819D01*
X65116666Y-103004819D02*
X65211904Y-103052438D01*
X65211904Y-103052438D02*
X65259523Y-103100057D01*
X65259523Y-103100057D02*
X65307142Y-103195295D01*
X65307142Y-103195295D02*
X65307142Y-103338152D01*
X65307142Y-103338152D02*
X65259523Y-103433390D01*
X65259523Y-103433390D02*
X65211904Y-103481009D01*
X65211904Y-103481009D02*
X65116666Y-103528628D01*
X65116666Y-103528628D02*
X64735714Y-103528628D01*
X66259523Y-104004819D02*
X65688095Y-104004819D01*
X65973809Y-104004819D02*
X65973809Y-103004819D01*
X65973809Y-103004819D02*
X65878571Y-103147676D01*
X65878571Y-103147676D02*
X65783333Y-103242914D01*
X65783333Y-103242914D02*
X65688095Y-103290533D01*
X67164285Y-103004819D02*
X66688095Y-103004819D01*
X66688095Y-103004819D02*
X66640476Y-103481009D01*
X66640476Y-103481009D02*
X66688095Y-103433390D01*
X66688095Y-103433390D02*
X66783333Y-103385771D01*
X66783333Y-103385771D02*
X67021428Y-103385771D01*
X67021428Y-103385771D02*
X67116666Y-103433390D01*
X67116666Y-103433390D02*
X67164285Y-103481009D01*
X67164285Y-103481009D02*
X67211904Y-103576247D01*
X67211904Y-103576247D02*
X67211904Y-103814342D01*
X67211904Y-103814342D02*
X67164285Y-103909580D01*
X67164285Y-103909580D02*
X67116666Y-103957200D01*
X67116666Y-103957200D02*
X67021428Y-104004819D01*
X67021428Y-104004819D02*
X66783333Y-104004819D01*
X66783333Y-104004819D02*
X66688095Y-103957200D01*
X66688095Y-103957200D02*
X66640476Y-103909580D01*
X47299761Y-42945057D02*
X47204523Y-42897438D01*
X47204523Y-42897438D02*
X47109285Y-42802200D01*
X47109285Y-42802200D02*
X46966428Y-42659342D01*
X46966428Y-42659342D02*
X46871190Y-42611723D01*
X46871190Y-42611723D02*
X46775952Y-42611723D01*
X46823571Y-42849819D02*
X46728333Y-42802200D01*
X46728333Y-42802200D02*
X46633095Y-42706961D01*
X46633095Y-42706961D02*
X46585476Y-42516485D01*
X46585476Y-42516485D02*
X46585476Y-42183152D01*
X46585476Y-42183152D02*
X46633095Y-41992676D01*
X46633095Y-41992676D02*
X46728333Y-41897438D01*
X46728333Y-41897438D02*
X46823571Y-41849819D01*
X46823571Y-41849819D02*
X47014047Y-41849819D01*
X47014047Y-41849819D02*
X47109285Y-41897438D01*
X47109285Y-41897438D02*
X47204523Y-41992676D01*
X47204523Y-41992676D02*
X47252142Y-42183152D01*
X47252142Y-42183152D02*
X47252142Y-42516485D01*
X47252142Y-42516485D02*
X47204523Y-42706961D01*
X47204523Y-42706961D02*
X47109285Y-42802200D01*
X47109285Y-42802200D02*
X47014047Y-42849819D01*
X47014047Y-42849819D02*
X46823571Y-42849819D01*
X48204523Y-42849819D02*
X47633095Y-42849819D01*
X47918809Y-42849819D02*
X47918809Y-41849819D01*
X47918809Y-41849819D02*
X47823571Y-41992676D01*
X47823571Y-41992676D02*
X47728333Y-42087914D01*
X47728333Y-42087914D02*
X47633095Y-42135533D01*
X65257142Y-99904819D02*
X64923809Y-99428628D01*
X64685714Y-99904819D02*
X64685714Y-98904819D01*
X64685714Y-98904819D02*
X65066666Y-98904819D01*
X65066666Y-98904819D02*
X65161904Y-98952438D01*
X65161904Y-98952438D02*
X65209523Y-99000057D01*
X65209523Y-99000057D02*
X65257142Y-99095295D01*
X65257142Y-99095295D02*
X65257142Y-99238152D01*
X65257142Y-99238152D02*
X65209523Y-99333390D01*
X65209523Y-99333390D02*
X65161904Y-99381009D01*
X65161904Y-99381009D02*
X65066666Y-99428628D01*
X65066666Y-99428628D02*
X64685714Y-99428628D01*
X66209523Y-99904819D02*
X65638095Y-99904819D01*
X65923809Y-99904819D02*
X65923809Y-98904819D01*
X65923809Y-98904819D02*
X65828571Y-99047676D01*
X65828571Y-99047676D02*
X65733333Y-99142914D01*
X65733333Y-99142914D02*
X65638095Y-99190533D01*
X66542857Y-98904819D02*
X67161904Y-98904819D01*
X67161904Y-98904819D02*
X66828571Y-99285771D01*
X66828571Y-99285771D02*
X66971428Y-99285771D01*
X66971428Y-99285771D02*
X67066666Y-99333390D01*
X67066666Y-99333390D02*
X67114285Y-99381009D01*
X67114285Y-99381009D02*
X67161904Y-99476247D01*
X67161904Y-99476247D02*
X67161904Y-99714342D01*
X67161904Y-99714342D02*
X67114285Y-99809580D01*
X67114285Y-99809580D02*
X67066666Y-99857200D01*
X67066666Y-99857200D02*
X66971428Y-99904819D01*
X66971428Y-99904819D02*
X66685714Y-99904819D01*
X66685714Y-99904819D02*
X66590476Y-99857200D01*
X66590476Y-99857200D02*
X66542857Y-99809580D01*
X35483333Y-44059580D02*
X35435714Y-44107200D01*
X35435714Y-44107200D02*
X35292857Y-44154819D01*
X35292857Y-44154819D02*
X35197619Y-44154819D01*
X35197619Y-44154819D02*
X35054762Y-44107200D01*
X35054762Y-44107200D02*
X34959524Y-44011961D01*
X34959524Y-44011961D02*
X34911905Y-43916723D01*
X34911905Y-43916723D02*
X34864286Y-43726247D01*
X34864286Y-43726247D02*
X34864286Y-43583390D01*
X34864286Y-43583390D02*
X34911905Y-43392914D01*
X34911905Y-43392914D02*
X34959524Y-43297676D01*
X34959524Y-43297676D02*
X35054762Y-43202438D01*
X35054762Y-43202438D02*
X35197619Y-43154819D01*
X35197619Y-43154819D02*
X35292857Y-43154819D01*
X35292857Y-43154819D02*
X35435714Y-43202438D01*
X35435714Y-43202438D02*
X35483333Y-43250057D01*
X35816667Y-43154819D02*
X36435714Y-43154819D01*
X36435714Y-43154819D02*
X36102381Y-43535771D01*
X36102381Y-43535771D02*
X36245238Y-43535771D01*
X36245238Y-43535771D02*
X36340476Y-43583390D01*
X36340476Y-43583390D02*
X36388095Y-43631009D01*
X36388095Y-43631009D02*
X36435714Y-43726247D01*
X36435714Y-43726247D02*
X36435714Y-43964342D01*
X36435714Y-43964342D02*
X36388095Y-44059580D01*
X36388095Y-44059580D02*
X36340476Y-44107200D01*
X36340476Y-44107200D02*
X36245238Y-44154819D01*
X36245238Y-44154819D02*
X35959524Y-44154819D01*
X35959524Y-44154819D02*
X35864286Y-44107200D01*
X35864286Y-44107200D02*
X35816667Y-44059580D01*
X52715476Y-116004819D02*
X52715476Y-116719104D01*
X52715476Y-116719104D02*
X52667857Y-116861961D01*
X52667857Y-116861961D02*
X52572619Y-116957200D01*
X52572619Y-116957200D02*
X52429762Y-117004819D01*
X52429762Y-117004819D02*
X52334524Y-117004819D01*
X53715476Y-117004819D02*
X53144048Y-117004819D01*
X53429762Y-117004819D02*
X53429762Y-116004819D01*
X53429762Y-116004819D02*
X53334524Y-116147676D01*
X53334524Y-116147676D02*
X53239286Y-116242914D01*
X53239286Y-116242914D02*
X53144048Y-116290533D01*
X54620238Y-116004819D02*
X54144048Y-116004819D01*
X54144048Y-116004819D02*
X54096429Y-116481009D01*
X54096429Y-116481009D02*
X54144048Y-116433390D01*
X54144048Y-116433390D02*
X54239286Y-116385771D01*
X54239286Y-116385771D02*
X54477381Y-116385771D01*
X54477381Y-116385771D02*
X54572619Y-116433390D01*
X54572619Y-116433390D02*
X54620238Y-116481009D01*
X54620238Y-116481009D02*
X54667857Y-116576247D01*
X54667857Y-116576247D02*
X54667857Y-116814342D01*
X54667857Y-116814342D02*
X54620238Y-116909580D01*
X54620238Y-116909580D02*
X54572619Y-116957200D01*
X54572619Y-116957200D02*
X54477381Y-117004819D01*
X54477381Y-117004819D02*
X54239286Y-117004819D01*
X54239286Y-117004819D02*
X54144048Y-116957200D01*
X54144048Y-116957200D02*
X54096429Y-116909580D01*
X40916666Y-36954819D02*
X40916666Y-37669104D01*
X40916666Y-37669104D02*
X40869047Y-37811961D01*
X40869047Y-37811961D02*
X40773809Y-37907200D01*
X40773809Y-37907200D02*
X40630952Y-37954819D01*
X40630952Y-37954819D02*
X40535714Y-37954819D01*
X41916666Y-37954819D02*
X41345238Y-37954819D01*
X41630952Y-37954819D02*
X41630952Y-36954819D01*
X41630952Y-36954819D02*
X41535714Y-37097676D01*
X41535714Y-37097676D02*
X41440476Y-37192914D01*
X41440476Y-37192914D02*
X41345238Y-37240533D01*
X73318333Y-47849580D02*
X73270714Y-47897200D01*
X73270714Y-47897200D02*
X73127857Y-47944819D01*
X73127857Y-47944819D02*
X73032619Y-47944819D01*
X73032619Y-47944819D02*
X72889762Y-47897200D01*
X72889762Y-47897200D02*
X72794524Y-47801961D01*
X72794524Y-47801961D02*
X72746905Y-47706723D01*
X72746905Y-47706723D02*
X72699286Y-47516247D01*
X72699286Y-47516247D02*
X72699286Y-47373390D01*
X72699286Y-47373390D02*
X72746905Y-47182914D01*
X72746905Y-47182914D02*
X72794524Y-47087676D01*
X72794524Y-47087676D02*
X72889762Y-46992438D01*
X72889762Y-46992438D02*
X73032619Y-46944819D01*
X73032619Y-46944819D02*
X73127857Y-46944819D01*
X73127857Y-46944819D02*
X73270714Y-46992438D01*
X73270714Y-46992438D02*
X73318333Y-47040057D01*
X74223095Y-46944819D02*
X73746905Y-46944819D01*
X73746905Y-46944819D02*
X73699286Y-47421009D01*
X73699286Y-47421009D02*
X73746905Y-47373390D01*
X73746905Y-47373390D02*
X73842143Y-47325771D01*
X73842143Y-47325771D02*
X74080238Y-47325771D01*
X74080238Y-47325771D02*
X74175476Y-47373390D01*
X74175476Y-47373390D02*
X74223095Y-47421009D01*
X74223095Y-47421009D02*
X74270714Y-47516247D01*
X74270714Y-47516247D02*
X74270714Y-47754342D01*
X74270714Y-47754342D02*
X74223095Y-47849580D01*
X74223095Y-47849580D02*
X74175476Y-47897200D01*
X74175476Y-47897200D02*
X74080238Y-47944819D01*
X74080238Y-47944819D02*
X73842143Y-47944819D01*
X73842143Y-47944819D02*
X73746905Y-47897200D01*
X73746905Y-47897200D02*
X73699286Y-47849580D01*
X64799819Y-40161666D02*
X64323628Y-40494999D01*
X64799819Y-40733094D02*
X63799819Y-40733094D01*
X63799819Y-40733094D02*
X63799819Y-40352142D01*
X63799819Y-40352142D02*
X63847438Y-40256904D01*
X63847438Y-40256904D02*
X63895057Y-40209285D01*
X63895057Y-40209285D02*
X63990295Y-40161666D01*
X63990295Y-40161666D02*
X64133152Y-40161666D01*
X64133152Y-40161666D02*
X64228390Y-40209285D01*
X64228390Y-40209285D02*
X64276009Y-40256904D01*
X64276009Y-40256904D02*
X64323628Y-40352142D01*
X64323628Y-40352142D02*
X64323628Y-40733094D01*
X64799819Y-39209285D02*
X64799819Y-39780713D01*
X64799819Y-39494999D02*
X63799819Y-39494999D01*
X63799819Y-39494999D02*
X63942676Y-39590237D01*
X63942676Y-39590237D02*
X64037914Y-39685475D01*
X64037914Y-39685475D02*
X64085533Y-39780713D01*
X35483333Y-40809580D02*
X35435714Y-40857200D01*
X35435714Y-40857200D02*
X35292857Y-40904819D01*
X35292857Y-40904819D02*
X35197619Y-40904819D01*
X35197619Y-40904819D02*
X35054762Y-40857200D01*
X35054762Y-40857200D02*
X34959524Y-40761961D01*
X34959524Y-40761961D02*
X34911905Y-40666723D01*
X34911905Y-40666723D02*
X34864286Y-40476247D01*
X34864286Y-40476247D02*
X34864286Y-40333390D01*
X34864286Y-40333390D02*
X34911905Y-40142914D01*
X34911905Y-40142914D02*
X34959524Y-40047676D01*
X34959524Y-40047676D02*
X35054762Y-39952438D01*
X35054762Y-39952438D02*
X35197619Y-39904819D01*
X35197619Y-39904819D02*
X35292857Y-39904819D01*
X35292857Y-39904819D02*
X35435714Y-39952438D01*
X35435714Y-39952438D02*
X35483333Y-40000057D01*
X36435714Y-40904819D02*
X35864286Y-40904819D01*
X36150000Y-40904819D02*
X36150000Y-39904819D01*
X36150000Y-39904819D02*
X36054762Y-40047676D01*
X36054762Y-40047676D02*
X35959524Y-40142914D01*
X35959524Y-40142914D02*
X35864286Y-40190533D01*
X58035057Y-91085238D02*
X57987438Y-91180476D01*
X57987438Y-91180476D02*
X57892200Y-91275714D01*
X57892200Y-91275714D02*
X57749342Y-91418571D01*
X57749342Y-91418571D02*
X57701723Y-91513809D01*
X57701723Y-91513809D02*
X57701723Y-91609047D01*
X57939819Y-91561428D02*
X57892200Y-91656666D01*
X57892200Y-91656666D02*
X57796961Y-91751904D01*
X57796961Y-91751904D02*
X57606485Y-91799523D01*
X57606485Y-91799523D02*
X57273152Y-91799523D01*
X57273152Y-91799523D02*
X57082676Y-91751904D01*
X57082676Y-91751904D02*
X56987438Y-91656666D01*
X56987438Y-91656666D02*
X56939819Y-91561428D01*
X56939819Y-91561428D02*
X56939819Y-91370952D01*
X56939819Y-91370952D02*
X56987438Y-91275714D01*
X56987438Y-91275714D02*
X57082676Y-91180476D01*
X57082676Y-91180476D02*
X57273152Y-91132857D01*
X57273152Y-91132857D02*
X57606485Y-91132857D01*
X57606485Y-91132857D02*
X57796961Y-91180476D01*
X57796961Y-91180476D02*
X57892200Y-91275714D01*
X57892200Y-91275714D02*
X57939819Y-91370952D01*
X57939819Y-91370952D02*
X57939819Y-91561428D01*
X57035057Y-90751904D02*
X56987438Y-90704285D01*
X56987438Y-90704285D02*
X56939819Y-90609047D01*
X56939819Y-90609047D02*
X56939819Y-90370952D01*
X56939819Y-90370952D02*
X56987438Y-90275714D01*
X56987438Y-90275714D02*
X57035057Y-90228095D01*
X57035057Y-90228095D02*
X57130295Y-90180476D01*
X57130295Y-90180476D02*
X57225533Y-90180476D01*
X57225533Y-90180476D02*
X57368390Y-90228095D01*
X57368390Y-90228095D02*
X57939819Y-90799523D01*
X57939819Y-90799523D02*
X57939819Y-90180476D01*
X35483333Y-42409580D02*
X35435714Y-42457200D01*
X35435714Y-42457200D02*
X35292857Y-42504819D01*
X35292857Y-42504819D02*
X35197619Y-42504819D01*
X35197619Y-42504819D02*
X35054762Y-42457200D01*
X35054762Y-42457200D02*
X34959524Y-42361961D01*
X34959524Y-42361961D02*
X34911905Y-42266723D01*
X34911905Y-42266723D02*
X34864286Y-42076247D01*
X34864286Y-42076247D02*
X34864286Y-41933390D01*
X34864286Y-41933390D02*
X34911905Y-41742914D01*
X34911905Y-41742914D02*
X34959524Y-41647676D01*
X34959524Y-41647676D02*
X35054762Y-41552438D01*
X35054762Y-41552438D02*
X35197619Y-41504819D01*
X35197619Y-41504819D02*
X35292857Y-41504819D01*
X35292857Y-41504819D02*
X35435714Y-41552438D01*
X35435714Y-41552438D02*
X35483333Y-41600057D01*
X35864286Y-41600057D02*
X35911905Y-41552438D01*
X35911905Y-41552438D02*
X36007143Y-41504819D01*
X36007143Y-41504819D02*
X36245238Y-41504819D01*
X36245238Y-41504819D02*
X36340476Y-41552438D01*
X36340476Y-41552438D02*
X36388095Y-41600057D01*
X36388095Y-41600057D02*
X36435714Y-41695295D01*
X36435714Y-41695295D02*
X36435714Y-41790533D01*
X36435714Y-41790533D02*
X36388095Y-41933390D01*
X36388095Y-41933390D02*
X35816667Y-42504819D01*
X35816667Y-42504819D02*
X36435714Y-42504819D01*
X28504819Y-50728333D02*
X29219104Y-50728333D01*
X29219104Y-50728333D02*
X29361961Y-50775952D01*
X29361961Y-50775952D02*
X29457200Y-50871190D01*
X29457200Y-50871190D02*
X29504819Y-51014047D01*
X29504819Y-51014047D02*
X29504819Y-51109285D01*
X28504819Y-49775952D02*
X28504819Y-50252142D01*
X28504819Y-50252142D02*
X28981009Y-50299761D01*
X28981009Y-50299761D02*
X28933390Y-50252142D01*
X28933390Y-50252142D02*
X28885771Y-50156904D01*
X28885771Y-50156904D02*
X28885771Y-49918809D01*
X28885771Y-49918809D02*
X28933390Y-49823571D01*
X28933390Y-49823571D02*
X28981009Y-49775952D01*
X28981009Y-49775952D02*
X29076247Y-49728333D01*
X29076247Y-49728333D02*
X29314342Y-49728333D01*
X29314342Y-49728333D02*
X29409580Y-49775952D01*
X29409580Y-49775952D02*
X29457200Y-49823571D01*
X29457200Y-49823571D02*
X29504819Y-49918809D01*
X29504819Y-49918809D02*
X29504819Y-50156904D01*
X29504819Y-50156904D02*
X29457200Y-50252142D01*
X29457200Y-50252142D02*
X29409580Y-50299761D01*
X28504819Y-70678333D02*
X29219104Y-70678333D01*
X29219104Y-70678333D02*
X29361961Y-70725952D01*
X29361961Y-70725952D02*
X29457200Y-70821190D01*
X29457200Y-70821190D02*
X29504819Y-70964047D01*
X29504819Y-70964047D02*
X29504819Y-71059285D01*
X28504819Y-70297380D02*
X28504819Y-69630714D01*
X28504819Y-69630714D02*
X29504819Y-70059285D01*
X45952142Y-92749819D02*
X45618809Y-92273628D01*
X45380714Y-92749819D02*
X45380714Y-91749819D01*
X45380714Y-91749819D02*
X45761666Y-91749819D01*
X45761666Y-91749819D02*
X45856904Y-91797438D01*
X45856904Y-91797438D02*
X45904523Y-91845057D01*
X45904523Y-91845057D02*
X45952142Y-91940295D01*
X45952142Y-91940295D02*
X45952142Y-92083152D01*
X45952142Y-92083152D02*
X45904523Y-92178390D01*
X45904523Y-92178390D02*
X45856904Y-92226009D01*
X45856904Y-92226009D02*
X45761666Y-92273628D01*
X45761666Y-92273628D02*
X45380714Y-92273628D01*
X46904523Y-92749819D02*
X46333095Y-92749819D01*
X46618809Y-92749819D02*
X46618809Y-91749819D01*
X46618809Y-91749819D02*
X46523571Y-91892676D01*
X46523571Y-91892676D02*
X46428333Y-91987914D01*
X46428333Y-91987914D02*
X46333095Y-92035533D01*
X47285476Y-91845057D02*
X47333095Y-91797438D01*
X47333095Y-91797438D02*
X47428333Y-91749819D01*
X47428333Y-91749819D02*
X47666428Y-91749819D01*
X47666428Y-91749819D02*
X47761666Y-91797438D01*
X47761666Y-91797438D02*
X47809285Y-91845057D01*
X47809285Y-91845057D02*
X47856904Y-91940295D01*
X47856904Y-91940295D02*
X47856904Y-92035533D01*
X47856904Y-92035533D02*
X47809285Y-92178390D01*
X47809285Y-92178390D02*
X47237857Y-92749819D01*
X47237857Y-92749819D02*
X47856904Y-92749819D01*
X45454761Y-98300057D02*
X45359523Y-98252438D01*
X45359523Y-98252438D02*
X45264285Y-98157200D01*
X45264285Y-98157200D02*
X45121428Y-98014342D01*
X45121428Y-98014342D02*
X45026190Y-97966723D01*
X45026190Y-97966723D02*
X44930952Y-97966723D01*
X44978571Y-98204819D02*
X44883333Y-98157200D01*
X44883333Y-98157200D02*
X44788095Y-98061961D01*
X44788095Y-98061961D02*
X44740476Y-97871485D01*
X44740476Y-97871485D02*
X44740476Y-97538152D01*
X44740476Y-97538152D02*
X44788095Y-97347676D01*
X44788095Y-97347676D02*
X44883333Y-97252438D01*
X44883333Y-97252438D02*
X44978571Y-97204819D01*
X44978571Y-97204819D02*
X45169047Y-97204819D01*
X45169047Y-97204819D02*
X45264285Y-97252438D01*
X45264285Y-97252438D02*
X45359523Y-97347676D01*
X45359523Y-97347676D02*
X45407142Y-97538152D01*
X45407142Y-97538152D02*
X45407142Y-97871485D01*
X45407142Y-97871485D02*
X45359523Y-98061961D01*
X45359523Y-98061961D02*
X45264285Y-98157200D01*
X45264285Y-98157200D02*
X45169047Y-98204819D01*
X45169047Y-98204819D02*
X44978571Y-98204819D01*
X45740476Y-97204819D02*
X46359523Y-97204819D01*
X46359523Y-97204819D02*
X46026190Y-97585771D01*
X46026190Y-97585771D02*
X46169047Y-97585771D01*
X46169047Y-97585771D02*
X46264285Y-97633390D01*
X46264285Y-97633390D02*
X46311904Y-97681009D01*
X46311904Y-97681009D02*
X46359523Y-97776247D01*
X46359523Y-97776247D02*
X46359523Y-98014342D01*
X46359523Y-98014342D02*
X46311904Y-98109580D01*
X46311904Y-98109580D02*
X46264285Y-98157200D01*
X46264285Y-98157200D02*
X46169047Y-98204819D01*
X46169047Y-98204819D02*
X45883333Y-98204819D01*
X45883333Y-98204819D02*
X45788095Y-98157200D01*
X45788095Y-98157200D02*
X45740476Y-98109580D01*
X28564819Y-93278333D02*
X29279104Y-93278333D01*
X29279104Y-93278333D02*
X29421961Y-93325952D01*
X29421961Y-93325952D02*
X29517200Y-93421190D01*
X29517200Y-93421190D02*
X29564819Y-93564047D01*
X29564819Y-93564047D02*
X29564819Y-93659285D01*
X29564819Y-92754523D02*
X29564819Y-92564047D01*
X29564819Y-92564047D02*
X29517200Y-92468809D01*
X29517200Y-92468809D02*
X29469580Y-92421190D01*
X29469580Y-92421190D02*
X29326723Y-92325952D01*
X29326723Y-92325952D02*
X29136247Y-92278333D01*
X29136247Y-92278333D02*
X28755295Y-92278333D01*
X28755295Y-92278333D02*
X28660057Y-92325952D01*
X28660057Y-92325952D02*
X28612438Y-92373571D01*
X28612438Y-92373571D02*
X28564819Y-92468809D01*
X28564819Y-92468809D02*
X28564819Y-92659285D01*
X28564819Y-92659285D02*
X28612438Y-92754523D01*
X28612438Y-92754523D02*
X28660057Y-92802142D01*
X28660057Y-92802142D02*
X28755295Y-92849761D01*
X28755295Y-92849761D02*
X28993390Y-92849761D01*
X28993390Y-92849761D02*
X29088628Y-92802142D01*
X29088628Y-92802142D02*
X29136247Y-92754523D01*
X29136247Y-92754523D02*
X29183866Y-92659285D01*
X29183866Y-92659285D02*
X29183866Y-92468809D01*
X29183866Y-92468809D02*
X29136247Y-92373571D01*
X29136247Y-92373571D02*
X29088628Y-92325952D01*
X29088628Y-92325952D02*
X28993390Y-92278333D01*
X48807142Y-98509580D02*
X48759523Y-98557200D01*
X48759523Y-98557200D02*
X48616666Y-98604819D01*
X48616666Y-98604819D02*
X48521428Y-98604819D01*
X48521428Y-98604819D02*
X48378571Y-98557200D01*
X48378571Y-98557200D02*
X48283333Y-98461961D01*
X48283333Y-98461961D02*
X48235714Y-98366723D01*
X48235714Y-98366723D02*
X48188095Y-98176247D01*
X48188095Y-98176247D02*
X48188095Y-98033390D01*
X48188095Y-98033390D02*
X48235714Y-97842914D01*
X48235714Y-97842914D02*
X48283333Y-97747676D01*
X48283333Y-97747676D02*
X48378571Y-97652438D01*
X48378571Y-97652438D02*
X48521428Y-97604819D01*
X48521428Y-97604819D02*
X48616666Y-97604819D01*
X48616666Y-97604819D02*
X48759523Y-97652438D01*
X48759523Y-97652438D02*
X48807142Y-97700057D01*
X49759523Y-98604819D02*
X49188095Y-98604819D01*
X49473809Y-98604819D02*
X49473809Y-97604819D01*
X49473809Y-97604819D02*
X49378571Y-97747676D01*
X49378571Y-97747676D02*
X49283333Y-97842914D01*
X49283333Y-97842914D02*
X49188095Y-97890533D01*
X50616666Y-97938152D02*
X50616666Y-98604819D01*
X50378571Y-97557200D02*
X50140476Y-98271485D01*
X50140476Y-98271485D02*
X50759523Y-98271485D01*
X38957142Y-88259580D02*
X38909523Y-88307200D01*
X38909523Y-88307200D02*
X38766666Y-88354819D01*
X38766666Y-88354819D02*
X38671428Y-88354819D01*
X38671428Y-88354819D02*
X38528571Y-88307200D01*
X38528571Y-88307200D02*
X38433333Y-88211961D01*
X38433333Y-88211961D02*
X38385714Y-88116723D01*
X38385714Y-88116723D02*
X38338095Y-87926247D01*
X38338095Y-87926247D02*
X38338095Y-87783390D01*
X38338095Y-87783390D02*
X38385714Y-87592914D01*
X38385714Y-87592914D02*
X38433333Y-87497676D01*
X38433333Y-87497676D02*
X38528571Y-87402438D01*
X38528571Y-87402438D02*
X38671428Y-87354819D01*
X38671428Y-87354819D02*
X38766666Y-87354819D01*
X38766666Y-87354819D02*
X38909523Y-87402438D01*
X38909523Y-87402438D02*
X38957142Y-87450057D01*
X39909523Y-88354819D02*
X39338095Y-88354819D01*
X39623809Y-88354819D02*
X39623809Y-87354819D01*
X39623809Y-87354819D02*
X39528571Y-87497676D01*
X39528571Y-87497676D02*
X39433333Y-87592914D01*
X39433333Y-87592914D02*
X39338095Y-87640533D01*
X40290476Y-87450057D02*
X40338095Y-87402438D01*
X40338095Y-87402438D02*
X40433333Y-87354819D01*
X40433333Y-87354819D02*
X40671428Y-87354819D01*
X40671428Y-87354819D02*
X40766666Y-87402438D01*
X40766666Y-87402438D02*
X40814285Y-87450057D01*
X40814285Y-87450057D02*
X40861904Y-87545295D01*
X40861904Y-87545295D02*
X40861904Y-87640533D01*
X40861904Y-87640533D02*
X40814285Y-87783390D01*
X40814285Y-87783390D02*
X40242857Y-88354819D01*
X40242857Y-88354819D02*
X40861904Y-88354819D01*
X54411905Y-110404819D02*
X54411905Y-109404819D01*
X54411905Y-109404819D02*
X54650000Y-109404819D01*
X54650000Y-109404819D02*
X54792857Y-109452438D01*
X54792857Y-109452438D02*
X54888095Y-109547676D01*
X54888095Y-109547676D02*
X54935714Y-109642914D01*
X54935714Y-109642914D02*
X54983333Y-109833390D01*
X54983333Y-109833390D02*
X54983333Y-109976247D01*
X54983333Y-109976247D02*
X54935714Y-110166723D01*
X54935714Y-110166723D02*
X54888095Y-110261961D01*
X54888095Y-110261961D02*
X54792857Y-110357200D01*
X54792857Y-110357200D02*
X54650000Y-110404819D01*
X54650000Y-110404819D02*
X54411905Y-110404819D01*
X55364286Y-109500057D02*
X55411905Y-109452438D01*
X55411905Y-109452438D02*
X55507143Y-109404819D01*
X55507143Y-109404819D02*
X55745238Y-109404819D01*
X55745238Y-109404819D02*
X55840476Y-109452438D01*
X55840476Y-109452438D02*
X55888095Y-109500057D01*
X55888095Y-109500057D02*
X55935714Y-109595295D01*
X55935714Y-109595295D02*
X55935714Y-109690533D01*
X55935714Y-109690533D02*
X55888095Y-109833390D01*
X55888095Y-109833390D02*
X55316667Y-110404819D01*
X55316667Y-110404819D02*
X55935714Y-110404819D01*
X50804819Y-103086904D02*
X49804819Y-103086904D01*
X50804819Y-102515476D02*
X50233390Y-102944047D01*
X49804819Y-102515476D02*
X50376247Y-103086904D01*
X49239819Y-91591904D02*
X50049342Y-91591904D01*
X50049342Y-91591904D02*
X50144580Y-91544285D01*
X50144580Y-91544285D02*
X50192200Y-91496666D01*
X50192200Y-91496666D02*
X50239819Y-91401428D01*
X50239819Y-91401428D02*
X50239819Y-91210952D01*
X50239819Y-91210952D02*
X50192200Y-91115714D01*
X50192200Y-91115714D02*
X50144580Y-91068095D01*
X50144580Y-91068095D02*
X50049342Y-91020476D01*
X50049342Y-91020476D02*
X49239819Y-91020476D01*
X49239819Y-90639523D02*
X49239819Y-90020476D01*
X49239819Y-90020476D02*
X49620771Y-90353809D01*
X49620771Y-90353809D02*
X49620771Y-90210952D01*
X49620771Y-90210952D02*
X49668390Y-90115714D01*
X49668390Y-90115714D02*
X49716009Y-90068095D01*
X49716009Y-90068095D02*
X49811247Y-90020476D01*
X49811247Y-90020476D02*
X50049342Y-90020476D01*
X50049342Y-90020476D02*
X50144580Y-90068095D01*
X50144580Y-90068095D02*
X50192200Y-90115714D01*
X50192200Y-90115714D02*
X50239819Y-90210952D01*
X50239819Y-90210952D02*
X50239819Y-90496666D01*
X50239819Y-90496666D02*
X50192200Y-90591904D01*
X50192200Y-90591904D02*
X50144580Y-90639523D01*
X64716666Y-28604819D02*
X64716666Y-29319104D01*
X64716666Y-29319104D02*
X64669047Y-29461961D01*
X64669047Y-29461961D02*
X64573809Y-29557200D01*
X64573809Y-29557200D02*
X64430952Y-29604819D01*
X64430952Y-29604819D02*
X64335714Y-29604819D01*
X65097619Y-28604819D02*
X65716666Y-28604819D01*
X65716666Y-28604819D02*
X65383333Y-28985771D01*
X65383333Y-28985771D02*
X65526190Y-28985771D01*
X65526190Y-28985771D02*
X65621428Y-29033390D01*
X65621428Y-29033390D02*
X65669047Y-29081009D01*
X65669047Y-29081009D02*
X65716666Y-29176247D01*
X65716666Y-29176247D02*
X65716666Y-29414342D01*
X65716666Y-29414342D02*
X65669047Y-29509580D01*
X65669047Y-29509580D02*
X65621428Y-29557200D01*
X65621428Y-29557200D02*
X65526190Y-29604819D01*
X65526190Y-29604819D02*
X65240476Y-29604819D01*
X65240476Y-29604819D02*
X65145238Y-29557200D01*
X65145238Y-29557200D02*
X65097619Y-29509580D01*
D14*
%TO.C,G\u002A\u002A\u002A*%
G36*
X41982607Y-55245109D02*
G01*
X42064741Y-55247414D01*
X42121152Y-55250866D01*
X42158382Y-55256232D01*
X42182561Y-55265063D01*
X42200597Y-55278877D01*
X42215951Y-55295765D01*
X42247799Y-55352561D01*
X42255090Y-55414735D01*
X42238208Y-55471542D01*
X42217476Y-55497632D01*
X42197910Y-55513362D01*
X42174112Y-55523724D01*
X42139579Y-55529484D01*
X42086618Y-55532174D01*
X42009086Y-55532936D01*
X42003336Y-55532936D01*
X41852509Y-55539848D01*
X41721260Y-55563261D01*
X41599985Y-55605856D01*
X41479485Y-55670709D01*
X41392366Y-55729819D01*
X41327886Y-55765887D01*
X41274164Y-55772415D01*
X41228489Y-55749772D01*
X41221582Y-55743252D01*
X41181672Y-55684916D01*
X41172844Y-55622360D01*
X41194719Y-55557119D01*
X41246149Y-55489953D01*
X41326740Y-55423184D01*
X41401187Y-55375971D01*
X41531681Y-55312650D01*
X41665614Y-55270823D01*
X41811065Y-55248940D01*
X41975700Y-55244724D01*
X41982607Y-55245109D01*
G37*
G36*
X44500178Y-55247025D02*
G01*
X44647934Y-55265835D01*
X44796065Y-55304208D01*
X44936148Y-55358322D01*
X45061256Y-55425482D01*
X45163727Y-55502617D01*
X45180231Y-55518357D01*
X45218993Y-55561723D01*
X45237793Y-55598182D01*
X45243167Y-55641550D01*
X45243167Y-55646917D01*
X45230885Y-55711011D01*
X45197882Y-55758984D01*
X45150684Y-55785467D01*
X45095797Y-55786996D01*
X45058188Y-55772028D01*
X45027102Y-55751693D01*
X44982964Y-55720222D01*
X44956495Y-55700267D01*
X44849794Y-55634643D01*
X44724684Y-55583213D01*
X44591517Y-55549438D01*
X44461804Y-55535621D01*
X44398861Y-55537537D01*
X44319422Y-55540231D01*
X44264150Y-55529484D01*
X44225395Y-55503010D01*
X44198151Y-55460789D01*
X44181643Y-55420875D01*
X44180490Y-55390944D01*
X44195077Y-55353327D01*
X44198529Y-55346426D01*
X44229231Y-55299985D01*
X44272597Y-55268515D01*
X44333237Y-55250483D01*
X44416511Y-55244334D01*
X44500178Y-55247025D01*
G37*
G36*
X44582687Y-55872581D02*
G01*
X44673260Y-55897523D01*
X44682856Y-55901363D01*
X44782639Y-55962379D01*
X44862849Y-56044902D01*
X44921560Y-56143911D01*
X44956495Y-56254432D01*
X44966085Y-56370335D01*
X44947660Y-56486617D01*
X44930388Y-56535746D01*
X44872058Y-56649347D01*
X44800291Y-56734536D01*
X44712790Y-56792875D01*
X44607253Y-56826263D01*
X44516295Y-56836235D01*
X44444528Y-56837013D01*
X44390811Y-56830479D01*
X44342065Y-56815131D01*
X44314434Y-56802852D01*
X44213109Y-56738759D01*
X44134826Y-56656635D01*
X44079176Y-56560305D01*
X44046555Y-56455145D01*
X44036576Y-56345392D01*
X44049243Y-56235630D01*
X44057304Y-56212608D01*
X44224627Y-56212608D01*
X44241516Y-56268252D01*
X44272597Y-56309319D01*
X44328241Y-56348460D01*
X44385043Y-56354983D01*
X44442610Y-56329280D01*
X44466028Y-56309701D01*
X44507472Y-56254432D01*
X44517833Y-56196870D01*
X44497496Y-56141607D01*
X44466410Y-56107834D01*
X44408076Y-56074061D01*
X44350887Y-56067542D01*
X44299080Y-56082504D01*
X44258012Y-56114747D01*
X44231540Y-56160029D01*
X44224627Y-56212608D01*
X44057304Y-56212608D01*
X44085318Y-56130479D01*
X44144423Y-56034917D01*
X44226160Y-55953170D01*
X44305985Y-55902128D01*
X44386965Y-55875264D01*
X44482909Y-55865286D01*
X44582687Y-55872581D01*
G37*
G36*
X42004109Y-55868745D02*
G01*
X42063209Y-55879105D01*
X42112706Y-55897523D01*
X42119620Y-55900980D01*
X42225925Y-55970058D01*
X42304990Y-56055645D01*
X42359096Y-56159646D01*
X42384042Y-56248295D01*
X42391716Y-56363810D01*
X42370995Y-56478179D01*
X42324942Y-56586403D01*
X42257014Y-56681966D01*
X42170660Y-56759487D01*
X42068581Y-56812827D01*
X42067426Y-56813213D01*
X41970709Y-56835851D01*
X41870168Y-56838921D01*
X41777297Y-56822808D01*
X41743910Y-56810148D01*
X41642588Y-56747973D01*
X41561602Y-56665464D01*
X41502118Y-56567213D01*
X41464899Y-56459374D01*
X41451084Y-56346154D01*
X41462209Y-56232947D01*
X41466437Y-56221050D01*
X41641814Y-56221050D01*
X41663700Y-56278998D01*
X41688257Y-56309319D01*
X41741599Y-56347311D01*
X41794947Y-56353071D01*
X41850595Y-56326967D01*
X41864024Y-56316607D01*
X41910078Y-56262492D01*
X41924279Y-56204927D01*
X41907774Y-56146983D01*
X41867099Y-56094399D01*
X41811065Y-56069075D01*
X41773456Y-56065999D01*
X41712429Y-56079051D01*
X41668299Y-56114354D01*
X41644115Y-56163867D01*
X41641814Y-56221050D01*
X41466437Y-56221050D01*
X41499054Y-56125110D01*
X41563149Y-56027244D01*
X41570439Y-56018415D01*
X41649493Y-55943967D01*
X41731239Y-55895991D01*
X41824880Y-55871428D01*
X41923898Y-55865667D01*
X42004109Y-55868745D01*
G37*
G36*
X44080328Y-57192382D02*
G01*
X44123315Y-57222703D01*
X44159005Y-57261076D01*
X44176656Y-57298689D01*
X44177037Y-57304830D01*
X44165522Y-57351650D01*
X44134439Y-57411903D01*
X44088000Y-57479063D01*
X44034273Y-57541242D01*
X43904552Y-57654450D01*
X43754888Y-57747322D01*
X43591396Y-57818322D01*
X43419464Y-57865522D01*
X43245614Y-57886252D01*
X43075217Y-57879346D01*
X43042601Y-57874357D01*
X42915568Y-57843269D01*
X42783937Y-57793377D01*
X42654217Y-57728514D01*
X42533327Y-57652909D01*
X42427409Y-57570409D01*
X42342589Y-57484820D01*
X42302677Y-57429174D01*
X42273513Y-57360859D01*
X42269680Y-57296005D01*
X42289247Y-57240738D01*
X42331079Y-57201599D01*
X42362936Y-57189319D01*
X42393634Y-57186628D01*
X42426254Y-57196994D01*
X42466166Y-57222703D01*
X42517983Y-57267607D01*
X42578229Y-57326325D01*
X42654604Y-57390799D01*
X42749007Y-57452971D01*
X42851868Y-57507844D01*
X42953188Y-57550072D01*
X43043365Y-57574624D01*
X43054497Y-57576156D01*
X43227959Y-57588439D01*
X43386844Y-57573477D01*
X43534983Y-57530495D01*
X43675825Y-57457572D01*
X43812840Y-57353953D01*
X43857356Y-57313657D01*
X43926433Y-57250338D01*
X43978242Y-57208884D01*
X44015851Y-57186245D01*
X44040411Y-57180489D01*
X44080328Y-57192382D01*
G37*
G36*
X43408718Y-54281449D02*
G01*
X43605984Y-54282218D01*
X43779832Y-54284136D01*
X43935259Y-54286435D01*
X44076485Y-54290269D01*
X44208124Y-54295647D01*
X44334774Y-54302555D01*
X44461417Y-54310993D01*
X44591517Y-54321744D01*
X44730440Y-54334406D01*
X44882804Y-54349376D01*
X44942676Y-54355517D01*
X45106933Y-54373936D01*
X45243167Y-54393124D01*
X45355995Y-54414618D01*
X45450021Y-54439562D01*
X45529468Y-54470263D01*
X45598928Y-54507490D01*
X45662633Y-54553158D01*
X45725192Y-54608805D01*
X45744765Y-54627995D01*
X45819983Y-54709363D01*
X45879082Y-54792251D01*
X45925142Y-54882060D01*
X45960060Y-54984909D01*
X45986536Y-55106568D01*
X46006879Y-55252782D01*
X46011488Y-55298841D01*
X46062146Y-55963148D01*
X46080562Y-56624009D01*
X46067897Y-57280273D01*
X46025301Y-57914268D01*
X46008414Y-58067007D01*
X45987305Y-58193271D01*
X45960444Y-58298043D01*
X45925522Y-58387460D01*
X45881008Y-58466517D01*
X45824205Y-58540589D01*
X45788893Y-58579728D01*
X45682589Y-58676829D01*
X45567841Y-58750125D01*
X45436977Y-58803094D01*
X45284615Y-58839170D01*
X45266578Y-58842232D01*
X45199800Y-58851065D01*
X45105770Y-58861425D01*
X44989105Y-58872173D01*
X44854399Y-58883690D01*
X44706650Y-58895194D01*
X44550838Y-58905946D01*
X44391955Y-58916312D01*
X44234221Y-58925514D01*
X44233454Y-58925514D01*
X44149023Y-58929357D01*
X44040801Y-58932806D01*
X43914156Y-58936653D01*
X43772930Y-58939716D01*
X43622106Y-58942778D01*
X43466289Y-58945472D01*
X43309711Y-58947387D01*
X43156581Y-58949311D01*
X43012277Y-58950462D01*
X42880261Y-58950837D01*
X42766281Y-58950837D01*
X42673784Y-58949688D01*
X42607785Y-58948159D01*
X42593966Y-58947772D01*
X42546762Y-58945087D01*
X42473847Y-58941630D01*
X42381351Y-58937025D01*
X42275434Y-58932037D01*
X42162988Y-58926664D01*
X42118853Y-58924751D01*
X41912765Y-58914382D01*
X41720110Y-58902870D01*
X41543570Y-58890207D01*
X41386991Y-58877156D01*
X41253057Y-58863727D01*
X41144827Y-58850290D01*
X41065385Y-58836863D01*
X41056177Y-58834943D01*
X40899210Y-58784672D01*
X40758750Y-58710223D01*
X40637867Y-58612737D01*
X40539619Y-58495690D01*
X40465547Y-58361360D01*
X40423335Y-58229730D01*
X40409897Y-58154125D01*
X40396852Y-58050507D01*
X40384952Y-57921941D01*
X40374212Y-57772266D01*
X40363850Y-57606098D01*
X40355404Y-57427255D01*
X40347722Y-57238821D01*
X40341589Y-57045396D01*
X40336986Y-56850440D01*
X40335831Y-56775991D01*
X40617525Y-56775991D01*
X40629035Y-57201599D01*
X40654359Y-57645626D01*
X40663191Y-57761904D01*
X40674701Y-57905053D01*
X40686214Y-58020571D01*
X40699267Y-58112675D01*
X40713848Y-58186362D01*
X40732274Y-58245852D01*
X40755674Y-58295355D01*
X40784848Y-58340260D01*
X40821303Y-58384393D01*
X40836273Y-58401273D01*
X40869664Y-58433896D01*
X40906894Y-58461910D01*
X40951015Y-58486090D01*
X41004749Y-58507199D01*
X41071143Y-58525620D01*
X41152891Y-58541733D01*
X41253057Y-58556323D01*
X41373945Y-58570135D01*
X41519015Y-58583189D01*
X41690944Y-58596626D01*
X41875156Y-58609663D01*
X41993354Y-58617340D01*
X42096210Y-58624256D01*
X42188693Y-58629624D01*
X42274281Y-58634228D01*
X42356792Y-58637681D01*
X42440844Y-58640373D01*
X42530254Y-58641902D01*
X42628504Y-58643054D01*
X42740571Y-58643442D01*
X42869521Y-58643442D01*
X43019574Y-58642676D01*
X43195342Y-58641902D01*
X43345396Y-58640752D01*
X43565684Y-58639219D01*
X43758344Y-58636916D01*
X43927199Y-58633847D01*
X44077256Y-58630388D01*
X44212345Y-58625402D01*
X44337077Y-58619643D01*
X44455666Y-58612737D01*
X44572711Y-58604301D01*
X44580771Y-58603528D01*
X44768439Y-58588564D01*
X44926552Y-58575126D01*
X45058955Y-58562462D01*
X45168333Y-58549794D01*
X45257748Y-58536748D01*
X45330662Y-58522161D01*
X45389381Y-58506429D01*
X45438122Y-58488008D01*
X45478805Y-58466517D01*
X45515647Y-58441188D01*
X45550953Y-58411639D01*
X45560166Y-58403193D01*
X45596624Y-58367890D01*
X45627328Y-58331431D01*
X45653431Y-58290366D01*
X45675299Y-58242391D01*
X45693720Y-58183677D01*
X45709455Y-58111525D01*
X45722885Y-58022873D01*
X45734781Y-57913887D01*
X45745913Y-57782248D01*
X45757045Y-57624136D01*
X45767786Y-57446830D01*
X45783910Y-57097210D01*
X45790045Y-56733773D01*
X45786976Y-56366114D01*
X45775074Y-56002677D01*
X45753974Y-55651910D01*
X45724427Y-55322632D01*
X45720584Y-55286171D01*
X45695637Y-55130363D01*
X45658411Y-55002174D01*
X45606216Y-54898946D01*
X45537141Y-54817969D01*
X45449648Y-54756177D01*
X45341799Y-54710895D01*
X45303806Y-54699754D01*
X45258517Y-54690937D01*
X45184833Y-54680574D01*
X45086969Y-54669447D01*
X44969536Y-54657545D01*
X44836365Y-54645268D01*
X44691683Y-54633369D01*
X44539708Y-54621858D01*
X44384279Y-54611104D01*
X44229615Y-54601517D01*
X44142112Y-54596525D01*
X43940633Y-54588086D01*
X43721880Y-54582333D01*
X43489695Y-54578878D01*
X43247917Y-54578488D01*
X43000387Y-54580405D01*
X42751315Y-54585015D01*
X42504166Y-54591539D01*
X42263148Y-54599983D01*
X42031736Y-54610725D01*
X41814130Y-54623386D01*
X41614189Y-54637592D01*
X41435731Y-54653327D01*
X41282987Y-54670982D01*
X41183978Y-54685563D01*
X41072682Y-54709363D01*
X40985183Y-54740445D01*
X40912644Y-54783422D01*
X40851629Y-54836390D01*
X40811320Y-54880135D01*
X40778327Y-54925047D01*
X40751455Y-54975692D01*
X40729583Y-55036331D01*
X40711547Y-55110789D01*
X40696194Y-55203279D01*
X40682380Y-55318406D01*
X40668944Y-55459639D01*
X40663962Y-55516823D01*
X40634789Y-55942428D01*
X40619441Y-56358825D01*
X40617525Y-56775991D01*
X40335831Y-56775991D01*
X40334293Y-56657789D01*
X40333140Y-56471653D01*
X40333906Y-56295504D01*
X40336986Y-56133547D01*
X40341969Y-55989247D01*
X40346569Y-55904437D01*
X40359625Y-55711779D01*
X40371141Y-55547901D01*
X40381500Y-55410135D01*
X40391096Y-55295765D01*
X40401072Y-55200970D01*
X40410662Y-55122681D01*
X40421414Y-55058209D01*
X40433310Y-55004477D01*
X40446354Y-54958048D01*
X40461709Y-54916204D01*
X40479361Y-54875147D01*
X40493947Y-54844827D01*
X40578760Y-54705135D01*
X40683913Y-54590010D01*
X40808641Y-54500584D01*
X40953327Y-54437262D01*
X41052340Y-54410773D01*
X41143677Y-54394657D01*
X41266104Y-54377397D01*
X41419229Y-54359349D01*
X41601902Y-54340933D01*
X41812980Y-54321360D01*
X41951530Y-54309855D01*
X42040942Y-54302933D01*
X42133054Y-54297183D01*
X42230917Y-54292576D01*
X42338751Y-54288737D01*
X42460029Y-54286049D01*
X42598186Y-54283752D01*
X42757460Y-54282218D01*
X42940899Y-54281449D01*
X43152743Y-54281060D01*
X43183449Y-54281060D01*
X43408718Y-54281449D01*
G37*
G36*
X43000000Y-59947505D02*
G01*
X43242930Y-59947505D01*
X45306876Y-59950581D01*
X45348325Y-59992025D01*
X45379794Y-60037698D01*
X45398596Y-60090277D01*
X45398596Y-60090657D01*
X45400905Y-60133258D01*
X45387080Y-60168180D01*
X45360603Y-60201184D01*
X45313397Y-60254146D01*
X43214913Y-60259900D01*
X42916335Y-60260667D01*
X42635418Y-60261054D01*
X42373675Y-60261054D01*
X42132285Y-60261054D01*
X41912383Y-60260667D01*
X41715506Y-60259900D01*
X41542808Y-60259135D01*
X41395434Y-60257987D01*
X41274931Y-60256834D01*
X41182060Y-60255292D01*
X41118732Y-60253376D01*
X41085730Y-60251456D01*
X41081504Y-60250696D01*
X41032766Y-60213081D01*
X41002448Y-60154746D01*
X40994773Y-60102174D01*
X41008206Y-60035774D01*
X41047733Y-59987801D01*
X41112595Y-59959400D01*
X41115280Y-59959017D01*
X41139453Y-59957102D01*
X41193952Y-59955187D01*
X41276847Y-59954031D01*
X41386608Y-59952494D01*
X41521313Y-59950965D01*
X41679042Y-59950196D01*
X41857499Y-59949047D01*
X42055146Y-59948276D01*
X42270058Y-59947886D01*
X42500329Y-59947505D01*
X42744410Y-59947125D01*
X43000000Y-59947505D01*
G37*
G36*
X44737737Y-60595710D02*
G01*
X44865527Y-60596478D01*
X44974144Y-60598011D01*
X45065478Y-60599922D01*
X45140700Y-60602993D01*
X45201713Y-60606454D01*
X45250072Y-60610674D01*
X45287683Y-60616040D01*
X45315702Y-60622182D01*
X45336038Y-60629478D01*
X45350239Y-60637923D01*
X45359836Y-60647129D01*
X45366743Y-60657877D01*
X45372500Y-60669780D01*
X45379030Y-60682819D01*
X45379409Y-60683593D01*
X45400513Y-60735408D01*
X45400905Y-60779152D01*
X45385165Y-60823278D01*
X45380176Y-60835949D01*
X45375187Y-60847463D01*
X45369430Y-60857435D01*
X45360603Y-60866654D01*
X45347555Y-60874328D01*
X45328362Y-60881616D01*
X45301502Y-60887375D01*
X45265426Y-60892747D01*
X45218222Y-60896966D01*
X45158357Y-60900804D01*
X45084672Y-60903879D01*
X44994485Y-60906180D01*
X44887022Y-60908092D01*
X44760379Y-60909628D01*
X44613009Y-60910404D01*
X44442995Y-60911170D01*
X44249188Y-60911554D01*
X44029291Y-60911554D01*
X43782131Y-60911554D01*
X43506202Y-60911554D01*
X43199563Y-60911554D01*
X43196493Y-60911554D01*
X42880645Y-60911554D01*
X42595504Y-60911170D01*
X42339906Y-60910786D01*
X42112328Y-60910404D01*
X41911617Y-60909628D01*
X41736608Y-60908480D01*
X41585400Y-60907329D01*
X41456835Y-60906180D01*
X41349381Y-60904642D01*
X41261880Y-60903115D01*
X41192801Y-60901188D01*
X41140992Y-60898889D01*
X41104916Y-60896198D01*
X41083043Y-60893130D01*
X41075744Y-60891215D01*
X41042361Y-60863580D01*
X41011275Y-60820983D01*
X41006290Y-60811774D01*
X40988629Y-60769937D01*
X40987093Y-60737701D01*
X41000144Y-60697790D01*
X41000911Y-60696251D01*
X41024327Y-60654421D01*
X41050426Y-60626408D01*
X41054258Y-60624106D01*
X41074598Y-60621419D01*
X41126789Y-60619116D01*
X41209302Y-60616806D01*
X41320982Y-60614512D01*
X41461445Y-60612208D01*
X41629533Y-60610292D01*
X41824111Y-60608371D01*
X42044395Y-60606454D01*
X42289632Y-60604536D01*
X42558272Y-60602619D01*
X42850325Y-60601073D01*
X43163866Y-60599922D01*
X43166942Y-60599922D01*
X43475115Y-60598397D01*
X43752584Y-60597236D01*
X44001272Y-60596086D01*
X44222322Y-60595710D01*
X44417669Y-60595322D01*
X44588830Y-60595322D01*
X44737737Y-60595710D01*
G37*
G36*
X43680817Y-61243139D02*
G01*
X43920295Y-61243525D01*
X44147108Y-61244286D01*
X44359717Y-61245055D01*
X44555826Y-61245821D01*
X44733896Y-61246974D01*
X44891625Y-61248119D01*
X45027490Y-61249269D01*
X45139170Y-61250420D01*
X45224751Y-61251959D01*
X45282315Y-61253497D01*
X45309556Y-61255030D01*
X45311485Y-61255415D01*
X45354075Y-61281893D01*
X45387080Y-61329866D01*
X45403969Y-61388205D01*
X45404736Y-61403165D01*
X45393988Y-61440778D01*
X45367889Y-61484530D01*
X45357536Y-61496811D01*
X45310324Y-61549766D01*
X43221441Y-61551692D01*
X42963537Y-61552075D01*
X42714472Y-61552075D01*
X42476153Y-61552075D01*
X42249717Y-61551692D01*
X42038259Y-61551692D01*
X41842924Y-61551306D01*
X41666000Y-61550925D01*
X41509029Y-61550149D01*
X41374714Y-61549766D01*
X41264182Y-61549006D01*
X41180135Y-61548235D01*
X41123716Y-61547473D01*
X41097626Y-61546697D01*
X41096089Y-61546697D01*
X41048502Y-61522520D01*
X41014733Y-61477230D01*
X40997078Y-61420054D01*
X40997460Y-61359417D01*
X41017799Y-61304923D01*
X41036601Y-61281893D01*
X41078440Y-61242749D01*
X43173085Y-61242749D01*
X43430977Y-61242749D01*
X43680817Y-61243139D01*
G37*
G36*
X44850183Y-61922805D02*
G01*
X44893540Y-61972308D01*
X44912355Y-62030642D01*
X44908133Y-62090505D01*
X44880878Y-62143468D01*
X44832145Y-62181466D01*
X44818714Y-62186839D01*
X44793380Y-62189910D01*
X44738884Y-62192980D01*
X44657909Y-62195663D01*
X44552753Y-62197585D01*
X44426112Y-62199501D01*
X44281039Y-62201417D01*
X44120239Y-62202571D01*
X43946009Y-62203724D01*
X43761416Y-62204491D01*
X43568755Y-62204878D01*
X43371111Y-62205261D01*
X43171168Y-62204878D01*
X42971214Y-62204491D01*
X42774338Y-62204103D01*
X42583219Y-62202962D01*
X42400548Y-62201804D01*
X42228612Y-62200269D01*
X42070502Y-62198739D01*
X41928498Y-62196823D01*
X41806080Y-62194511D01*
X41705143Y-62191828D01*
X41628769Y-62189141D01*
X41579645Y-62186071D01*
X41560844Y-62182996D01*
X41510947Y-62141936D01*
X41485236Y-62086284D01*
X41484851Y-62023355D01*
X41511339Y-61961559D01*
X41526683Y-61941606D01*
X41573888Y-61889033D01*
X43189207Y-61889033D01*
X44804514Y-61889033D01*
X44850183Y-61922805D01*
G37*
G36*
X41614189Y-49895281D02*
G01*
X41724330Y-49942476D01*
X41822192Y-50011949D01*
X41902400Y-50099833D01*
X41959589Y-50203064D01*
X41972634Y-50241055D01*
X41977231Y-50259861D01*
X41982229Y-50285959D01*
X41987605Y-50320118D01*
X41992969Y-50364253D01*
X41999117Y-50419896D01*
X42006022Y-50488973D01*
X42013309Y-50572259D01*
X42021758Y-50672426D01*
X42031354Y-50790240D01*
X42041711Y-50927245D01*
X42053606Y-51085364D01*
X42066657Y-51266509D01*
X42081245Y-51471444D01*
X42097362Y-51702479D01*
X42115402Y-51960753D01*
X42135352Y-52247817D01*
X42157228Y-52565587D01*
X42158758Y-52585158D01*
X42168357Y-52722557D01*
X42178341Y-52863782D01*
X42187932Y-53001169D01*
X42197137Y-53127818D01*
X42205199Y-53236811D01*
X42211346Y-53320089D01*
X42230533Y-53570308D01*
X42283880Y-53570308D01*
X42312660Y-53568778D01*
X42331847Y-53558799D01*
X42347198Y-53534618D01*
X42349115Y-53530019D01*
X42659208Y-53530019D01*
X42662273Y-53536151D01*
X42673784Y-53541145D01*
X42696824Y-53545364D01*
X42733662Y-53548437D01*
X42787773Y-53550738D01*
X42861838Y-53552272D01*
X42958552Y-53553426D01*
X43080973Y-53554191D01*
X43231802Y-53554191D01*
X43288597Y-53554191D01*
X43458615Y-53554191D01*
X43598312Y-53553046D01*
X43710368Y-53551889D01*
X43795563Y-53549586D01*
X43856966Y-53546904D01*
X43896497Y-53543065D01*
X43915683Y-53538453D01*
X43918755Y-53535389D01*
X43905707Y-53487418D01*
X43864648Y-53445581D01*
X43848526Y-53434837D01*
X43798637Y-53414878D01*
X43722263Y-53398766D01*
X43625550Y-53386100D01*
X43513489Y-53376886D01*
X43392215Y-53371513D01*
X43266338Y-53369595D01*
X43141611Y-53371513D01*
X43023797Y-53376886D01*
X42918253Y-53386100D01*
X42830365Y-53399143D01*
X42765897Y-53416033D01*
X42739798Y-53428315D01*
X42686841Y-53472452D01*
X42661123Y-53516193D01*
X42659208Y-53530019D01*
X42349115Y-53530019D01*
X42364853Y-53488565D01*
X42373296Y-53463627D01*
X42423957Y-53347336D01*
X42489575Y-53257923D01*
X42561726Y-53198816D01*
X42583219Y-53184998D01*
X42599720Y-53171572D01*
X42612387Y-53154299D01*
X42622362Y-53128970D01*
X42630421Y-53091359D01*
X42631958Y-53080231D01*
X42924783Y-53080231D01*
X42925548Y-53094045D01*
X42942433Y-53096357D01*
X42986952Y-53098267D01*
X43054116Y-53100190D01*
X43140078Y-53101331D01*
X43239476Y-53102106D01*
X43291283Y-53102106D01*
X43652036Y-53102106D01*
X43647810Y-53029182D01*
X43643208Y-52954348D01*
X43636682Y-52864167D01*
X43629393Y-52763997D01*
X43621330Y-52659996D01*
X43613275Y-52557138D01*
X43604830Y-52461586D01*
X43597541Y-52378687D01*
X43591396Y-52314215D01*
X43586792Y-52273532D01*
X43585646Y-52264710D01*
X43564921Y-52225947D01*
X43525387Y-52188336D01*
X43480489Y-52162618D01*
X43454387Y-52157251D01*
X43446334Y-52164925D01*
X43440573Y-52191407D01*
X43436736Y-52239761D01*
X43434816Y-52313060D01*
X43434052Y-52415151D01*
X43434052Y-52422436D01*
X43434052Y-52688009D01*
X43387226Y-52721396D01*
X43324673Y-52750184D01*
X43265959Y-52748643D01*
X43216448Y-52718715D01*
X43181906Y-52662299D01*
X43176152Y-52645026D01*
X43170016Y-52606268D01*
X43164640Y-52543328D01*
X43161185Y-52465039D01*
X43159655Y-52379459D01*
X43159655Y-52371018D01*
X43158879Y-52283127D01*
X43156964Y-52222489D01*
X43153515Y-52184495D01*
X43146982Y-52164542D01*
X43137780Y-52157251D01*
X43134321Y-52157251D01*
X43090190Y-52167995D01*
X43043365Y-52194090D01*
X43008058Y-52227479D01*
X42999613Y-52242451D01*
X42993856Y-52266628D01*
X42987336Y-52311528D01*
X42979656Y-52379459D01*
X42970446Y-52472326D01*
X42960090Y-52591300D01*
X42947805Y-52739440D01*
X42934759Y-52908295D01*
X42929389Y-52980447D01*
X42925932Y-53040320D01*
X42924783Y-53080231D01*
X42631958Y-53080231D01*
X42637332Y-53037624D01*
X42644240Y-52963567D01*
X42651531Y-52864927D01*
X42659593Y-52754792D01*
X42671485Y-52588611D01*
X42682615Y-52451222D01*
X42693744Y-52339162D01*
X42705257Y-52249351D01*
X42718310Y-52177975D01*
X42733662Y-52121554D01*
X42751699Y-52077042D01*
X42773190Y-52040963D01*
X42799670Y-52009489D01*
X42831523Y-51979178D01*
X42841121Y-51971118D01*
X42917492Y-51915854D01*
X43000768Y-51877480D01*
X43097479Y-51854445D01*
X43215296Y-51844467D01*
X43264423Y-51843700D01*
X43399512Y-51848694D01*
X43511193Y-51866732D01*
X43608284Y-51899738D01*
X43697708Y-51948862D01*
X43707297Y-51955382D01*
X43744136Y-51981869D01*
X43775226Y-52008342D01*
X43800555Y-52038280D01*
X43821659Y-52074358D01*
X43838931Y-52120027D01*
X43853905Y-52178745D01*
X43866564Y-52253961D01*
X43878083Y-52348754D01*
X43889204Y-52465807D01*
X43901106Y-52609336D01*
X43912619Y-52762077D01*
X43922590Y-52890651D01*
X43931419Y-52990037D01*
X43939477Y-53064110D01*
X43947541Y-53116311D01*
X43955220Y-53149304D01*
X43963663Y-53166962D01*
X43966347Y-53170028D01*
X44037731Y-53231058D01*
X44089146Y-53278255D01*
X44124844Y-53316640D01*
X44150175Y-53351560D01*
X44167826Y-53383796D01*
X44192772Y-53440983D01*
X44211580Y-53498925D01*
X44215797Y-53518122D01*
X44225782Y-53557649D01*
X44242664Y-53574527D01*
X44278358Y-53578373D01*
X44287181Y-53578373D01*
X44347439Y-53578373D01*
X44349350Y-53556491D01*
X44375449Y-53255612D01*
X44386965Y-53133960D01*
X44399244Y-53028799D01*
X44411525Y-52945526D01*
X44423036Y-52887960D01*
X44429177Y-52868001D01*
X44471780Y-52796615D01*
X44537791Y-52726773D01*
X44619151Y-52665751D01*
X44707030Y-52620079D01*
X44736963Y-52609713D01*
X44824087Y-52590534D01*
X44930004Y-52579402D01*
X45043993Y-52575943D01*
X45154896Y-52580550D01*
X45251226Y-52593220D01*
X45292296Y-52602811D01*
X45409731Y-52652698D01*
X45505287Y-52724857D01*
X45576282Y-52816965D01*
X45622335Y-52928255D01*
X45627715Y-52951282D01*
X45634619Y-52993498D01*
X45643062Y-53061426D01*
X45652278Y-53149304D01*
X45661485Y-53250238D01*
X45670306Y-53358081D01*
X45672228Y-53384184D01*
X45680286Y-53487418D01*
X45687966Y-53579138D01*
X45695252Y-53655505D01*
X45701008Y-53710768D01*
X45705237Y-53741092D01*
X45706384Y-53744545D01*
X45723652Y-53756827D01*
X45763563Y-53778700D01*
X45818449Y-53805945D01*
X45846076Y-53818992D01*
X46030671Y-53922617D01*
X46197231Y-54051185D01*
X46344223Y-54202767D01*
X46468942Y-54374701D01*
X46570267Y-54564293D01*
X46645870Y-54769222D01*
X46688850Y-54955738D01*
X46709189Y-55095817D01*
X46727990Y-55263533D01*
X46744499Y-55454647D01*
X46759084Y-55664194D01*
X46770977Y-55887547D01*
X46780190Y-56120501D01*
X46786711Y-56358438D01*
X46789779Y-56596378D01*
X46789779Y-56830103D01*
X46787481Y-56984764D01*
X46780190Y-57268755D01*
X46769446Y-57529340D01*
X46754090Y-57773414D01*
X46734132Y-58010212D01*
X46708421Y-58247384D01*
X46675796Y-58492614D01*
X46636651Y-58754732D01*
X46623608Y-58836093D01*
X46593668Y-59023759D01*
X46567575Y-59197614D01*
X46544555Y-59361485D01*
X46525363Y-59518829D01*
X46508475Y-59673496D01*
X46494658Y-59828536D01*
X46483529Y-59988193D01*
X46474318Y-60155891D01*
X46467413Y-60335123D01*
X46462041Y-60529308D01*
X46458585Y-60742306D01*
X46456280Y-60977564D01*
X46455132Y-61238533D01*
X46454746Y-61463422D01*
X46454746Y-61674878D01*
X46454360Y-61856797D01*
X46453213Y-62012224D01*
X46451676Y-62143854D01*
X46448988Y-62254765D01*
X46445153Y-62347641D01*
X46440163Y-62425545D01*
X46433258Y-62490791D01*
X46425198Y-62547202D01*
X46414837Y-62596709D01*
X46402174Y-62642375D01*
X46387193Y-62687663D01*
X46369936Y-62734867D01*
X46361874Y-62755590D01*
X46282816Y-62919465D01*
X46177664Y-63069139D01*
X46099755Y-63154716D01*
X45950461Y-63284046D01*
X45781991Y-63388051D01*
X45598546Y-63464811D01*
X45481490Y-63497433D01*
X45461538Y-63501648D01*
X45439664Y-63505492D01*
X45414714Y-63508940D01*
X45384784Y-63512021D01*
X45348705Y-63514703D01*
X45303806Y-63517392D01*
X45249311Y-63519312D01*
X45182528Y-63520838D01*
X45102705Y-63522374D01*
X45007532Y-63523530D01*
X44895467Y-63524682D01*
X44764604Y-63525443D01*
X44613776Y-63525835D01*
X44441075Y-63526214D01*
X44244195Y-63526601D01*
X44021995Y-63526601D01*
X43772544Y-63526601D01*
X43494304Y-63526601D01*
X43185747Y-63526214D01*
X43183449Y-63526214D01*
X42920559Y-63525835D01*
X42665726Y-63525443D01*
X42420884Y-63524682D01*
X42188319Y-63524296D01*
X41969559Y-63523147D01*
X41766927Y-63522374D01*
X41582331Y-63520838D01*
X41417313Y-63519690D01*
X41274164Y-63518538D01*
X41154423Y-63517003D01*
X41060781Y-63515474D01*
X40994773Y-63513935D01*
X40957931Y-63512396D01*
X40952176Y-63511630D01*
X40764506Y-63458290D01*
X40586817Y-63376157D01*
X40423335Y-63268320D01*
X40276728Y-63137449D01*
X40151619Y-62986625D01*
X40051453Y-62818151D01*
X40040707Y-62795885D01*
X40022664Y-62757512D01*
X40006930Y-62722967D01*
X39993121Y-62690351D01*
X39981221Y-62656577D01*
X39971243Y-62620119D01*
X39963184Y-62577905D01*
X39956279Y-62527629D01*
X39950515Y-62466994D01*
X39945910Y-62393694D01*
X39942462Y-62305043D01*
X39939388Y-62199116D01*
X39936710Y-62072858D01*
X39934401Y-61923956D01*
X39932486Y-61750485D01*
X39930564Y-61549766D01*
X39928258Y-61319124D01*
X39927876Y-61299167D01*
X39925197Y-61037816D01*
X39922504Y-60805242D01*
X39919438Y-60599161D01*
X39915592Y-60416094D01*
X39911378Y-60252990D01*
X39906391Y-60106778D01*
X39900627Y-59974754D01*
X39893722Y-59853487D01*
X39885661Y-59740271D01*
X39876072Y-59631662D01*
X39864557Y-59524589D01*
X39851508Y-59416366D01*
X39836537Y-59303919D01*
X39819654Y-59183792D01*
X39806216Y-59094370D01*
X39794706Y-59015320D01*
X39780509Y-58915917D01*
X39765920Y-58809228D01*
X39752114Y-58707151D01*
X39750953Y-58699856D01*
X39737142Y-58603144D01*
X39725246Y-58533680D01*
X39712584Y-58487627D01*
X39697995Y-58459611D01*
X39678809Y-58445789D01*
X39653859Y-58440802D01*
X39642733Y-58440802D01*
X39594373Y-58430440D01*
X39531439Y-58404345D01*
X39463896Y-58367121D01*
X39401331Y-58324137D01*
X39364110Y-58291899D01*
X39319981Y-58239708D01*
X39276614Y-58175232D01*
X39255115Y-58136086D01*
X39210221Y-58044752D01*
X39210221Y-57552748D01*
X39494592Y-57552748D01*
X39494979Y-57660206D01*
X39496137Y-57747711D01*
X39497667Y-57817555D01*
X39499584Y-57872436D01*
X39502268Y-57914652D01*
X39505342Y-57946114D01*
X39509561Y-57970295D01*
X39514166Y-57988720D01*
X39520311Y-58004457D01*
X39523766Y-58012894D01*
X39554459Y-58062405D01*
X39596682Y-58106916D01*
X39641580Y-58138776D01*
X39676886Y-58149517D01*
X39682644Y-58134937D01*
X39684184Y-58096940D01*
X39681104Y-58048587D01*
X39669595Y-57913498D01*
X39659616Y-57751929D01*
X39650793Y-57568484D01*
X39643495Y-57368921D01*
X39638126Y-57158615D01*
X39634288Y-56942930D01*
X39633131Y-56830479D01*
X39631987Y-56727632D01*
X39631987Y-56517323D01*
X39632249Y-56483164D01*
X39901398Y-56483164D01*
X39901398Y-56830479D01*
X39911378Y-57195073D01*
X39931334Y-57582680D01*
X39936710Y-57665583D01*
X39945910Y-57802980D01*
X39955505Y-57928081D01*
X39966255Y-58047057D01*
X39977764Y-58165252D01*
X39991968Y-58288065D01*
X40008474Y-58422003D01*
X40028045Y-58572058D01*
X40051837Y-58743993D01*
X40072946Y-58892510D01*
X40095970Y-59054461D01*
X40116308Y-59199147D01*
X40133966Y-59329632D01*
X40148933Y-59449755D01*
X40161981Y-59562580D01*
X40173115Y-59671570D01*
X40182317Y-59779796D01*
X40189993Y-59890713D01*
X40196137Y-60007762D01*
X40201130Y-60133642D01*
X40205347Y-60272182D01*
X40208803Y-60426846D01*
X40211488Y-60600309D01*
X40213788Y-60796416D01*
X40216090Y-61017856D01*
X40218394Y-61266926D01*
X40228758Y-62486568D01*
X40271359Y-62597481D01*
X40347722Y-62754825D01*
X40448270Y-62894133D01*
X40569551Y-63012724D01*
X40708091Y-63107510D01*
X40860830Y-63175824D01*
X40935289Y-63197323D01*
X40964838Y-63200773D01*
X41024327Y-63203459D01*
X41111436Y-63206531D01*
X41223888Y-63208829D01*
X41358973Y-63211140D01*
X41514787Y-63213434D01*
X41689021Y-63215365D01*
X41879373Y-63216894D01*
X42083165Y-63218041D01*
X42298456Y-63219192D01*
X42522194Y-63219958D01*
X42752848Y-63220730D01*
X42987723Y-63221111D01*
X43224893Y-63221111D01*
X43461298Y-63221111D01*
X43695010Y-63220730D01*
X43923360Y-63220344D01*
X44144802Y-63219577D01*
X44356261Y-63218429D01*
X44555826Y-63216894D01*
X44740802Y-63215365D01*
X44908898Y-63213820D01*
X45058188Y-63211521D01*
X45185986Y-63209214D01*
X45289602Y-63206917D01*
X45367514Y-63203844D01*
X45417019Y-63200773D01*
X45431984Y-63198854D01*
X45538291Y-63167387D01*
X45649592Y-63120184D01*
X45754354Y-63062232D01*
X45839938Y-63000443D01*
X45845695Y-62995455D01*
X45935493Y-62899126D01*
X46017243Y-62779769D01*
X46085553Y-62646983D01*
X46135060Y-62510746D01*
X46146954Y-62462392D01*
X46150414Y-62431309D01*
X46153096Y-62370286D01*
X46155788Y-62281246D01*
X46158087Y-62166111D01*
X46160006Y-62027185D01*
X46161547Y-61866381D01*
X46162696Y-61686396D01*
X46163463Y-61488367D01*
X46163849Y-61347902D01*
X46164611Y-61040119D01*
X46166533Y-60762652D01*
X46169981Y-60513962D01*
X46174589Y-60292140D01*
X46181114Y-60095642D01*
X46188787Y-59922948D01*
X46197996Y-59771357D01*
X46209136Y-59640105D01*
X46221796Y-59526505D01*
X46227932Y-59482370D01*
X46235223Y-59432480D01*
X46246739Y-59357269D01*
X46260937Y-59263234D01*
X46277444Y-59156935D01*
X46294326Y-59044870D01*
X46300470Y-59005721D01*
X46334633Y-58781596D01*
X46363794Y-58584720D01*
X46388351Y-58408947D01*
X46409076Y-58249687D01*
X46426729Y-58101931D01*
X46441314Y-57959932D01*
X46453597Y-57819474D01*
X46463953Y-57674406D01*
X46473169Y-57520126D01*
X46481991Y-57351650D01*
X46488901Y-57196607D01*
X46494658Y-57022371D01*
X46496965Y-56831251D01*
X46496574Y-56627846D01*
X46493896Y-56416396D01*
X46488518Y-56201468D01*
X46480844Y-55987709D01*
X46471250Y-55779324D01*
X46459737Y-55581293D01*
X46446686Y-55398233D01*
X46431722Y-55233972D01*
X46415600Y-55093515D01*
X46400254Y-54991813D01*
X46349598Y-54794168D01*
X46272071Y-54612259D01*
X46167688Y-54447616D01*
X46037967Y-54302176D01*
X45939712Y-54218126D01*
X45870634Y-54168234D01*
X45800790Y-54124096D01*
X45727493Y-54085721D01*
X45647286Y-54052333D01*
X45557864Y-54023163D01*
X45455776Y-53997457D01*
X45338725Y-53974808D01*
X45203642Y-53954472D01*
X45047824Y-53936043D01*
X44867835Y-53918394D01*
X44661746Y-53901508D01*
X44427259Y-53884242D01*
X44307908Y-53877719D01*
X44161303Y-53871574D01*
X43993213Y-53866583D01*
X43808619Y-53862745D01*
X43613275Y-53859675D01*
X43412172Y-53857761D01*
X43210693Y-53856994D01*
X43014195Y-53857381D01*
X42828070Y-53858908D01*
X42657679Y-53861594D01*
X42508001Y-53865819D01*
X42458494Y-53867733D01*
X42278120Y-53875795D01*
X42091987Y-53886155D01*
X41905086Y-53898051D01*
X41722027Y-53910721D01*
X41548557Y-53924535D01*
X41388906Y-53938352D01*
X41248836Y-53952168D01*
X41132931Y-53965600D01*
X41078056Y-53973276D01*
X40868894Y-54018179D01*
X40680846Y-54088024D01*
X40513521Y-54182049D01*
X40367297Y-54300632D01*
X40242567Y-54443012D01*
X40239884Y-54446853D01*
X40189608Y-54518238D01*
X40145861Y-54588465D01*
X40107487Y-54660613D01*
X40074093Y-54736993D01*
X40045312Y-54820653D01*
X40020367Y-54913910D01*
X39999257Y-55019826D01*
X39980840Y-55141102D01*
X39964721Y-55280411D01*
X39950515Y-55440448D01*
X39937854Y-55623898D01*
X39925957Y-55833054D01*
X39914447Y-56071378D01*
X39911378Y-56146597D01*
X39901398Y-56483164D01*
X39632249Y-56483164D01*
X39633517Y-56318142D01*
X39637359Y-56134701D01*
X39643495Y-55973128D01*
X39648105Y-55862215D01*
X39650023Y-55781622D01*
X39648485Y-55728285D01*
X39644266Y-55700267D01*
X39639280Y-55694508D01*
X39618170Y-55704491D01*
X39583246Y-55730586D01*
X39561368Y-55749772D01*
X39500734Y-55805033D01*
X39496510Y-56873085D01*
X39495747Y-57085695D01*
X39494979Y-57267987D01*
X39494592Y-57423028D01*
X39494592Y-57552748D01*
X39210221Y-57552748D01*
X39210221Y-57423028D01*
X39210221Y-56921821D01*
X39210221Y-55799286D01*
X39252053Y-55710629D01*
X39318443Y-55596642D01*
X39399035Y-55509907D01*
X39497667Y-55447354D01*
X39583634Y-55415122D01*
X39662302Y-55392092D01*
X39689554Y-55146095D01*
X39712199Y-54973009D01*
X39740600Y-54824874D01*
X39776666Y-54694006D01*
X39823498Y-54573502D01*
X39882975Y-54454913D01*
X39958579Y-54331335D01*
X39973548Y-54308309D01*
X40077553Y-54175522D01*
X40203422Y-54050408D01*
X40343893Y-53938740D01*
X40492025Y-53847398D01*
X40629035Y-53785226D01*
X40694279Y-53755675D01*
X40731121Y-53726123D01*
X40736107Y-53716534D01*
X40741099Y-53690822D01*
X40742252Y-53680074D01*
X41054645Y-53680074D01*
X41125643Y-53669705D01*
X41162480Y-53665108D01*
X41225808Y-53658579D01*
X41309851Y-53650131D01*
X41408483Y-53640539D01*
X41515940Y-53630564D01*
X41559313Y-53626725D01*
X41664076Y-53616748D01*
X41757720Y-53607532D01*
X41764733Y-53606769D01*
X44645243Y-53606769D01*
X44859395Y-53625957D01*
X44951888Y-53634401D01*
X45044757Y-53643609D01*
X45126885Y-53651668D01*
X45186752Y-53658195D01*
X45252762Y-53665108D01*
X45314167Y-53670861D01*
X45354075Y-53673160D01*
X45408190Y-53675466D01*
X45398596Y-53606769D01*
X45394370Y-53567241D01*
X45389007Y-53503146D01*
X45382475Y-53420641D01*
X45375952Y-53327764D01*
X45371732Y-53264826D01*
X45365211Y-53172341D01*
X45357536Y-53089432D01*
X45349858Y-53022663D01*
X45342947Y-52977763D01*
X45338725Y-52962031D01*
X45315320Y-52937849D01*
X45274258Y-52909450D01*
X45228593Y-52884120D01*
X45190207Y-52869150D01*
X45180231Y-52867620D01*
X45174082Y-52882962D01*
X45168333Y-52926333D01*
X45163727Y-52993112D01*
X45160274Y-53078697D01*
X45159503Y-53108628D01*
X45157204Y-53203426D01*
X45153747Y-53271736D01*
X45149137Y-53318938D01*
X45142232Y-53350023D01*
X45132641Y-53371513D01*
X45122661Y-53383796D01*
X45078527Y-53411044D01*
X45023649Y-53415649D01*
X44969536Y-53397995D01*
X44929624Y-53363451D01*
X44915805Y-53341580D01*
X44906214Y-53315099D01*
X44899688Y-53278642D01*
X44895084Y-53225299D01*
X44892011Y-53148924D01*
X44890478Y-53091359D01*
X44885105Y-52864927D01*
X44842120Y-52875675D01*
X44779953Y-52902157D01*
X44727375Y-52944752D01*
X44693983Y-52994645D01*
X44687460Y-53017288D01*
X44682856Y-53058741D01*
X44676716Y-53122830D01*
X44669803Y-53203035D01*
X44662515Y-53290534D01*
X44655994Y-53377272D01*
X44650619Y-53455941D01*
X44646783Y-53518122D01*
X44645243Y-53556491D01*
X44645243Y-53606769D01*
X41764733Y-53606769D01*
X41835242Y-53599098D01*
X41892423Y-53592567D01*
X41924662Y-53587582D01*
X41929648Y-53586046D01*
X41930799Y-53570698D01*
X41929648Y-53528860D01*
X41926197Y-53459782D01*
X41920437Y-53362690D01*
X41911617Y-53237193D01*
X41900481Y-53082147D01*
X41886672Y-52896779D01*
X41870552Y-52680334D01*
X41858652Y-52528743D01*
X41832557Y-52181040D01*
X41807228Y-51831423D01*
X41782663Y-51470289D01*
X41757720Y-51088052D01*
X41754264Y-51034320D01*
X41743141Y-50862005D01*
X41733158Y-50718858D01*
X41724330Y-50601417D01*
X41715891Y-50507017D01*
X41707449Y-50432943D01*
X41698616Y-50375380D01*
X41688637Y-50331630D01*
X41677508Y-50298626D01*
X41664076Y-50273300D01*
X41648728Y-50252567D01*
X41633373Y-50236453D01*
X41568901Y-50191550D01*
X41495212Y-50171985D01*
X41419995Y-50176586D01*
X41350924Y-50204214D01*
X41295655Y-50254488D01*
X41278384Y-50282117D01*
X41269560Y-50307834D01*
X41261116Y-50352733D01*
X41252287Y-50418365D01*
X41243082Y-50506242D01*
X41233483Y-50617925D01*
X41223123Y-50754934D01*
X41212373Y-50918808D01*
X41200858Y-51111079D01*
X41188193Y-51333286D01*
X41181286Y-51462618D01*
X41162865Y-51798424D01*
X41142146Y-52159173D01*
X41119499Y-52538339D01*
X41096089Y-52928255D01*
X41091867Y-52996948D01*
X41084960Y-53108249D01*
X41078056Y-53228750D01*
X41071525Y-53345803D01*
X41066153Y-53446739D01*
X41064618Y-53471681D01*
X41054645Y-53680074D01*
X40742252Y-53680074D01*
X40746853Y-53637854D01*
X40752997Y-53563408D01*
X40759517Y-53472831D01*
X40765655Y-53371513D01*
X40767194Y-53343883D01*
X40773717Y-53222225D01*
X40781390Y-53093654D01*
X40788687Y-52967015D01*
X40795978Y-52853418D01*
X40801348Y-52770911D01*
X40815167Y-52567126D01*
X40830138Y-52339539D01*
X40845487Y-52096611D01*
X40861215Y-51846777D01*
X40876565Y-51598473D01*
X40890388Y-51365525D01*
X40903048Y-51149454D01*
X40914176Y-50963324D01*
X40924154Y-50804055D01*
X40933369Y-50669735D01*
X40941812Y-50557668D01*
X40949104Y-50465571D01*
X40956778Y-50390351D01*
X40964068Y-50329709D01*
X40971744Y-50281736D01*
X40979804Y-50243365D01*
X40988249Y-50211894D01*
X40997843Y-50185413D01*
X41004370Y-50170439D01*
X41069996Y-50061834D01*
X41157880Y-49975485D01*
X41266104Y-49913697D01*
X41378934Y-49880310D01*
X41497141Y-49873399D01*
X41614189Y-49895281D01*
G37*
%TO.C,R3*%
D15*
X50522936Y-45540000D02*
X51977064Y-45540000D01*
X50522936Y-47360000D02*
X51977064Y-47360000D01*
%TO.C,C7*%
X70023748Y-48755000D02*
X70546252Y-48755000D01*
X70023748Y-50225000D02*
X70546252Y-50225000D01*
%TO.C,J10*%
X72790000Y-102840000D02*
X72790000Y-105340000D01*
X74590000Y-103140000D02*
X74590000Y-104140000D01*
X74590000Y-104140000D02*
X73090000Y-104140000D01*
X74590000Y-109860000D02*
X73090000Y-109860000D01*
X74590000Y-110860000D02*
X74590000Y-109860000D01*
X75290000Y-102840000D02*
X72790000Y-102840000D01*
X75400000Y-103140000D02*
X75400000Y-103640000D01*
X75400000Y-103640000D02*
X76610000Y-103640000D01*
X75400000Y-110360000D02*
X75400000Y-110860000D01*
X76610000Y-103640000D02*
X76610000Y-110360000D01*
X76610000Y-110360000D02*
X75400000Y-110360000D01*
X73090000Y-103140000D02*
X77110000Y-103140000D01*
X77110000Y-110860000D01*
X73090000Y-110860000D01*
X73090000Y-103140000D01*
%TO.C,J13*%
X72790000Y-113340000D02*
X72790000Y-115840000D01*
X74590000Y-113640000D02*
X74590000Y-114640000D01*
X74590000Y-114640000D02*
X73090000Y-114640000D01*
X74590000Y-120360000D02*
X73090000Y-120360000D01*
X74590000Y-121360000D02*
X74590000Y-120360000D01*
X75290000Y-113340000D02*
X72790000Y-113340000D01*
X75400000Y-113640000D02*
X75400000Y-114140000D01*
X75400000Y-114140000D02*
X76610000Y-114140000D01*
X75400000Y-120860000D02*
X75400000Y-121360000D01*
X76610000Y-114140000D02*
X76610000Y-120860000D01*
X76610000Y-120860000D02*
X75400000Y-120860000D01*
X73090000Y-113640000D02*
X77110000Y-113640000D01*
X77110000Y-121360000D01*
X73090000Y-121360000D01*
X73090000Y-113640000D01*
%TO.C,C6*%
X35565000Y-49411252D02*
X35565000Y-48888748D01*
X37035000Y-49411252D02*
X37035000Y-48888748D01*
%TO.C,C4*%
X52038748Y-34915000D02*
X52561252Y-34915000D01*
X52038748Y-36385000D02*
X52561252Y-36385000D01*
%TO.C,R7*%
X57575000Y-71725436D02*
X57575000Y-73179564D01*
X59395000Y-71725436D02*
X59395000Y-73179564D01*
%TO.C,C13*%
X36460000Y-94823748D02*
X36460000Y-95346252D01*
X37930000Y-94823748D02*
X37930000Y-95346252D01*
%TO.C,R11*%
X36305436Y-89135000D02*
X37759564Y-89135000D01*
X36305436Y-90955000D02*
X37759564Y-90955000D01*
%TO.C,C9*%
X35077500Y-69186252D02*
X35077500Y-68663748D01*
X36547500Y-69186252D02*
X36547500Y-68663748D01*
%TO.C,R9*%
X44395000Y-88449564D02*
X44395000Y-86995436D01*
X46215000Y-88449564D02*
X46215000Y-86995436D01*
%TO.C,J8*%
X30682500Y-77085000D02*
X31892500Y-77085000D01*
X30682500Y-86305000D02*
X30682500Y-77085000D01*
X31892500Y-77085000D02*
X31892500Y-76585000D01*
X31892500Y-86305000D02*
X30682500Y-86305000D01*
X31892500Y-86805000D02*
X31892500Y-86305000D01*
X32002500Y-87105000D02*
X34502500Y-87105000D01*
X32702500Y-76585000D02*
X32702500Y-77585000D01*
X32702500Y-77585000D02*
X34202500Y-77585000D01*
X32702500Y-85805000D02*
X34202500Y-85805000D01*
X32702500Y-86805000D02*
X32702500Y-85805000D01*
X34502500Y-87105000D02*
X34502500Y-84605000D01*
X30182500Y-76585000D02*
X34202500Y-76585000D01*
X34202500Y-86805000D01*
X30182500Y-86805000D01*
X30182500Y-76585000D01*
%TO.C,R6*%
X50499564Y-62580000D02*
X49045436Y-62580000D01*
X50499564Y-64400000D02*
X49045436Y-64400000D01*
%TO.C,C11*%
X48530000Y-86081252D02*
X48530000Y-85558748D01*
X50000000Y-86081252D02*
X50000000Y-85558748D01*
%TO.C,R8*%
X44395000Y-83449564D02*
X44395000Y-81995436D01*
X46215000Y-83449564D02*
X46215000Y-81995436D01*
%TO.C,U1*%
X52645000Y-51140000D02*
X52645000Y-52640000D01*
X52645000Y-69540000D02*
X52645000Y-68040000D01*
X52645000Y-69540000D02*
X53645000Y-69540000D01*
X53645000Y-51140000D02*
X52645000Y-51140000D01*
X78495000Y-51140000D02*
X72295000Y-51140000D01*
X78495000Y-51140000D02*
X78495000Y-69540000D01*
X78495000Y-69540000D02*
X72295000Y-69540000D01*
X72120000Y-51140000D02*
X71620000Y-51140000D01*
X71620000Y-50640000D01*
X72120000Y-51140000D01*
G36*
X72120000Y-51140000D02*
G01*
X71620000Y-51140000D01*
X71620000Y-50640000D01*
X72120000Y-51140000D01*
G37*
%TO.C,C10*%
X34907500Y-81568748D02*
X34907500Y-82091252D01*
X36377500Y-81568748D02*
X36377500Y-82091252D01*
%TO.C,C16*%
X56356252Y-101340000D02*
X55833748Y-101340000D01*
X56356252Y-102810000D02*
X55833748Y-102810000D01*
%TO.C,D1*%
X54205000Y-43915000D02*
X56445000Y-43915000D01*
X54205000Y-44035000D02*
X56445000Y-44035000D01*
X54205000Y-44155000D02*
X56445000Y-44155000D01*
X55325000Y-39865000D02*
X55325000Y-40515000D01*
X55325000Y-45405000D02*
X55325000Y-44755000D01*
X54205000Y-40515000D02*
X56445000Y-40515000D01*
X56445000Y-44755000D01*
X54205000Y-44755000D01*
X54205000Y-40515000D01*
%TO.C,J11*%
X30672500Y-99635000D02*
X31882500Y-99635000D01*
X30672500Y-108855000D02*
X30672500Y-99635000D01*
X31882500Y-99635000D02*
X31882500Y-99135000D01*
X31882500Y-108855000D02*
X30672500Y-108855000D01*
X31882500Y-109355000D02*
X31882500Y-108855000D01*
X31992500Y-109655000D02*
X34492500Y-109655000D01*
X32692500Y-99135000D02*
X32692500Y-100135000D01*
X32692500Y-100135000D02*
X34192500Y-100135000D01*
X32692500Y-108355000D02*
X34192500Y-108355000D01*
X32692500Y-109355000D02*
X32692500Y-108355000D01*
X34492500Y-109655000D02*
X34492500Y-107155000D01*
X30172500Y-99135000D02*
X34192500Y-99135000D01*
X34192500Y-109355000D01*
X30172500Y-109355000D01*
X30172500Y-99135000D01*
%TO.C,U4*%
X39527500Y-93690000D02*
X41347500Y-93690000D01*
X39527500Y-93740000D02*
X39527500Y-93690000D01*
X39527500Y-96810000D02*
X39527500Y-96760000D01*
X41347500Y-93690000D02*
X41347500Y-93740000D01*
X41347500Y-96760000D02*
X41347500Y-96810000D01*
X41347500Y-96810000D02*
X39527500Y-96810000D01*
X42127500Y-97090000D02*
X41647500Y-97090000D01*
X41887500Y-96760000D01*
X42127500Y-97090000D01*
G36*
X42127500Y-97090000D02*
G01*
X41647500Y-97090000D01*
X41887500Y-96760000D01*
X42127500Y-97090000D01*
G37*
%TO.C,U5*%
X54725000Y-98067500D02*
X54775000Y-98067500D01*
X54725000Y-99887500D02*
X54725000Y-98067500D01*
X54775000Y-99887500D02*
X54725000Y-99887500D01*
X56675000Y-99887500D02*
X55895000Y-99887500D01*
X57795000Y-98067500D02*
X57845000Y-98067500D01*
X57845000Y-98067500D02*
X57845000Y-99887500D01*
X57845000Y-99887500D02*
X57795000Y-99887500D01*
X58125000Y-97767500D02*
X57795000Y-97527500D01*
X58125000Y-97287500D01*
X58125000Y-97767500D01*
G36*
X58125000Y-97767500D02*
G01*
X57795000Y-97527500D01*
X58125000Y-97287500D01*
X58125000Y-97767500D01*
G37*
%TO.C,J6*%
X30640000Y-56985000D02*
X31850000Y-56985000D01*
X30640000Y-63705000D02*
X30640000Y-56985000D01*
X31850000Y-56985000D02*
X31850000Y-56485000D01*
X31850000Y-63705000D02*
X30640000Y-63705000D01*
X31850000Y-64205000D02*
X31850000Y-63705000D01*
X31960000Y-64505000D02*
X34460000Y-64505000D01*
X32660000Y-56485000D02*
X32660000Y-57485000D01*
X32660000Y-57485000D02*
X34160000Y-57485000D01*
X32660000Y-63205000D02*
X34160000Y-63205000D01*
X32660000Y-64205000D02*
X32660000Y-63205000D01*
X34460000Y-64505000D02*
X34460000Y-62005000D01*
X30140000Y-56485000D02*
X34160000Y-56485000D01*
X34160000Y-64205000D01*
X30140000Y-64205000D01*
X30140000Y-56485000D01*
%TO.C,C17*%
X35110000Y-102483748D02*
X35110000Y-103006252D01*
X36580000Y-102483748D02*
X36580000Y-103006252D01*
%TO.C,J4*%
X30640000Y-31985000D02*
X31850000Y-31985000D01*
X30640000Y-43705000D02*
X30640000Y-31985000D01*
X31850000Y-31985000D02*
X31850000Y-31485000D01*
X31850000Y-43705000D02*
X30640000Y-43705000D01*
X31850000Y-44205000D02*
X31850000Y-43705000D01*
X31960000Y-44505000D02*
X34460000Y-44505000D01*
X32660000Y-31485000D02*
X32660000Y-32485000D01*
X32660000Y-32485000D02*
X34160000Y-32485000D01*
X32660000Y-43205000D02*
X34160000Y-43205000D01*
X32660000Y-44205000D02*
X32660000Y-43205000D01*
X34460000Y-44505000D02*
X34460000Y-42005000D01*
X30140000Y-31485000D02*
X34160000Y-31485000D01*
X34160000Y-44205000D01*
X30140000Y-44205000D01*
X30140000Y-31485000D01*
%TO.C,R4*%
X66325000Y-48929564D02*
X66325000Y-47475436D01*
X68145000Y-48929564D02*
X68145000Y-47475436D01*
%TO.C,C19*%
X56353752Y-103340000D02*
X55831248Y-103340000D01*
X56353752Y-104810000D02*
X55831248Y-104810000D01*
%TO.C,J12*%
X58435000Y-107890000D02*
X59435000Y-107890000D01*
X58935000Y-108700000D02*
X58435000Y-108700000D01*
X58935000Y-109910000D02*
X58935000Y-108700000D01*
X59435000Y-107890000D02*
X59435000Y-106390000D01*
X65155000Y-107890000D02*
X65155000Y-106390000D01*
X65655000Y-108700000D02*
X65655000Y-109910000D01*
X65655000Y-109910000D02*
X58935000Y-109910000D01*
X66155000Y-107890000D02*
X65155000Y-107890000D01*
X66155000Y-108700000D02*
X65655000Y-108700000D01*
X66455000Y-106090000D02*
X63955000Y-106090000D01*
X66455000Y-108590000D02*
X66455000Y-106090000D01*
X58435000Y-106390000D02*
X66155000Y-106390000D01*
X66155000Y-110410000D01*
X58435000Y-110410000D01*
X58435000Y-106390000D01*
%TO.C,J2*%
X48240000Y-32060000D02*
X48240000Y-34560000D01*
X48240000Y-34560000D02*
X50740000Y-34560000D01*
X48540000Y-31950000D02*
X49040000Y-31950000D01*
X48540000Y-32760000D02*
X49540000Y-32760000D01*
X49040000Y-30740000D02*
X55760000Y-30740000D01*
X49040000Y-31950000D02*
X49040000Y-30740000D01*
X49540000Y-32760000D02*
X49540000Y-34260000D01*
X55260000Y-32760000D02*
X55260000Y-34260000D01*
X55760000Y-30740000D02*
X55760000Y-31950000D01*
X55760000Y-31950000D02*
X56260000Y-31950000D01*
X56260000Y-32760000D02*
X55260000Y-32760000D01*
X48540000Y-30240000D02*
X56260000Y-30240000D01*
X56260000Y-34260000D01*
X48540000Y-34260000D01*
X48540000Y-30240000D01*
%TO.C,R5*%
X50462064Y-51830000D02*
X49007936Y-51830000D01*
X50462064Y-53650000D02*
X49007936Y-53650000D01*
%TO.C,PROG*%
X38090000Y-121790000D02*
X38090000Y-111410000D01*
X40740000Y-119140000D02*
X40740000Y-121790000D01*
X40740000Y-121790000D02*
X38090000Y-121790000D01*
X43390000Y-111410000D02*
X38090000Y-111410000D01*
X43390000Y-119140000D02*
X40740000Y-119140000D01*
X43390000Y-119140000D02*
X43390000Y-111410000D01*
X43390000Y-120410000D02*
X43390000Y-121790000D01*
X43390000Y-121790000D02*
X42010000Y-121790000D01*
%TO.C,C18*%
X37110000Y-102483748D02*
X37110000Y-103006252D01*
X38580000Y-102483748D02*
X38580000Y-103006252D01*
%TO.C,R2*%
X67935000Y-39267936D02*
X67935000Y-40722064D01*
X69755000Y-39267936D02*
X69755000Y-40722064D01*
%TO.C,R10*%
X53494564Y-86820000D02*
X52040436Y-86820000D01*
X53494564Y-88640000D02*
X52040436Y-88640000D01*
%TO.C,R14*%
X60055000Y-103509564D02*
X60055000Y-102055436D01*
X61875000Y-103509564D02*
X61875000Y-102055436D01*
%TO.C,U2*%
X52095000Y-81320000D02*
X56215000Y-81320000D01*
X52095000Y-81415000D02*
X52095000Y-81320000D01*
X52095000Y-86440000D02*
X52095000Y-86345000D01*
X56215000Y-81320000D02*
X56215000Y-81415000D01*
X56215000Y-86345000D02*
X56215000Y-86440000D01*
X56215000Y-86440000D02*
X52095000Y-86440000D01*
X51555000Y-81410000D02*
X51315000Y-81080000D01*
X51795000Y-81080000D01*
X51555000Y-81410000D01*
G36*
X51555000Y-81410000D02*
G01*
X51315000Y-81080000D01*
X51795000Y-81080000D01*
X51555000Y-81410000D01*
G37*
%TO.C,C15*%
X52866252Y-99380000D02*
X52343748Y-99380000D01*
X52866252Y-100850000D02*
X52343748Y-100850000D01*
%TO.C,C8*%
X35077500Y-59136252D02*
X35077500Y-58613748D01*
X36547500Y-59136252D02*
X36547500Y-58613748D01*
%TO.C,R15*%
X62365000Y-102050436D02*
X62365000Y-103504564D01*
X64185000Y-102050436D02*
X64185000Y-103504564D01*
%TO.C,Q1*%
X49525000Y-44345000D02*
X53125000Y-44345000D01*
X49486522Y-44333478D02*
G75*
G02*
X51325000Y-39894999I1838478J1838478D01*
G01*
X51325000Y-39895000D02*
G75*
G02*
X53163478Y-44333478I0J-2600000D01*
G01*
%TO.C,R13*%
X62849564Y-98425000D02*
X61395436Y-98425000D01*
X62849564Y-100245000D02*
X61395436Y-100245000D01*
%TO.C,C3*%
X34865000Y-37911252D02*
X34865000Y-37388748D01*
X36335000Y-37911252D02*
X36335000Y-37388748D01*
%TO.C,J15*%
X49655000Y-118130000D02*
X49655000Y-120200000D01*
X49655000Y-118130000D02*
X50525000Y-118130000D01*
X56525000Y-118130000D02*
X57395000Y-118130000D01*
X57395000Y-118130000D02*
X57395000Y-120200000D01*
X54825000Y-117790000D02*
X54485000Y-117320000D01*
X55165000Y-117320000D01*
X54825000Y-117790000D01*
G36*
X54825000Y-117790000D02*
G01*
X54485000Y-117320000D01*
X55165000Y-117320000D01*
X54825000Y-117790000D01*
G37*
%TO.C,J1*%
X37095000Y-28495000D02*
X37095000Y-36695000D01*
X37095000Y-28495000D02*
X45295000Y-28495000D01*
X37095000Y-33095000D02*
X37595000Y-32595000D01*
X37095000Y-36695000D02*
X45295000Y-36695000D01*
X37595000Y-32595000D02*
X37095000Y-32095000D01*
X45295000Y-28495000D02*
X45295000Y-36695000D01*
%TO.C,C5*%
X70023748Y-46755000D02*
X70546252Y-46755000D01*
X70023748Y-48225000D02*
X70546252Y-48225000D01*
%TO.C,R1*%
X65435000Y-39267936D02*
X65435000Y-40722064D01*
X67255000Y-39267936D02*
X67255000Y-40722064D01*
%TO.C,C1*%
X34865000Y-30811252D02*
X34865000Y-30288748D01*
X36335000Y-30811252D02*
X36335000Y-30288748D01*
%TO.C,Q2*%
X54002500Y-89540000D02*
X55522500Y-89540000D01*
X54002500Y-89590000D02*
X54002500Y-89540000D01*
X54002500Y-91490000D02*
X54002500Y-90710000D01*
X54002500Y-92660000D02*
X54002500Y-92610000D01*
X55522500Y-89540000D02*
X55522500Y-90540000D01*
X55522500Y-91660000D02*
X55522500Y-92660000D01*
X55522500Y-92660000D02*
X54002500Y-92660000D01*
X53702500Y-91050000D02*
X53222500Y-91050000D01*
X53462500Y-90720000D01*
X53702500Y-91050000D01*
G36*
X53702500Y-91050000D02*
G01*
X53222500Y-91050000D01*
X53462500Y-90720000D01*
X53702500Y-91050000D01*
G37*
%TO.C,C2*%
X34860000Y-34361252D02*
X34860000Y-33838748D01*
X36330000Y-34361252D02*
X36330000Y-33838748D01*
%TO.C,J5*%
X30640000Y-47035000D02*
X31850000Y-47035000D01*
X30640000Y-53755000D02*
X30640000Y-47035000D01*
X31850000Y-47035000D02*
X31850000Y-46535000D01*
X31850000Y-53755000D02*
X30640000Y-53755000D01*
X31850000Y-54255000D02*
X31850000Y-53755000D01*
X31960000Y-54555000D02*
X34460000Y-54555000D01*
X32660000Y-46535000D02*
X32660000Y-47535000D01*
X32660000Y-47535000D02*
X34160000Y-47535000D01*
X32660000Y-53255000D02*
X34160000Y-53255000D01*
X32660000Y-54255000D02*
X32660000Y-53255000D01*
X34460000Y-54555000D02*
X34460000Y-52055000D01*
X30140000Y-46535000D02*
X34160000Y-46535000D01*
X34160000Y-54255000D01*
X30140000Y-54255000D01*
X30140000Y-46535000D01*
%TO.C,J7*%
X30640000Y-66985000D02*
X31850000Y-66985000D01*
X30640000Y-73705000D02*
X30640000Y-66985000D01*
X31850000Y-66985000D02*
X31850000Y-66485000D01*
X31850000Y-73705000D02*
X30640000Y-73705000D01*
X31850000Y-74205000D02*
X31850000Y-73705000D01*
X31960000Y-74505000D02*
X34460000Y-74505000D01*
X32660000Y-66485000D02*
X32660000Y-67485000D01*
X32660000Y-67485000D02*
X34160000Y-67485000D01*
X32660000Y-73205000D02*
X34160000Y-73205000D01*
X32660000Y-74205000D02*
X32660000Y-73205000D01*
X34460000Y-74505000D02*
X34460000Y-72005000D01*
X30140000Y-66485000D02*
X34160000Y-66485000D01*
X34160000Y-74205000D01*
X30140000Y-74205000D01*
X30140000Y-66485000D01*
%TO.C,R12*%
X43664564Y-91395000D02*
X42210436Y-91395000D01*
X43664564Y-93215000D02*
X42210436Y-93215000D01*
%TO.C,Q3*%
D16*
X49215000Y-93755000D02*
X44715000Y-93755000D01*
X49215000Y-96785000D02*
X44715000Y-96785000D01*
D17*
X51505000Y-96645000D02*
G75*
G02*
X51305000Y-96645000I-100000J0D01*
G01*
X51305000Y-96645000D02*
G75*
G02*
X51505000Y-96645000I100000J0D01*
G01*
%TO.C,J9*%
D15*
X30700000Y-89585000D02*
X31910000Y-89585000D01*
X30700000Y-96305000D02*
X30700000Y-89585000D01*
X31910000Y-89585000D02*
X31910000Y-89085000D01*
X31910000Y-96305000D02*
X30700000Y-96305000D01*
X31910000Y-96805000D02*
X31910000Y-96305000D01*
X32020000Y-97105000D02*
X34520000Y-97105000D01*
X32720000Y-89085000D02*
X32720000Y-90085000D01*
X32720000Y-90085000D02*
X34220000Y-90085000D01*
X32720000Y-95805000D02*
X34220000Y-95805000D01*
X32720000Y-96805000D02*
X32720000Y-95805000D01*
X34520000Y-97105000D02*
X34520000Y-94605000D01*
X30200000Y-89085000D02*
X34220000Y-89085000D01*
X34220000Y-96805000D01*
X30200000Y-96805000D01*
X30200000Y-89085000D01*
%TO.C,C14*%
X52866252Y-97380000D02*
X52343748Y-97380000D01*
X52866252Y-98850000D02*
X52343748Y-98850000D01*
%TO.C,C12*%
X36191248Y-87150000D02*
X36713752Y-87150000D01*
X36191248Y-88620000D02*
X36713752Y-88620000D01*
%TO.C,D2*%
X52595000Y-104085000D02*
X52595000Y-105105000D01*
X52595000Y-111565000D02*
X52595000Y-110545000D01*
X54065000Y-105885000D02*
X51125000Y-105885000D01*
X54065000Y-106005000D02*
X51125000Y-106005000D01*
X54065000Y-106125000D02*
X51125000Y-106125000D01*
X51125000Y-105105000D02*
X54065000Y-105105000D01*
X54065000Y-110545000D01*
X51125000Y-110545000D01*
X51125000Y-105105000D01*
%TO.C,U3*%
D17*
X50562500Y-92238000D02*
G75*
G02*
X50362500Y-92238000I-100000J0D01*
G01*
X50362500Y-92238000D02*
G75*
G02*
X50562500Y-92238000I100000J0D01*
G01*
%TO.C,J3*%
D15*
X58390000Y-32060000D02*
X58390000Y-34560000D01*
X58390000Y-34560000D02*
X60890000Y-34560000D01*
X58690000Y-31950000D02*
X59190000Y-31950000D01*
X58690000Y-32760000D02*
X59690000Y-32760000D01*
X59190000Y-30740000D02*
X70910000Y-30740000D01*
X59190000Y-31950000D02*
X59190000Y-30740000D01*
X59690000Y-32760000D02*
X59690000Y-34260000D01*
X70410000Y-32760000D02*
X70410000Y-34260000D01*
X70910000Y-30740000D02*
X70910000Y-31950000D01*
X70910000Y-31950000D02*
X71410000Y-31950000D01*
X71410000Y-32760000D02*
X70410000Y-32760000D01*
X58690000Y-30240000D02*
X71410000Y-30240000D01*
X71410000Y-34260000D01*
X58690000Y-34260000D01*
X58690000Y-30240000D01*
%TD*%
%LPC*%
D18*
%TO.C,R3*%
X49787500Y-46450000D03*
X52712500Y-46450000D03*
%TD*%
D19*
%TO.C,C7*%
X69335000Y-49490000D03*
X71235000Y-49490000D03*
%TD*%
D20*
%TO.C,J10*%
X75400000Y-105750000D03*
D21*
X75400000Y-108250000D03*
%TD*%
D20*
%TO.C,J13*%
X75400000Y-116250000D03*
D21*
X75400000Y-118750000D03*
%TD*%
D22*
%TO.C,C6*%
X36300000Y-50100000D03*
X36300000Y-48200000D03*
%TD*%
D19*
%TO.C,C4*%
X51350000Y-35650000D03*
X53250000Y-35650000D03*
%TD*%
D23*
%TO.C,R7*%
X58485000Y-70990000D03*
X58485000Y-73915000D03*
%TD*%
D24*
%TO.C,C13*%
X37195000Y-94135000D03*
X37195000Y-96035000D03*
%TD*%
D18*
%TO.C,R11*%
X35570000Y-90045000D03*
X38495000Y-90045000D03*
%TD*%
D22*
%TO.C,C9*%
X35812500Y-69875000D03*
X35812500Y-67975000D03*
%TD*%
D25*
%TO.C,R9*%
X45305000Y-89185000D03*
X45305000Y-86260000D03*
%TD*%
D26*
%TO.C,J8*%
X31892500Y-84195000D03*
D27*
X31892500Y-81695000D03*
X31892500Y-79195000D03*
%TD*%
D28*
%TO.C,R6*%
X51235000Y-63490000D03*
X48310000Y-63490000D03*
%TD*%
D22*
%TO.C,C11*%
X49265000Y-86770000D03*
X49265000Y-84870000D03*
%TD*%
D25*
%TO.C,R8*%
X45305000Y-84185000D03*
X45305000Y-81260000D03*
%TD*%
D29*
%TO.C,U1*%
X70855000Y-51590000D03*
X69585000Y-51590000D03*
X68315000Y-51590000D03*
X67045000Y-51590000D03*
X65775000Y-51590000D03*
X64505000Y-51590000D03*
X63235000Y-51590000D03*
X61965000Y-51590000D03*
X60695000Y-51590000D03*
X59425000Y-51590000D03*
X58155000Y-51590000D03*
X56885000Y-51590000D03*
X55615000Y-51590000D03*
X54345000Y-51590000D03*
D30*
X53095000Y-53355000D03*
X53095000Y-54625000D03*
X53095000Y-55895000D03*
X53095000Y-57165000D03*
X53095000Y-58435000D03*
X53095000Y-59705000D03*
X53095000Y-60975000D03*
X53095000Y-62245000D03*
X53095000Y-63515000D03*
X53095000Y-64785000D03*
X53095000Y-66055000D03*
X53095000Y-67325000D03*
D29*
X54345000Y-69090000D03*
X55615000Y-69090000D03*
X56885000Y-69090000D03*
X58155000Y-69090000D03*
X59425000Y-69090000D03*
X60695000Y-69090000D03*
X61965000Y-69090000D03*
X63235000Y-69090000D03*
X64505000Y-69090000D03*
X65775000Y-69090000D03*
X67045000Y-69090000D03*
X68315000Y-69090000D03*
X69585000Y-69090000D03*
X70855000Y-69090000D03*
D31*
X63835000Y-57440000D03*
X62435000Y-57440000D03*
X64535000Y-58140000D03*
X63135000Y-58140000D03*
X61735000Y-58140000D03*
X63835000Y-58840000D03*
D32*
X63135000Y-58840000D03*
D31*
X62435000Y-58840000D03*
X64535000Y-59540000D03*
X63135000Y-59540000D03*
X61735000Y-59540000D03*
X63835000Y-60240000D03*
X62435000Y-60240000D03*
%TD*%
D24*
%TO.C,C10*%
X35642500Y-80880000D03*
X35642500Y-82780000D03*
%TD*%
D33*
%TO.C,C16*%
X57045000Y-102075000D03*
X55145000Y-102075000D03*
%TD*%
D34*
%TO.C,D1*%
X55325000Y-46445000D03*
D35*
X55325000Y-38825000D03*
%TD*%
D26*
%TO.C,J11*%
X31882500Y-106745000D03*
D27*
X31882500Y-104245000D03*
X31882500Y-101745000D03*
%TD*%
D36*
%TO.C,U4*%
X41575000Y-96200000D03*
X41575000Y-95250000D03*
X41575000Y-94300000D03*
X39300000Y-94300000D03*
X39300000Y-95250000D03*
X39300000Y-96200000D03*
%TD*%
D37*
%TO.C,U5*%
X57235000Y-97840000D03*
X56285000Y-97840000D03*
X55335000Y-97840000D03*
X55335000Y-100115000D03*
X57235000Y-100115000D03*
%TD*%
D38*
%TO.C,J6*%
X31850000Y-61595000D03*
D21*
X31850000Y-59095000D03*
%TD*%
D24*
%TO.C,C17*%
X35845000Y-101795000D03*
X35845000Y-103695000D03*
%TD*%
D26*
%TO.C,J4*%
X31850000Y-41595000D03*
D27*
X31850000Y-39095000D03*
X31850000Y-36595000D03*
X31850000Y-34095000D03*
%TD*%
D25*
%TO.C,R4*%
X67235000Y-49665000D03*
X67235000Y-46740000D03*
%TD*%
D33*
%TO.C,C19*%
X57042500Y-104075000D03*
X55142500Y-104075000D03*
%TD*%
D39*
%TO.C,J12*%
X63545000Y-108700000D03*
D40*
X61045000Y-108700000D03*
%TD*%
D41*
%TO.C,J2*%
X51150000Y-31950000D03*
D40*
X53650000Y-31950000D03*
%TD*%
D28*
%TO.C,R5*%
X51197500Y-52740000D03*
X48272500Y-52740000D03*
%TD*%
D42*
%TO.C,PROG*%
X42010000Y-120410000D03*
D43*
X39470000Y-120410000D03*
X42010000Y-117870000D03*
X39470000Y-117870000D03*
X42010000Y-115330000D03*
X39470000Y-115330000D03*
X42010000Y-112790000D03*
X39470000Y-112790000D03*
%TD*%
D24*
%TO.C,C18*%
X37845000Y-101795000D03*
X37845000Y-103695000D03*
%TD*%
D23*
%TO.C,R2*%
X68845000Y-38532500D03*
X68845000Y-41457500D03*
%TD*%
D28*
%TO.C,R10*%
X54230000Y-87730000D03*
X51305000Y-87730000D03*
%TD*%
D25*
%TO.C,R14*%
X60965000Y-104245000D03*
X60965000Y-101320000D03*
%TD*%
D44*
%TO.C,U2*%
X51680000Y-81975000D03*
X51680000Y-83245000D03*
X51680000Y-84515000D03*
X51680000Y-85785000D03*
X56630000Y-85785000D03*
X56630000Y-84515000D03*
X56630000Y-83245000D03*
X56630000Y-81975000D03*
D45*
X54155000Y-83880000D03*
%TD*%
D33*
%TO.C,C15*%
X53555000Y-100115000D03*
X51655000Y-100115000D03*
%TD*%
D22*
%TO.C,C8*%
X35812500Y-59825000D03*
X35812500Y-57925000D03*
%TD*%
D23*
%TO.C,R15*%
X63275000Y-101315000D03*
X63275000Y-104240000D03*
%TD*%
D46*
%TO.C,Q1*%
X50055000Y-42495000D03*
D47*
X51325000Y-42495000D03*
X52595000Y-42495000D03*
%TD*%
D28*
%TO.C,R13*%
X63585000Y-99335000D03*
X60660000Y-99335000D03*
%TD*%
D22*
%TO.C,C3*%
X35600000Y-38600000D03*
X35600000Y-36700000D03*
%TD*%
D48*
%TO.C,J15*%
X54825000Y-118725000D03*
X54175000Y-118725000D03*
X53525000Y-118725000D03*
X52875000Y-118725000D03*
X52225000Y-118725000D03*
D49*
X49350000Y-121400000D03*
D50*
X49787500Y-121400000D03*
D51*
X51300000Y-118400000D03*
D52*
X53525000Y-121400000D03*
D51*
X55750000Y-118400000D03*
D50*
X57262500Y-121400000D03*
D49*
X57700000Y-121400000D03*
%TD*%
D53*
%TO.C,REF\u002A\u002A*%
X31600000Y-119550000D03*
D54*
X31600000Y-119550000D03*
%TD*%
D55*
%TO.C,J1*%
X41195000Y-32595000D03*
D56*
X38655000Y-30055000D03*
X38655000Y-35135000D03*
X43735000Y-30055000D03*
X43735000Y-35135000D03*
%TD*%
D19*
%TO.C,C5*%
X69335000Y-47490000D03*
X71235000Y-47490000D03*
%TD*%
D23*
%TO.C,R1*%
X66345000Y-38532500D03*
X66345000Y-41457500D03*
%TD*%
D22*
%TO.C,C1*%
X35600000Y-31500000D03*
X35600000Y-29600000D03*
%TD*%
D57*
%TO.C,Q2*%
X53825000Y-90150000D03*
X53825000Y-92050000D03*
X55700000Y-91100000D03*
%TD*%
D53*
%TO.C,REF\u002A\u002A*%
X75550000Y-31800000D03*
D54*
X75550000Y-31800000D03*
%TD*%
D22*
%TO.C,C2*%
X35595000Y-35050000D03*
X35595000Y-33150000D03*
%TD*%
D38*
%TO.C,J5*%
X31850000Y-51645000D03*
D21*
X31850000Y-49145000D03*
%TD*%
D38*
%TO.C,J7*%
X31850000Y-71595000D03*
D21*
X31850000Y-69095000D03*
%TD*%
D28*
%TO.C,R12*%
X44400000Y-92305000D03*
X41475000Y-92305000D03*
%TD*%
D58*
%TO.C,Q3*%
X49845000Y-96245000D03*
X49845000Y-95595000D03*
X49845000Y-94945000D03*
X49845000Y-94295000D03*
X44085000Y-94295000D03*
X44085000Y-94945000D03*
X44085000Y-95595000D03*
X44085000Y-96245000D03*
%TD*%
D38*
%TO.C,J9*%
X31910000Y-94195000D03*
D21*
X31910000Y-91695000D03*
%TD*%
D33*
%TO.C,C14*%
X53555000Y-98115000D03*
X51655000Y-98115000D03*
%TD*%
D19*
%TO.C,C12*%
X35502500Y-87885000D03*
X37402500Y-87885000D03*
%TD*%
D59*
%TO.C,D2*%
X52595000Y-102745000D03*
D60*
X52595000Y-112905000D03*
%TD*%
D61*
%TO.C,U3*%
X51632500Y-89716000D03*
X51632500Y-92040000D03*
%TD*%
D62*
%TO.C,J3*%
X61300000Y-31950000D03*
D63*
X63800000Y-31950000D03*
X66300000Y-31950000D03*
X68800000Y-31950000D03*
%TD*%
D64*
%TO.C,RESET*%
X50345000Y-78745000D03*
X50345000Y-72245000D03*
X45845000Y-78745000D03*
X45845000Y-72245000D03*
%TD*%
%TO.C,BOOT*%
X42095000Y-78745000D03*
X42095000Y-72245000D03*
X37595000Y-78745000D03*
X37595000Y-72245000D03*
%TD*%
D65*
%TO.C,U7*%
X60975000Y-94980000D03*
X63515000Y-94980000D03*
X66055000Y-94980000D03*
X68595000Y-94980000D03*
X71135000Y-94980000D03*
X73675000Y-94980000D03*
X76215000Y-94980000D03*
D66*
X74945000Y-81010000D03*
X62245000Y-81010000D03*
D65*
X70395000Y-82026000D03*
X66895000Y-82026000D03*
%TD*%
%LPD*%
M02*
