%TF.GenerationSoftware,KiCad,Pcbnew,10.0.0*%
%TF.CreationDate,2026-05-18T20:48:59+02:00*%
%TF.ProjectId,talk-e,74616c6b-2d65-42e6-9b69-6361645f7063,rev?*%
%TF.SameCoordinates,Original*%
%TF.FileFunction,Soldermask,Bot*%
%TF.FilePolarity,Negative*%
%FSLAX46Y46*%
G04 Gerber Fmt 4.6, Leading zero omitted, Abs format (unit mm)*
G04 Created by KiCad (PCBNEW 10.0.0) date 2026-05-18 20:48:59*
%MOMM*%
%LPD*%
G01*
G04 APERTURE LIST*
G04 Aperture macros list*
%AMRoundRect*
0 Rectangle with rounded corners*
0 $1 Rounding radius*
0 $2 $3 $4 $5 $6 $7 $8 $9 X,Y pos of 4 corners*
0 Add a 4 corners polygon primitive as box body*
4,1,4,$2,$3,$4,$5,$6,$7,$8,$9,$2,$3,0*
0 Add four circle primitives for the rounded corners*
1,1,$1+$1,$2,$3*
1,1,$1+$1,$4,$5*
1,1,$1+$1,$6,$7*
1,1,$1+$1,$8,$9*
0 Add four rect primitives between the rounded corners*
20,1,$1+$1,$2,$3,$4,$5,0*
20,1,$1+$1,$4,$5,$6,$7,0*
20,1,$1+$1,$6,$7,$8,$9,0*
20,1,$1+$1,$8,$9,$2,$3,0*%
G04 Aperture macros list end*
%ADD10RoundRect,0.250000X-0.750000X0.600000X-0.750000X-0.600000X0.750000X-0.600000X0.750000X0.600000X0*%
%ADD11O,2.000000X1.700000*%
%ADD12RoundRect,0.250000X0.725000X-0.600000X0.725000X0.600000X-0.725000X0.600000X-0.725000X-0.600000X0*%
%ADD13O,1.950000X1.700000*%
%ADD14RoundRect,0.250000X0.550000X-0.550000X0.550000X0.550000X-0.550000X0.550000X-0.550000X-0.550000X0*%
%ADD15C,1.600000*%
%ADD16RoundRect,0.250000X0.750000X-0.600000X0.750000X0.600000X-0.750000X0.600000X-0.750000X-0.600000X0*%
%ADD17RoundRect,0.250000X0.600000X0.750000X-0.600000X0.750000X-0.600000X-0.750000X0.600000X-0.750000X0*%
%ADD18O,1.700000X2.000000*%
%ADD19RoundRect,0.250000X-0.600000X-0.750000X0.600000X-0.750000X0.600000X0.750000X-0.600000X0.750000X0*%
%ADD20R,1.700000X1.700000*%
%ADD21C,1.700000*%
%ADD22R,1.050000X1.500000*%
%ADD23O,1.050000X1.500000*%
%ADD24O,1.000000X1.900000*%
%ADD25O,1.050000X1.250000*%
%ADD26C,3.600000*%
%ADD27C,6.400000*%
%ADD28RoundRect,0.200100X-0.949900X-0.949900X0.949900X-0.949900X0.949900X0.949900X-0.949900X0.949900X0*%
%ADD29C,2.500000*%
%ADD30RoundRect,0.249999X-0.850001X0.850001X-0.850001X-0.850001X0.850001X-0.850001X0.850001X0.850001X0*%
%ADD31C,2.200000*%
%ADD32RoundRect,0.250000X-0.600000X-0.725000X0.600000X-0.725000X0.600000X0.725000X-0.600000X0.725000X0*%
%ADD33O,1.700000X1.950000*%
%ADD34C,2.000000*%
%ADD35RoundRect,0.250000X-0.250000X-0.475000X0.250000X-0.475000X0.250000X0.475000X-0.250000X0.475000X0*%
%ADD36C,1.734000*%
%ADD37C,3.760000*%
%ADD38RoundRect,0.250000X-0.625000X0.312500X-0.625000X-0.312500X0.625000X-0.312500X0.625000X0.312500X0*%
%ADD39RoundRect,0.250000X0.250000X0.475000X-0.250000X0.475000X-0.250000X-0.475000X0.250000X-0.475000X0*%
%ADD40RoundRect,0.250000X0.625000X-0.312500X0.625000X0.312500X-0.625000X0.312500X-0.625000X-0.312500X0*%
%ADD41RoundRect,0.102000X0.400000X-1.000000X0.400000X1.000000X-0.400000X1.000000X-0.400000X-1.000000X0*%
G04 APERTURE END LIST*
D10*
%TO.C,J10*%
X75400000Y-105750000D03*
D11*
X75400000Y-108250000D03*
%TD*%
D10*
%TO.C,J13*%
X75400000Y-116250000D03*
D11*
X75400000Y-118750000D03*
%TD*%
D12*
%TO.C,J8*%
X31892500Y-84195000D03*
D13*
X31892500Y-81695000D03*
X31892500Y-79195000D03*
%TD*%
D14*
%TO.C,D1*%
X55325000Y-46445000D03*
D15*
X55325000Y-38825000D03*
%TD*%
D12*
%TO.C,J11*%
X31882500Y-106745000D03*
D13*
X31882500Y-104245000D03*
X31882500Y-101745000D03*
%TD*%
D16*
%TO.C,J6*%
X31850000Y-61595000D03*
D11*
X31850000Y-59095000D03*
%TD*%
D12*
%TO.C,J4*%
X31850000Y-41595000D03*
D13*
X31850000Y-39095000D03*
X31850000Y-36595000D03*
X31850000Y-34095000D03*
%TD*%
D17*
%TO.C,J12*%
X63545000Y-108700000D03*
D18*
X61045000Y-108700000D03*
%TD*%
D19*
%TO.C,J2*%
X51150000Y-31950000D03*
D18*
X53650000Y-31950000D03*
%TD*%
D20*
%TO.C,PROG*%
X42010000Y-120410000D03*
D21*
X39470000Y-120410000D03*
X42010000Y-117870000D03*
X39470000Y-117870000D03*
X42010000Y-115330000D03*
X39470000Y-115330000D03*
X42010000Y-112790000D03*
X39470000Y-112790000D03*
%TD*%
D22*
%TO.C,Q1*%
X50055000Y-42495000D03*
D23*
X51325000Y-42495000D03*
X52595000Y-42495000D03*
%TD*%
D24*
%TO.C,J15*%
X49350000Y-121400000D03*
D25*
X51300000Y-118400000D03*
X55750000Y-118400000D03*
D24*
X57700000Y-121400000D03*
%TD*%
D26*
%TO.C,REF\u002A\u002A*%
X31600000Y-119550000D03*
D27*
X31600000Y-119550000D03*
%TD*%
D28*
%TO.C,J1*%
X41195000Y-32595000D03*
D29*
X38655000Y-30055000D03*
X38655000Y-35135000D03*
X43735000Y-30055000D03*
X43735000Y-35135000D03*
%TD*%
D26*
%TO.C,REF\u002A\u002A*%
X75550000Y-31800000D03*
D27*
X75550000Y-31800000D03*
%TD*%
D16*
%TO.C,J5*%
X31850000Y-51645000D03*
D11*
X31850000Y-49145000D03*
%TD*%
D16*
%TO.C,J7*%
X31850000Y-71595000D03*
D11*
X31850000Y-69095000D03*
%TD*%
D16*
%TO.C,J9*%
X31910000Y-94195000D03*
D11*
X31910000Y-91695000D03*
%TD*%
D30*
%TO.C,D2*%
X52595000Y-102745000D03*
D31*
X52595000Y-112905000D03*
%TD*%
D32*
%TO.C,J3*%
X61300000Y-31950000D03*
D33*
X63800000Y-31950000D03*
X66300000Y-31950000D03*
X68800000Y-31950000D03*
%TD*%
D34*
%TO.C,RESET*%
X50345000Y-78745000D03*
X50345000Y-72245000D03*
X45845000Y-78745000D03*
X45845000Y-72245000D03*
%TD*%
D35*
%TO.C,C24*%
X61145000Y-100745000D03*
X63045000Y-100745000D03*
%TD*%
D34*
%TO.C,BOOT*%
X42095000Y-78745000D03*
X42095000Y-72245000D03*
X37595000Y-78745000D03*
X37595000Y-72245000D03*
%TD*%
D36*
%TO.C,U7*%
X60975000Y-94980000D03*
X63515000Y-94980000D03*
X66055000Y-94980000D03*
X68595000Y-94980000D03*
X71135000Y-94980000D03*
X73675000Y-94980000D03*
X76215000Y-94980000D03*
D37*
X74945000Y-81010000D03*
X62245000Y-81010000D03*
D36*
X70395000Y-82026000D03*
X66895000Y-82026000D03*
%TD*%
D38*
%TO.C,R18*%
X65095000Y-98782500D03*
X65095000Y-101707500D03*
%TD*%
D35*
%TO.C,C23*%
X61145000Y-98745000D03*
X63045000Y-98745000D03*
%TD*%
D39*
%TO.C,C22*%
X40845000Y-69745000D03*
X38945000Y-69745000D03*
%TD*%
D40*
%TO.C,R17*%
X69095000Y-101707500D03*
X69095000Y-98782500D03*
%TD*%
D41*
%TO.C,U6*%
X50195000Y-62082500D03*
X48195000Y-62082500D03*
X46195000Y-62082500D03*
X44195000Y-62082500D03*
X42195000Y-62082500D03*
X40195000Y-62082500D03*
X38195000Y-62082500D03*
X36195000Y-62082500D03*
X36195000Y-45882500D03*
X38195000Y-45882500D03*
X40195000Y-45882500D03*
X42195000Y-45882500D03*
X44195000Y-45882500D03*
X46195000Y-45882500D03*
X48195000Y-45882500D03*
X50195000Y-45882500D03*
%TD*%
D39*
%TO.C,C21*%
X49095000Y-69745000D03*
X47195000Y-69745000D03*
%TD*%
D38*
%TO.C,R16*%
X54485000Y-71277500D03*
X54485000Y-74202500D03*
%TD*%
D35*
%TO.C,C20*%
X45050000Y-43582500D03*
X46950000Y-43582500D03*
%TD*%
M02*
